<?xml version="1.0" standalone="no"?>

<!DOCTYPE svg PUBLIC "-//W3C//DTD SVG 1.1//EN" 
"http://www.w3.org/Graphics/SVG/1.1/DTD/svg11.dtd">

<svg width="650" height="350" version="1.1"
     xmlns="http://www.w3.org/2000/svg">
<title>Transition Diagram for trans_truthop</title>
<rect x="0" y="0" width="650" height="350" style="fill: #4c76ac; stroke: #4c76ac" />

<circle cx="325" cy="25" r="20" style="stroke: #ecd264; fill: none" />
<text x="325" y="30" style="stroke: #ecd264; fill: #ecd264; font-size:12pt;  text-anchor: middle">E</text>

<circle cx="25" cy="125" r="20" style="stroke: #ecd264; fill: none" />

<circle cx="125" cy="125" r="20" style="stroke: #ecd264; fill: none" />

<circle cx="225" cy="125" r="20" style="stroke: #ecd264; fill: none" />

<circle cx="325" cy="125" r="20" style="stroke: #ecd264; fill: none" />

<circle cx="425" cy="125" r="20" style="stroke: #ecd264; fill: none" />

<circle cx="525" cy="125" r="20" style="stroke: #ecd264; fill: none" />

<circle cx="625" cy="125" r="20" style="stroke: #ecd264; fill: none" />

<circle cx="325" cy="225" r="20" style="stroke: #ecd264; fill: none" />

<circle cx="325" cy="325" r="20" style="stroke: #ecd264; fill: none" />
<text x="325" y="330" style="stroke: #ecd264; fill: #ecd264; font-size:12pt;  text-anchor: middle">X</text>

<text x="70" y="95" style="stroke: #ecd264; fill: #ecd264; font-size:12pt;  text-anchor: left">=</text>

<text x="160" y="95" style="stroke: #ecd264; fill: #ecd264; font-size:12pt;  text-anchor: left">&lt;</text>

<text x="240" y="95" style="stroke: #ecd264; fill: #ecd264; font-size:12pt;  text-anchor: left">&gt;</text>

<text x="330" y="95" style="stroke: #ecd264; fill: #ecd264; font-size:12pt;  text-anchor: left">[</text>

<text x="410" y="95" style="stroke: #ecd264; fill: #ecd264; font-size:12pt;  text-anchor: left">]</text>

<text x="480" y="95" style="stroke: #ecd264; fill: #ecd264; font-size:12pt;  text-anchor: left">&amp;</text>

<text x="560" y="95" style="stroke: #ecd264; fill: #ecd264; font-size:12pt;  text-anchor: left">!</text>

<path d="M 306.026334038989724 31.32455532033675866,    43.97366596101027599 118.6754446796632413"
          style="stroke: #ecd264; fill: none" />
<path d="M 54.09295447354908986 120.5728112757642689,   50.93067681338071052 111.0859782952591309"    style="stroke: #ecd264; fill: none" />
<path d="M 53.14427117549857606 120.8890390417811069,   49.98199351533019672 111.4022060612759689"    style="stroke: #ecd264; fill: none" />
<path d="M 51.87936011143122432 120.256583509747431,   49.34953798329652086 112.6671171253433206"    style="stroke: #ecd264; fill: none" />
<path d="M 50.93067681338071052 120.5728112757642689,   48.40085468524600706 112.9833448913601585"    style="stroke: #ecd264; fill: none" />
<path d="M 49.66576574931335879 119.9403557437305931,   47.76839915321233119 114.2482559554275103"    style="stroke: #ecd264; fill: none" />
<path d="M 48.71708245126284499 120.256583509747431,   46.81971585516181739 114.5644837214443482"    style="stroke: #ecd264; fill: none" />
<path d="M 47.45217138719549326 119.6241279777137551,   46.18726032312814152 115.8293947855116999"    style="stroke: #ecd264; fill: none" />
<path d="M 46.50348808914497946 119.9403557437305931,   45.23857702507762772 116.1456225515285379"    style="stroke: #ecd264; fill: none" />
<path d="M 45.23857702507762772 119.3079002116969172,   44.60612149304395186 117.4105336155958896"    style="stroke: #ecd264; fill: none" />
<path d="M 44.28989372702711392 119.6241279777137551,   43.65743819499343806 117.7267613816127275"    style="stroke: #ecd264; fill: none" />

<path d="M 307.1114561800016824 33.94427190999915878,    142.8885438199983176 116.0557280900008412"
          style="stroke: #ecd264; fill: none" />
<path d="M 153.1744565164973502 116.5029416855007992,   148.7023205614977708 107.5586697755016404"    style="stroke: #ecd264; fill: none" />
<path d="M 152.2800293254974343 116.9501552810007571,   147.8078933704978549 108.0058833710015983"    style="stroke: #ecd264; fill: none" />
<path d="M 150.9383885389975605 116.5029416855007991,   147.3606797749978969 109.3475241575014721"    style="stroke: #ecd264; fill: none" />
<path d="M 150.0439613479976446 116.9501552810007571,   146.466252583997981 109.7947377530014301"    style="stroke: #ecd264; fill: none" />
<path d="M 148.7023205614977708 116.5029416855007991,   146.0190389884980232 111.1363785395013039"    style="stroke: #ecd264; fill: none" />
<path d="M 147.8078933704978549 116.9501552810007571,   145.1246117974981073 111.5835921350012619"    style="stroke: #ecd264; fill: none" />
<path d="M 146.4662525839979811 116.5029416855007992,   144.6773982019981493 112.9252329215011356"    style="stroke: #ecd264; fill: none" />
<path d="M 145.5718253929980652 116.9501552810007571,   143.7829710109982334 113.3724465170010935"    style="stroke: #ecd264; fill: none" />
<path d="M 144.2301846064981914 116.5029416855007992,   143.3357574154982756 114.7140873035009674"    style="stroke: #ecd264; fill: none" />
<path d="M 143.3357574154982755 116.9501552810007571,   142.4413302244983597 115.1613008990009253"    style="stroke: #ecd264; fill: none" />

<path d="M 310.8578643762690495 39.14213562373095049,    239.1421356237309505 110.8578643762690495"
          style="stroke: #ecd264; fill: none" />
<path d="M 249.0416305603426158 108.0294372515228594,   241.9705627484771406 100.9583694396573842"    style="stroke: #ecd264; fill: none" />
<path d="M 248.3345237791560683 108.7365440327094069,   241.2634559672905931 101.6654762208439317"    style="stroke: #ecd264; fill: none" />
<path d="M 246.9203102167829733 108.7365440327094069,   241.2634559672905931 103.0796897832170267"    style="stroke: #ecd264; fill: none" />
<path d="M 246.2132034355964257 109.4436508138959545,   240.5563491861040455 103.7867965644035743"    style="stroke: #ecd264; fill: none" />
<path d="M 244.7989898732233307 109.4436508138959545,   240.5563491861040455 105.2010101267766693"    style="stroke: #ecd264; fill: none" />
<path d="M 244.0918830920367832 110.150757595082502,   239.849242404917498 105.9081169079632168"    style="stroke: #ecd264; fill: none" />
<path d="M 242.6776695296636881 110.1507575950825019,   239.8492424049174981 107.3223304703363119"    style="stroke: #ecd264; fill: none" />
<path d="M 241.9705627484771405 110.8578643762690495,   239.1421356237309505 108.0294372515228595"    style="stroke: #ecd264; fill: none" />
<path d="M 240.5563491861040455 110.8578643762690495,   239.1421356237309505 109.4436508138959545"    style="stroke: #ecd264; fill: none" />
<path d="M 239.849242404917498 111.564971157455597,   238.435028842544403 110.150757595082502"    style="stroke: #ecd264; fill: none" />

<path d="M 325 45,    325 105"
          style="stroke: #ecd264; fill: none" />
<path d="M 330 96,   320 96"    style="stroke: #ecd264; fill: none" />
<path d="M 330 97,   320 97"    style="stroke: #ecd264; fill: none" />
<path d="M 329 98,   321 98"    style="stroke: #ecd264; fill: none" />
<path d="M 329 99,   321 99"    style="stroke: #ecd264; fill: none" />
<path d="M 328 100,   322 100"    style="stroke: #ecd264; fill: none" />
<path d="M 328 101,   322 101"    style="stroke: #ecd264; fill: none" />
<path d="M 327 102,   323 102"    style="stroke: #ecd264; fill: none" />
<path d="M 327 103,   323 103"    style="stroke: #ecd264; fill: none" />
<path d="M 326 104,   324 104"    style="stroke: #ecd264; fill: none" />
<path d="M 326 105,   324 105"    style="stroke: #ecd264; fill: none" />

<path d="M 339.1421356237309505 39.14213562373095049,    410.8578643762690495 110.8578643762690495"
          style="stroke: #ecd264; fill: none" />
<path d="M 408.0294372515228594 100.9583694396573842,   400.9583694396573842 108.0294372515228594"    style="stroke: #ecd264; fill: none" />
<path d="M 408.7365440327094069 101.6654762208439317,   401.6654762208439317 108.7365440327094069"    style="stroke: #ecd264; fill: none" />
<path d="M 408.7365440327094069 103.0796897832170267,   403.0796897832170267 108.7365440327094069"    style="stroke: #ecd264; fill: none" />
<path d="M 409.4436508138959545 103.7867965644035743,   403.7867965644035743 109.4436508138959545"    style="stroke: #ecd264; fill: none" />
<path d="M 409.4436508138959545 105.2010101267766693,   405.2010101267766693 109.4436508138959545"    style="stroke: #ecd264; fill: none" />
<path d="M 410.150757595082502 105.9081169079632168,   405.9081169079632168 110.150757595082502"    style="stroke: #ecd264; fill: none" />
<path d="M 410.1507575950825019 107.3223304703363119,   407.3223304703363119 110.1507575950825019"    style="stroke: #ecd264; fill: none" />
<path d="M 410.8578643762690495 108.0294372515228595,   408.0294372515228595 110.8578643762690495"    style="stroke: #ecd264; fill: none" />
<path d="M 410.8578643762690495 109.4436508138959545,   409.4436508138959545 110.8578643762690495"    style="stroke: #ecd264; fill: none" />
<path d="M 411.564971157455597 110.150757595082502,   410.150757595082502 111.564971157455597"    style="stroke: #ecd264; fill: none" />

<path d="M 342.8885438199983176 33.94427190999915878,    507.1114561800016824 116.0557280900008412"
          style="stroke: #ecd264; fill: none" />
<path d="M 501.2976794385022292 107.5586697755016404,   496.8255434835026498 116.5029416855007992"    style="stroke: #ecd264; fill: none" />
<path d="M 502.1921066295021451 108.0058833710015983,   497.7199706745025657 116.9501552810007571"    style="stroke: #ecd264; fill: none" />
<path d="M 502.6393202250021031 109.3475241575014721,   499.0616114610024395 116.5029416855007991"    style="stroke: #ecd264; fill: none" />
<path d="M 503.533747416002019 109.7947377530014301,   499.9560386520023554 116.9501552810007571"    style="stroke: #ecd264; fill: none" />
<path d="M 503.9809610115019768 111.1363785395013039,   501.2976794385022292 116.5029416855007991"    style="stroke: #ecd264; fill: none" />
<path d="M 504.8753882025018927 111.5835921350012619,   502.1921066295021451 116.9501552810007571"    style="stroke: #ecd264; fill: none" />
<path d="M 505.3226017980018507 112.9252329215011356,   503.5337474160020189 116.5029416855007992"    style="stroke: #ecd264; fill: none" />
<path d="M 506.2170289890017666 113.3724465170010935,   504.4281746070019348 116.9501552810007571"    style="stroke: #ecd264; fill: none" />
<path d="M 506.6642425845017244 114.7140873035009674,   505.7698153935018086 116.5029416855007992"    style="stroke: #ecd264; fill: none" />
<path d="M 507.5586697755016403 115.1613008990009253,   506.6642425845017245 116.9501552810007571"    style="stroke: #ecd264; fill: none" />

<path d="M 343.973665961010276 31.32455532033675866,    606.026334038989724 118.6754446796632413"
          style="stroke: #ecd264; fill: none" />
<path d="M 599.0693231866192895 111.0859782952591309,   595.9070455264509101 120.5728112757642689"    style="stroke: #ecd264; fill: none" />
<path d="M 600.0180064846698033 111.4022060612759689,   596.8557288245014239 120.8890390417811069"    style="stroke: #ecd264; fill: none" />
<path d="M 600.6504620167034791 112.6671171253433206,   598.1206398885687757 120.256583509747431"    style="stroke: #ecd264; fill: none" />
<path d="M 601.5991453147539929 112.9833448913601585,   599.0693231866192895 120.5728112757642689"    style="stroke: #ecd264; fill: none" />
<path d="M 602.2316008467876688 114.2482559554275103,   600.3342342506866412 119.9403557437305931"    style="stroke: #ecd264; fill: none" />
<path d="M 603.1802841448381826 114.5644837214443482,   601.282917548737155 120.256583509747431"    style="stroke: #ecd264; fill: none" />
<path d="M 603.8127396768718585 115.8293947855116999,   602.5478286128045067 119.6241279777137551"    style="stroke: #ecd264; fill: none" />
<path d="M 604.7614229749223723 116.1456225515285379,   603.4965119108550205 119.9403557437305931"    style="stroke: #ecd264; fill: none" />
<path d="M 605.3938785069560481 117.4105336155958896,   604.7614229749223723 119.3079002116969172"    style="stroke: #ecd264; fill: none" />
<path d="M 606.3425618050065619 117.7267613816127275,   605.7101062729728861 119.6241279777137551"    style="stroke: #ecd264; fill: none" />

<path d="M 43.97366596101027599 131.3245553203367587,    306.026334038989724 218.6754446796632413"
          style="stroke: #ecd264; fill: none" />
<path d="M 299.0693231866192895 211.0859782952591309,   295.9070455264509101 220.5728112757642689"    style="stroke: #ecd264; fill: none" />
<path d="M 300.0180064846698033 211.4022060612759689,   296.8557288245014239 220.8890390417811069"    style="stroke: #ecd264; fill: none" />
<path d="M 300.6504620167034791 212.6671171253433206,   298.1206398885687757 220.256583509747431"    style="stroke: #ecd264; fill: none" />
<path d="M 301.5991453147539929 212.9833448913601585,   299.0693231866192895 220.5728112757642689"    style="stroke: #ecd264; fill: none" />
<path d="M 302.2316008467876688 214.2482559554275103,   300.3342342506866412 219.9403557437305931"    style="stroke: #ecd264; fill: none" />
<path d="M 303.1802841448381826 214.5644837214443482,   301.282917548737155 220.256583509747431"    style="stroke: #ecd264; fill: none" />
<path d="M 303.8127396768718585 215.8293947855116999,   302.5478286128045067 219.6241279777137551"    style="stroke: #ecd264; fill: none" />
<path d="M 304.7614229749223723 216.1456225515285379,   303.4965119108550205 219.9403557437305931"    style="stroke: #ecd264; fill: none" />
<path d="M 305.3938785069560481 217.4105336155958896,   304.7614229749223723 219.3079002116969172"    style="stroke: #ecd264; fill: none" />
<path d="M 306.3425618050065619 217.7267613816127275,   305.7101062729728861 219.6241279777137551"    style="stroke: #ecd264; fill: none" />

<path d="M 142.8885438199983176 133.9442719099991588,    307.1114561800016824 216.0557280900008412"
          style="stroke: #ecd264; fill: none" />
<path d="M 301.2976794385022292 207.5586697755016404,   296.8255434835026498 216.5029416855007992"    style="stroke: #ecd264; fill: none" />
<path d="M 302.1921066295021451 208.0058833710015983,   297.7199706745025657 216.9501552810007571"    style="stroke: #ecd264; fill: none" />
<path d="M 302.6393202250021031 209.3475241575014721,   299.0616114610024395 216.5029416855007991"    style="stroke: #ecd264; fill: none" />
<path d="M 303.533747416002019 209.7947377530014301,   299.9560386520023554 216.9501552810007571"    style="stroke: #ecd264; fill: none" />
<path d="M 303.9809610115019768 211.1363785395013039,   301.2976794385022292 216.5029416855007991"    style="stroke: #ecd264; fill: none" />
<path d="M 304.8753882025018927 211.5835921350012619,   302.1921066295021451 216.9501552810007571"    style="stroke: #ecd264; fill: none" />
<path d="M 305.3226017980018507 212.9252329215011356,   303.5337474160020189 216.5029416855007992"    style="stroke: #ecd264; fill: none" />
<path d="M 306.2170289890017666 213.3724465170010935,   304.4281746070019348 216.9501552810007571"    style="stroke: #ecd264; fill: none" />
<path d="M 306.6642425845017244 214.7140873035009674,   305.7698153935018086 216.5029416855007992"    style="stroke: #ecd264; fill: none" />
<path d="M 307.5586697755016403 215.1613008990009253,   306.6642425845017245 216.9501552810007571"    style="stroke: #ecd264; fill: none" />

<path d="M 239.1421356237309505 139.1421356237309505,    310.8578643762690495 210.8578643762690495"
          style="stroke: #ecd264; fill: none" />
<path d="M 308.0294372515228594 200.9583694396573842,   300.9583694396573842 208.0294372515228594"    style="stroke: #ecd264; fill: none" />
<path d="M 308.7365440327094069 201.6654762208439317,   301.6654762208439317 208.7365440327094069"    style="stroke: #ecd264; fill: none" />
<path d="M 308.7365440327094069 203.0796897832170267,   303.0796897832170267 208.7365440327094069"    style="stroke: #ecd264; fill: none" />
<path d="M 309.4436508138959545 203.7867965644035743,   303.7867965644035743 209.4436508138959545"    style="stroke: #ecd264; fill: none" />
<path d="M 309.4436508138959545 205.2010101267766693,   305.2010101267766693 209.4436508138959545"    style="stroke: #ecd264; fill: none" />
<path d="M 310.150757595082502 205.9081169079632168,   305.9081169079632168 210.150757595082502"    style="stroke: #ecd264; fill: none" />
<path d="M 310.1507575950825019 207.3223304703363119,   307.3223304703363119 210.1507575950825019"    style="stroke: #ecd264; fill: none" />
<path d="M 310.8578643762690495 208.0294372515228595,   308.0294372515228595 210.8578643762690495"    style="stroke: #ecd264; fill: none" />
<path d="M 310.8578643762690495 209.4436508138959545,   309.4436508138959545 210.8578643762690495"    style="stroke: #ecd264; fill: none" />
<path d="M 311.564971157455597 210.150757595082502,   310.150757595082502 211.564971157455597"    style="stroke: #ecd264; fill: none" />

<path d="M 325 145,    325 205"
          style="stroke: #ecd264; fill: none" />
<path d="M 330 196,   320 196"    style="stroke: #ecd264; fill: none" />
<path d="M 330 197,   320 197"    style="stroke: #ecd264; fill: none" />
<path d="M 329 198,   321 198"    style="stroke: #ecd264; fill: none" />
<path d="M 329 199,   321 199"    style="stroke: #ecd264; fill: none" />
<path d="M 328 200,   322 200"    style="stroke: #ecd264; fill: none" />
<path d="M 328 201,   322 201"    style="stroke: #ecd264; fill: none" />
<path d="M 327 202,   323 202"    style="stroke: #ecd264; fill: none" />
<path d="M 327 203,   323 203"    style="stroke: #ecd264; fill: none" />
<path d="M 326 204,   324 204"    style="stroke: #ecd264; fill: none" />
<path d="M 326 205,   324 205"    style="stroke: #ecd264; fill: none" />

<path d="M 410.8578643762690495 139.1421356237309505,    339.1421356237309505 210.8578643762690495"
          style="stroke: #ecd264; fill: none" />
<path d="M 349.0416305603426158 208.0294372515228594,   341.9705627484771406 200.9583694396573842"    style="stroke: #ecd264; fill: none" />
<path d="M 348.3345237791560683 208.7365440327094069,   341.2634559672905931 201.6654762208439317"    style="stroke: #ecd264; fill: none" />
<path d="M 346.9203102167829733 208.7365440327094069,   341.2634559672905931 203.0796897832170267"    style="stroke: #ecd264; fill: none" />
<path d="M 346.2132034355964257 209.4436508138959545,   340.5563491861040455 203.7867965644035743"    style="stroke: #ecd264; fill: none" />
<path d="M 344.7989898732233307 209.4436508138959545,   340.5563491861040455 205.2010101267766693"    style="stroke: #ecd264; fill: none" />
<path d="M 344.0918830920367832 210.150757595082502,   339.849242404917498 205.9081169079632168"    style="stroke: #ecd264; fill: none" />
<path d="M 342.6776695296636881 210.1507575950825019,   339.8492424049174981 207.3223304703363119"    style="stroke: #ecd264; fill: none" />
<path d="M 341.9705627484771405 210.8578643762690495,   339.1421356237309505 208.0294372515228595"    style="stroke: #ecd264; fill: none" />
<path d="M 340.5563491861040455 210.8578643762690495,   339.1421356237309505 209.4436508138959545"    style="stroke: #ecd264; fill: none" />
<path d="M 339.849242404917498 211.564971157455597,   338.435028842544403 210.150757595082502"    style="stroke: #ecd264; fill: none" />

<path d="M 507.1114561800016824 133.9442719099991588,    342.8885438199983176 216.0557280900008412"
          style="stroke: #ecd264; fill: none" />
<path d="M 353.1744565164973502 216.5029416855007992,   348.7023205614977708 207.5586697755016404"    style="stroke: #ecd264; fill: none" />
<path d="M 352.2800293254974343 216.9501552810007571,   347.8078933704978549 208.0058833710015983"    style="stroke: #ecd264; fill: none" />
<path d="M 350.9383885389975605 216.5029416855007991,   347.3606797749978969 209.3475241575014721"    style="stroke: #ecd264; fill: none" />
<path d="M 350.0439613479976446 216.9501552810007571,   346.466252583997981 209.7947377530014301"    style="stroke: #ecd264; fill: none" />
<path d="M 348.7023205614977708 216.5029416855007991,   346.0190389884980232 211.1363785395013039"    style="stroke: #ecd264; fill: none" />
<path d="M 347.8078933704978549 216.9501552810007571,   345.1246117974981073 211.5835921350012619"    style="stroke: #ecd264; fill: none" />
<path d="M 346.4662525839979811 216.5029416855007992,   344.6773982019981493 212.9252329215011356"    style="stroke: #ecd264; fill: none" />
<path d="M 345.5718253929980652 216.9501552810007571,   343.7829710109982334 213.3724465170010935"    style="stroke: #ecd264; fill: none" />
<path d="M 344.2301846064981914 216.5029416855007992,   343.3357574154982756 214.7140873035009674"    style="stroke: #ecd264; fill: none" />
<path d="M 343.3357574154982755 216.9501552810007571,   342.4413302244983597 215.1613008990009253"    style="stroke: #ecd264; fill: none" />

<path d="M 606.026334038989724 131.3245553203367587,    343.973665961010276 218.6754446796632413"
          style="stroke: #ecd264; fill: none" />
<path d="M 354.0929544735490899 220.5728112757642689,   350.9306768133807105 211.0859782952591309"    style="stroke: #ecd264; fill: none" />
<path d="M 353.1442711754985761 220.8890390417811069,   349.9819935153301967 211.4022060612759689"    style="stroke: #ecd264; fill: none" />
<path d="M 351.8793601114312243 220.256583509747431,   349.3495379832965209 212.6671171253433206"    style="stroke: #ecd264; fill: none" />
<path d="M 350.9306768133807105 220.5728112757642689,   348.4008546852460071 212.9833448913601585"    style="stroke: #ecd264; fill: none" />
<path d="M 349.6657657493133588 219.9403557437305931,   347.7683991532123312 214.2482559554275103"    style="stroke: #ecd264; fill: none" />
<path d="M 348.717082451262845 220.256583509747431,   346.8197158551618174 214.5644837214443482"    style="stroke: #ecd264; fill: none" />
<path d="M 347.4521713871954933 219.6241279777137551,   346.1872603231281415 215.8293947855116999"    style="stroke: #ecd264; fill: none" />
<path d="M 346.5034880891449795 219.9403557437305931,   345.2385770250776277 216.1456225515285379"    style="stroke: #ecd264; fill: none" />
<path d="M 345.2385770250776277 219.3079002116969172,   344.6061214930439519 217.4105336155958896"    style="stroke: #ecd264; fill: none" />
<path d="M 344.2898937270271139 219.6241279777137551,   343.6574381949934381 217.7267613816127275"    style="stroke: #ecd264; fill: none" />

<path d="M 325 245,    325 305"
          style="stroke: #ecd264; fill: none" />
<path d="M 330 296,   320 296"    style="stroke: #ecd264; fill: none" />
<path d="M 330 297,   320 297"    style="stroke: #ecd264; fill: none" />
<path d="M 329 298,   321 298"    style="stroke: #ecd264; fill: none" />
<path d="M 329 299,   321 299"    style="stroke: #ecd264; fill: none" />
<path d="M 328 300,   322 300"    style="stroke: #ecd264; fill: none" />
<path d="M 328 301,   322 301"    style="stroke: #ecd264; fill: none" />
<path d="M 327 302,   323 302"    style="stroke: #ecd264; fill: none" />
<path d="M 327 303,   323 303"    style="stroke: #ecd264; fill: none" />
<path d="M 326 304,   324 304"    style="stroke: #ecd264; fill: none" />
<path d="M 326 305,   324 305"    style="stroke: #ecd264; fill: none" />

<rect x="340" y="260" width="30" height="30"
  style="fill: none; stroke: #ecd264" />
<text x="355" y="280" style="stroke: #ecd264; fill: #ecd264; font-size:12pt;  text-anchor: middle">1</text>



</svg>
