<?xml version="1.0" standalone="no"?>

<!DOCTYPE svg PUBLIC "-//W3C//DTD SVG 1.1//EN" 
"http://www.w3.org/Graphics/SVG/1.1/DTD/svg11.dtd">

<svg width="450" height="750" version="1.1"
     xmlns="http://www.w3.org/2000/svg">
<title>Transition Diagram for trans_goto</title>
<rect x="0" y="0" width="450" height="750" style="fill: #4c76ac; stroke: #4c76ac" />

<circle cx="25" cy="25" r="20" style="stroke: #ecd264; fill: none" />
<text x="25" y="30" style="stroke: #ecd264; fill: #ecd264; font-size:12pt;  text-anchor: middle">E</text>

<circle cx="150" cy="25" r="20" style="stroke: #ecd264; fill: none" />

<path d="M 225 5,
     245 25,
     225 45,
     205 25,
     225 5"
     style="fill: none; stroke: #ecd264" />

<circle cx="225" cy="125" r="20" style="stroke: #ecd264; fill: none" />

<text x="50" y="20" style="stroke: #ecd264; fill: #ecd264; font-size:12pt; text-decoration: underline;  text-anchor: left">postcond</text>

<text x="280" y="20" style="stroke: #ecd264; fill: #ecd264; font-size:12pt;  text-anchor: left">W</text>

<text x="240" y="80" style="stroke: #ecd264; fill: #ecd264; font-size:12pt;  text-anchor: left">X</text>

<path d="M 45 25,    130 25"
          style="stroke: #ecd264; fill: none" />
<path d="M 121 20,   121 30"    style="stroke: #ecd264; fill: none" />
<path d="M 122 20,   122 30"    style="stroke: #ecd264; fill: none" />
<path d="M 123 21,   123 29"    style="stroke: #ecd264; fill: none" />
<path d="M 124 21,   124 29"    style="stroke: #ecd264; fill: none" />
<path d="M 125 22,   125 28"    style="stroke: #ecd264; fill: none" />
<path d="M 126 22,   126 28"    style="stroke: #ecd264; fill: none" />
<path d="M 127 23,   127 27"    style="stroke: #ecd264; fill: none" />
<path d="M 128 23,   128 27"    style="stroke: #ecd264; fill: none" />
<path d="M 129 24,   129 26"    style="stroke: #ecd264; fill: none" />
<path d="M 130 24,   130 26"    style="stroke: #ecd264; fill: none" />

<path d="M 170 25,    205 25"
          style="stroke: #ecd264; fill: none" />
<path d="M 196 20,   196 30"    style="stroke: #ecd264; fill: none" />
<path d="M 197 20,   197 30"    style="stroke: #ecd264; fill: none" />
<path d="M 198 21,   198 29"    style="stroke: #ecd264; fill: none" />
<path d="M 199 21,   199 29"    style="stroke: #ecd264; fill: none" />
<path d="M 200 22,   200 28"    style="stroke: #ecd264; fill: none" />
<path d="M 201 22,   201 28"    style="stroke: #ecd264; fill: none" />
<path d="M 202 23,   202 27"    style="stroke: #ecd264; fill: none" />
<path d="M 203 23,   203 27"    style="stroke: #ecd264; fill: none" />
<path d="M 204 24,   204 26"    style="stroke: #ecd264; fill: none" />
<path d="M 205 24,   205 26"    style="stroke: #ecd264; fill: none" />

<path d="M 225 45,    225 105"
          style="stroke: #ecd264; fill: none" />
<path d="M 230 96,   220 96"    style="stroke: #ecd264; fill: none" />
<path d="M 230 97,   220 97"    style="stroke: #ecd264; fill: none" />
<path d="M 229 98,   221 98"    style="stroke: #ecd264; fill: none" />
<path d="M 229 99,   221 99"    style="stroke: #ecd264; fill: none" />
<path d="M 228 100,   222 100"    style="stroke: #ecd264; fill: none" />
<path d="M 228 101,   222 101"    style="stroke: #ecd264; fill: none" />
<path d="M 227 102,   223 102"    style="stroke: #ecd264; fill: none" />
<path d="M 227 103,   223 103"    style="stroke: #ecd264; fill: none" />
<path d="M 226 104,   224 104"    style="stroke: #ecd264; fill: none" />
<path d="M 226 105,   224 105"    style="stroke: #ecd264; fill: none" />

<circle cx="225" cy="225" r="20" style="stroke: #ecd264; fill: none" />

<circle cx="225" cy="325" r="20" style="stroke: #ecd264; fill: none" />

<path d="M 225 405,
     245 425,
     225 445,
     205 425,
     225 405"
     style="fill: none; stroke: #ecd264" />

<circle cx="225" cy="525" r="20" style="stroke: #ecd264; fill: none" />
<text x="225" y="530" style="stroke: #ecd264; fill: #ecd264; font-size:12pt;  text-anchor: middle">Y</text>

<circle cx="325" cy="425" r="20" style="stroke: #ecd264; fill: none" />

<circle cx="325" cy="525" r="20" style="stroke: #ecd264; fill: none" />

<path d="M 325 605,
     345 625,
     325 645,
     305 625,
     325 605"
     style="fill: none; stroke: #ecd264" />

<circle cx="325" cy="725" r="20" style="stroke: #ecd264; fill: none" />
<text x="325" y="730" style="stroke: #ecd264; fill: #ecd264; font-size:12pt;  text-anchor: middle">X</text>

<circle cx="424" cy="625" r="20" style="stroke: #ecd264; fill: none" />
<text x="424" y="630" style="stroke: #ecd264; fill: #ecd264; font-size:12pt;  text-anchor: middle">Y</text>

<path d="M 225 145,    225 205"
          style="stroke: #ecd264; fill: none" />
<path d="M 230 196,   220 196"    style="stroke: #ecd264; fill: none" />
<path d="M 230 197,   220 197"    style="stroke: #ecd264; fill: none" />
<path d="M 229 198,   221 198"    style="stroke: #ecd264; fill: none" />
<path d="M 229 199,   221 199"    style="stroke: #ecd264; fill: none" />
<path d="M 228 200,   222 200"    style="stroke: #ecd264; fill: none" />
<path d="M 228 201,   222 201"    style="stroke: #ecd264; fill: none" />
<path d="M 227 202,   223 202"    style="stroke: #ecd264; fill: none" />
<path d="M 227 203,   223 203"    style="stroke: #ecd264; fill: none" />
<path d="M 226 204,   224 204"    style="stroke: #ecd264; fill: none" />
<path d="M 226 205,   224 205"    style="stroke: #ecd264; fill: none" />

<path d="M 225 245,    225 305"
          style="stroke: #ecd264; fill: none" />
<path d="M 230 296,   220 296"    style="stroke: #ecd264; fill: none" />
<path d="M 230 297,   220 297"    style="stroke: #ecd264; fill: none" />
<path d="M 229 298,   221 298"    style="stroke: #ecd264; fill: none" />
<path d="M 229 299,   221 299"    style="stroke: #ecd264; fill: none" />
<path d="M 228 300,   222 300"    style="stroke: #ecd264; fill: none" />
<path d="M 228 301,   222 301"    style="stroke: #ecd264; fill: none" />
<path d="M 227 302,   223 302"    style="stroke: #ecd264; fill: none" />
<path d="M 227 303,   223 303"    style="stroke: #ecd264; fill: none" />
<path d="M 226 304,   224 304"    style="stroke: #ecd264; fill: none" />
<path d="M 226 305,   224 305"    style="stroke: #ecd264; fill: none" />

<path d="M 225 345,    225 405"
          style="stroke: #ecd264; fill: none" />
<path d="M 230 396,   220 396"    style="stroke: #ecd264; fill: none" />
<path d="M 230 397,   220 397"    style="stroke: #ecd264; fill: none" />
<path d="M 229 398,   221 398"    style="stroke: #ecd264; fill: none" />
<path d="M 229 399,   221 399"    style="stroke: #ecd264; fill: none" />
<path d="M 228 400,   222 400"    style="stroke: #ecd264; fill: none" />
<path d="M 228 401,   222 401"    style="stroke: #ecd264; fill: none" />
<path d="M 227 402,   223 402"    style="stroke: #ecd264; fill: none" />
<path d="M 227 403,   223 403"    style="stroke: #ecd264; fill: none" />
<path d="M 226 404,   224 404"    style="stroke: #ecd264; fill: none" />
<path d="M 226 405,   224 405"    style="stroke: #ecd264; fill: none" />

<path d="M 225 445,    225 505"
          style="stroke: #ecd264; fill: none" />
<path d="M 230 496,   220 496"    style="stroke: #ecd264; fill: none" />
<path d="M 230 497,   220 497"    style="stroke: #ecd264; fill: none" />
<path d="M 229 498,   221 498"    style="stroke: #ecd264; fill: none" />
<path d="M 229 499,   221 499"    style="stroke: #ecd264; fill: none" />
<path d="M 228 500,   222 500"    style="stroke: #ecd264; fill: none" />
<path d="M 228 501,   222 501"    style="stroke: #ecd264; fill: none" />
<path d="M 227 502,   223 502"    style="stroke: #ecd264; fill: none" />
<path d="M 227 503,   223 503"    style="stroke: #ecd264; fill: none" />
<path d="M 226 504,   224 504"    style="stroke: #ecd264; fill: none" />
<path d="M 226 505,   224 505"    style="stroke: #ecd264; fill: none" />

<path d="M 245 425,    305 425"
          style="stroke: #ecd264; fill: none" />
<path d="M 296 420,   296 430"    style="stroke: #ecd264; fill: none" />
<path d="M 297 420,   297 430"    style="stroke: #ecd264; fill: none" />
<path d="M 298 421,   298 429"    style="stroke: #ecd264; fill: none" />
<path d="M 299 421,   299 429"    style="stroke: #ecd264; fill: none" />
<path d="M 300 422,   300 428"    style="stroke: #ecd264; fill: none" />
<path d="M 301 422,   301 428"    style="stroke: #ecd264; fill: none" />
<path d="M 302 423,   302 427"    style="stroke: #ecd264; fill: none" />
<path d="M 303 423,   303 427"    style="stroke: #ecd264; fill: none" />
<path d="M 304 424,   304 426"    style="stroke: #ecd264; fill: none" />
<path d="M 305 424,   305 426"    style="stroke: #ecd264; fill: none" />

<path d="M 325 445,    325 505"
          style="stroke: #ecd264; fill: none" />
<path d="M 330 496,   320 496"    style="stroke: #ecd264; fill: none" />
<path d="M 330 497,   320 497"    style="stroke: #ecd264; fill: none" />
<path d="M 329 498,   321 498"    style="stroke: #ecd264; fill: none" />
<path d="M 329 499,   321 499"    style="stroke: #ecd264; fill: none" />
<path d="M 328 500,   322 500"    style="stroke: #ecd264; fill: none" />
<path d="M 328 501,   322 501"    style="stroke: #ecd264; fill: none" />
<path d="M 327 502,   323 502"    style="stroke: #ecd264; fill: none" />
<path d="M 327 503,   323 503"    style="stroke: #ecd264; fill: none" />
<path d="M 326 504,   324 504"    style="stroke: #ecd264; fill: none" />
<path d="M 326 505,   324 505"    style="stroke: #ecd264; fill: none" />

<path d="M 325 545,    325 605"
          style="stroke: #ecd264; fill: none" />
<path d="M 330 596,   320 596"    style="stroke: #ecd264; fill: none" />
<path d="M 330 597,   320 597"    style="stroke: #ecd264; fill: none" />
<path d="M 329 598,   321 598"    style="stroke: #ecd264; fill: none" />
<path d="M 329 599,   321 599"    style="stroke: #ecd264; fill: none" />
<path d="M 328 600,   322 600"    style="stroke: #ecd264; fill: none" />
<path d="M 328 601,   322 601"    style="stroke: #ecd264; fill: none" />
<path d="M 327 602,   323 602"    style="stroke: #ecd264; fill: none" />
<path d="M 327 603,   323 603"    style="stroke: #ecd264; fill: none" />
<path d="M 326 604,   324 604"    style="stroke: #ecd264; fill: none" />
<path d="M 326 605,   324 605"    style="stroke: #ecd264; fill: none" />

<path d="M 325 645,    325 705"
          style="stroke: #ecd264; fill: none" />
<path d="M 330 696,   320 696"    style="stroke: #ecd264; fill: none" />
<path d="M 330 697,   320 697"    style="stroke: #ecd264; fill: none" />
<path d="M 329 698,   321 698"    style="stroke: #ecd264; fill: none" />
<path d="M 329 699,   321 699"    style="stroke: #ecd264; fill: none" />
<path d="M 328 700,   322 700"    style="stroke: #ecd264; fill: none" />
<path d="M 328 701,   322 701"    style="stroke: #ecd264; fill: none" />
<path d="M 327 702,   323 702"    style="stroke: #ecd264; fill: none" />
<path d="M 327 703,   323 703"    style="stroke: #ecd264; fill: none" />
<path d="M 326 704,   324 704"    style="stroke: #ecd264; fill: none" />
<path d="M 326 705,   324 705"    style="stroke: #ecd264; fill: none" />

<path d="M 345 625,    404 625"
          style="stroke: #ecd264; fill: none" />
<path d="M 395 620,   395 630"    style="stroke: #ecd264; fill: none" />
<path d="M 396 620,   396 630"    style="stroke: #ecd264; fill: none" />
<path d="M 397 621,   397 629"    style="stroke: #ecd264; fill: none" />
<path d="M 398 621,   398 629"    style="stroke: #ecd264; fill: none" />
<path d="M 399 622,   399 628"    style="stroke: #ecd264; fill: none" />
<path d="M 400 622,   400 628"    style="stroke: #ecd264; fill: none" />
<path d="M 401 623,   401 627"    style="stroke: #ecd264; fill: none" />
<path d="M 402 623,   402 627"    style="stroke: #ecd264; fill: none" />
<path d="M 403 624,   403 626"    style="stroke: #ecd264; fill: none" />
<path d="M 404 624,   404 626"    style="stroke: #ecd264; fill: none" />

<path d="M 305 625,    150 625,
         150 125,
         205 125"
          style="stroke: #ecd264; fill: none" />
<path d="M 196 120,   196 130"    style="stroke: #ecd264; fill: none" />
<path d="M 197 120,   197 130"    style="stroke: #ecd264; fill: none" />
<path d="M 198 121,   198 129"    style="stroke: #ecd264; fill: none" />
<path d="M 199 121,   199 129"    style="stroke: #ecd264; fill: none" />
<path d="M 200 122,   200 128"    style="stroke: #ecd264; fill: none" />
<path d="M 201 122,   201 128"    style="stroke: #ecd264; fill: none" />
<path d="M 202 123,   202 127"    style="stroke: #ecd264; fill: none" />
<path d="M 203 123,   203 127"    style="stroke: #ecd264; fill: none" />
<path d="M 204 124,   204 126"    style="stroke: #ecd264; fill: none" />
<path d="M 205 124,   205 126"    style="stroke: #ecd264; fill: none" />

<path d="M 245 25,    325 25,
         325 405"
          style="stroke: #ecd264; fill: none" />
<path d="M 330 396,   320 396"    style="stroke: #ecd264; fill: none" />
<path d="M 330 397,   320 397"    style="stroke: #ecd264; fill: none" />
<path d="M 329 398,   321 398"    style="stroke: #ecd264; fill: none" />
<path d="M 329 399,   321 399"    style="stroke: #ecd264; fill: none" />
<path d="M 328 400,   322 400"    style="stroke: #ecd264; fill: none" />
<path d="M 328 401,   322 401"    style="stroke: #ecd264; fill: none" />
<path d="M 327 402,   323 402"    style="stroke: #ecd264; fill: none" />
<path d="M 327 403,   323 403"    style="stroke: #ecd264; fill: none" />
<path d="M 326 404,   324 404"    style="stroke: #ecd264; fill: none" />
<path d="M 326 405,   324 405"    style="stroke: #ecd264; fill: none" />

<text x="240" y="150" style="stroke: #ecd264; fill: #ecd264; font-size:12pt; text-decoration: underline;  text-anchor: left">entryref</text>

<rect x="240" y="160" width="30" height="30"
  style="fill: none; stroke: #ecd264" />
<text x="255" y="180" style="stroke: #ecd264; fill: #ecd264; font-size:12pt;  text-anchor: middle">1</text>

<text x="240" y="280" style="stroke: #ecd264; fill: #ecd264; font-size:12pt; text-decoration: underline;  text-anchor: left">argcond</text>

<text x="250" y="420" style="stroke: #ecd264; fill: #ecd264; font-size:12pt;  text-anchor: left">Y</text>

<text x="240" y="450" style="stroke: #ecd264; fill: #ecd264; font-size:12pt;  text-anchor: left">X</text>

<rect x="240" y="460" width="30" height="30"
  style="fill: none; stroke: #ecd264" />
<text x="255" y="480" style="stroke: #ecd264; fill: #ecd264; font-size:12pt;  text-anchor: middle">2</text>

<text x="340" y="480" style="stroke: #ecd264; fill: #ecd264; font-size:12pt; text-decoration: underline;  text-anchor: left">comend</text>

<text x="350" y="620" style="stroke: #ecd264; fill: #ecd264; font-size:12pt;  text-anchor: left">Y</text>

<text x="340" y="680" style="stroke: #ecd264; fill: #ecd264; font-size:12pt;  text-anchor: left">X</text>

<text x="285" y="620" style="stroke: #ecd264; fill: #ecd264; font-size:12pt;  text-anchor: left">Z</text>



</svg>
