<?xml version="1.0" standalone="no"?>

<!DOCTYPE svg PUBLIC "-//W3C//DTD SVG 1.1//EN" 
"http://www.w3.org/Graphics/SVG/1.1/DTD/svg11.dtd">

<svg width="130" height="150" version="1.1"
     xmlns="http://www.w3.org/2000/svg">
<title>Transition Diagram for p03b</title>
<rect x="0" y="0" width="130" height="150" style="fill: #4c76ac; stroke: #4c76ac" />

<circle cx="25" cy="50" r="20" style="stroke: #ecd264; fill: none" />

<path d="M 45 108.4529946162074847,  25 143.0940107675850306,  5 108.4529946162074847,  45 108.4529946162074847"
     style="stroke: #ecd264; fill: none" />
<text x="25" y="125" style="stroke: #ecd264; fill: #ecd264; font-size:12pt;  text-anchor: middle">n</text>

<path d="M 25 70,    25 105"
          style="stroke: #ecd264; fill: none" />
<path d="M 30 96,   20 96"    style="stroke: #ecd264; fill: none" />
<path d="M 30 97,   20 97"    style="stroke: #ecd264; fill: none" />
<path d="M 29 98,   21 98"    style="stroke: #ecd264; fill: none" />
<path d="M 29 99,   21 99"    style="stroke: #ecd264; fill: none" />
<path d="M 28 100,   22 100"    style="stroke: #ecd264; fill: none" />
<path d="M 28 101,   22 101"    style="stroke: #ecd264; fill: none" />
<path d="M 27 102,   23 102"    style="stroke: #ecd264; fill: none" />
<path d="M 27 103,   23 103"    style="stroke: #ecd264; fill: none" />
<path d="M 26 104,   24 104"    style="stroke: #ecd264; fill: none" />
<path d="M 26 105,   24 105"    style="stroke: #ecd264; fill: none" />

<text x="20" y="25" style="stroke: #ecd264; fill: #ecd264; font-size:12pt;  text-anchor: left">2</text>

<text x="60" y="125" style="stroke: #ecd264; fill: #ecd264; font-size:12pt; text-decoration: underline;  text-anchor: left">diagram</text>



</svg>
