<?xml version="1.0" standalone="no"?>

<!DOCTYPE svg PUBLIC "-//W3C//DTD SVG 1.1//EN" 
"http://www.w3.org/Graphics/SVG/1.1/DTD/svg11.dtd">

<svg width="450" height="650" version="1.1"
     xmlns="http://www.w3.org/2000/svg">
<title>Transition Diagram for trans_gvn</title>
<rect x="0" y="0" width="450" height="650" style="fill: #4c76ac; stroke: #4c76ac" />

<circle cx="25" cy="25" r="20" style="stroke: #ecd264; fill: none" />
<text x="25" y="30" style="stroke: #ecd264; fill: #ecd264; font-size:12pt;  text-anchor: middle">E</text>

<circle cx="125" cy="25" r="20" style="stroke: #ecd264; fill: none" />

<path d="M 225 5,
     245 25,
     225 45,
     205 25,
     225 5"
     style="fill: none; stroke: #ecd264" />

<circle cx="225" cy="125" r="20" style="stroke: #ecd264; fill: none" />

<circle cx="225" cy="225" r="20" style="stroke: #ecd264; fill: none" />

<circle cx="225" cy="325" r="20" style="stroke: #ecd264; fill: none" />

<circle cx="375" cy="325" r="20" style="stroke: #ecd264; fill: none" />

<circle cx="225" cy="425" r="20" style="stroke: #ecd264; fill: none" />

<circle cx="375" cy="425" r="20" style="stroke: #ecd264; fill: none" />

<path d="M 225 485,
       259.6410161513775459 505,
       259.6410161513775459 545,
       225 565,
       190.3589838486224541 545,
       190.3589838486224541 505,
       225 485"
     style="stroke: #ecd264; fill: none" />
<text x="225" y="530" style="stroke: #ecd264; fill: #ecd264; font-size:12pt;  text-anchor: middle">Nameind</text>

<circle cx="225" cy="625" r="20" style="stroke: #ecd264; fill: none" />
<text x="225" y="630" style="stroke: #ecd264; fill: #ecd264; font-size:12pt;  text-anchor: middle">X</text>

<path d="M 45 25,    105 25"
          style="stroke: #ecd264; fill: none" />
<path d="M 96 20,   96 30"    style="stroke: #ecd264; fill: none" />
<path d="M 97 20,   97 30"    style="stroke: #ecd264; fill: none" />
<path d="M 98 21,   98 29"    style="stroke: #ecd264; fill: none" />
<path d="M 99 21,   99 29"    style="stroke: #ecd264; fill: none" />
<path d="M 100 22,   100 28"    style="stroke: #ecd264; fill: none" />
<path d="M 101 22,   101 28"    style="stroke: #ecd264; fill: none" />
<path d="M 102 23,   102 27"    style="stroke: #ecd264; fill: none" />
<path d="M 103 23,   103 27"    style="stroke: #ecd264; fill: none" />
<path d="M 104 24,   104 26"    style="stroke: #ecd264; fill: none" />
<path d="M 105 24,   105 26"    style="stroke: #ecd264; fill: none" />

<path d="M 145 25,    205 25"
          style="stroke: #ecd264; fill: none" />
<path d="M 196 20,   196 30"    style="stroke: #ecd264; fill: none" />
<path d="M 197 20,   197 30"    style="stroke: #ecd264; fill: none" />
<path d="M 198 21,   198 29"    style="stroke: #ecd264; fill: none" />
<path d="M 199 21,   199 29"    style="stroke: #ecd264; fill: none" />
<path d="M 200 22,   200 28"    style="stroke: #ecd264; fill: none" />
<path d="M 201 22,   201 28"    style="stroke: #ecd264; fill: none" />
<path d="M 202 23,   202 27"    style="stroke: #ecd264; fill: none" />
<path d="M 203 23,   203 27"    style="stroke: #ecd264; fill: none" />
<path d="M 204 24,   204 26"    style="stroke: #ecd264; fill: none" />
<path d="M 205 24,   205 26"    style="stroke: #ecd264; fill: none" />

<path d="M 225 45,    225 105"
          style="stroke: #ecd264; fill: none" />
<path d="M 230 96,   220 96"    style="stroke: #ecd264; fill: none" />
<path d="M 230 97,   220 97"    style="stroke: #ecd264; fill: none" />
<path d="M 229 98,   221 98"    style="stroke: #ecd264; fill: none" />
<path d="M 229 99,   221 99"    style="stroke: #ecd264; fill: none" />
<path d="M 228 100,   222 100"    style="stroke: #ecd264; fill: none" />
<path d="M 228 101,   222 101"    style="stroke: #ecd264; fill: none" />
<path d="M 227 102,   223 102"    style="stroke: #ecd264; fill: none" />
<path d="M 227 103,   223 103"    style="stroke: #ecd264; fill: none" />
<path d="M 226 104,   224 104"    style="stroke: #ecd264; fill: none" />
<path d="M 226 105,   224 105"    style="stroke: #ecd264; fill: none" />

<path d="M 225 145,    225 205"
          style="stroke: #ecd264; fill: none" />
<path d="M 230 196,   220 196"    style="stroke: #ecd264; fill: none" />
<path d="M 230 197,   220 197"    style="stroke: #ecd264; fill: none" />
<path d="M 229 198,   221 198"    style="stroke: #ecd264; fill: none" />
<path d="M 229 199,   221 199"    style="stroke: #ecd264; fill: none" />
<path d="M 228 200,   222 200"    style="stroke: #ecd264; fill: none" />
<path d="M 228 201,   222 201"    style="stroke: #ecd264; fill: none" />
<path d="M 227 202,   223 202"    style="stroke: #ecd264; fill: none" />
<path d="M 227 203,   223 203"    style="stroke: #ecd264; fill: none" />
<path d="M 226 204,   224 204"    style="stroke: #ecd264; fill: none" />
<path d="M 226 205,   224 205"    style="stroke: #ecd264; fill: none" />

<path d="M 245 225,    375 225,
         375 305"
          style="stroke: #ecd264; fill: none" />
<path d="M 380 296,   370 296"    style="stroke: #ecd264; fill: none" />
<path d="M 380 297,   370 297"    style="stroke: #ecd264; fill: none" />
<path d="M 379 298,   371 298"    style="stroke: #ecd264; fill: none" />
<path d="M 379 299,   371 299"    style="stroke: #ecd264; fill: none" />
<path d="M 378 300,   372 300"    style="stroke: #ecd264; fill: none" />
<path d="M 378 301,   372 301"    style="stroke: #ecd264; fill: none" />
<path d="M 377 302,   373 302"    style="stroke: #ecd264; fill: none" />
<path d="M 377 303,   373 303"    style="stroke: #ecd264; fill: none" />
<path d="M 376 304,   374 304"    style="stroke: #ecd264; fill: none" />
<path d="M 376 305,   374 305"    style="stroke: #ecd264; fill: none" />

<path d="M 225 245,    225 305"
          style="stroke: #ecd264; fill: none" />
<path d="M 230 296,   220 296"    style="stroke: #ecd264; fill: none" />
<path d="M 230 297,   220 297"    style="stroke: #ecd264; fill: none" />
<path d="M 229 298,   221 298"    style="stroke: #ecd264; fill: none" />
<path d="M 229 299,   221 299"    style="stroke: #ecd264; fill: none" />
<path d="M 228 300,   222 300"    style="stroke: #ecd264; fill: none" />
<path d="M 228 301,   222 301"    style="stroke: #ecd264; fill: none" />
<path d="M 227 302,   223 302"    style="stroke: #ecd264; fill: none" />
<path d="M 227 303,   223 303"    style="stroke: #ecd264; fill: none" />
<path d="M 226 304,   224 304"    style="stroke: #ecd264; fill: none" />
<path d="M 226 305,   224 305"    style="stroke: #ecd264; fill: none" />

<path d="M 225 345,    225 405"
          style="stroke: #ecd264; fill: none" />
<path d="M 230 396,   220 396"    style="stroke: #ecd264; fill: none" />
<path d="M 230 397,   220 397"    style="stroke: #ecd264; fill: none" />
<path d="M 229 398,   221 398"    style="stroke: #ecd264; fill: none" />
<path d="M 229 399,   221 399"    style="stroke: #ecd264; fill: none" />
<path d="M 228 400,   222 400"    style="stroke: #ecd264; fill: none" />
<path d="M 228 401,   222 401"    style="stroke: #ecd264; fill: none" />
<path d="M 227 402,   223 402"    style="stroke: #ecd264; fill: none" />
<path d="M 227 403,   223 403"    style="stroke: #ecd264; fill: none" />
<path d="M 226 404,   224 404"    style="stroke: #ecd264; fill: none" />
<path d="M 226 405,   224 405"    style="stroke: #ecd264; fill: none" />

<path d="M 245 325,    355 325"
          style="stroke: #ecd264; fill: none" />
<path d="M 346 320,   346 330"    style="stroke: #ecd264; fill: none" />
<path d="M 347 320,   347 330"    style="stroke: #ecd264; fill: none" />
<path d="M 348 321,   348 329"    style="stroke: #ecd264; fill: none" />
<path d="M 349 321,   349 329"    style="stroke: #ecd264; fill: none" />
<path d="M 350 322,   350 328"    style="stroke: #ecd264; fill: none" />
<path d="M 351 322,   351 328"    style="stroke: #ecd264; fill: none" />
<path d="M 352 323,   352 327"    style="stroke: #ecd264; fill: none" />
<path d="M 353 323,   353 327"    style="stroke: #ecd264; fill: none" />
<path d="M 354 324,   354 326"    style="stroke: #ecd264; fill: none" />
<path d="M 355 324,   355 326"    style="stroke: #ecd264; fill: none" />

<path d="M 375 345,    375 405"
          style="stroke: #ecd264; fill: none" />
<path d="M 380 396,   370 396"    style="stroke: #ecd264; fill: none" />
<path d="M 380 397,   370 397"    style="stroke: #ecd264; fill: none" />
<path d="M 379 398,   371 398"    style="stroke: #ecd264; fill: none" />
<path d="M 379 399,   371 399"    style="stroke: #ecd264; fill: none" />
<path d="M 378 400,   372 400"    style="stroke: #ecd264; fill: none" />
<path d="M 378 401,   372 401"    style="stroke: #ecd264; fill: none" />
<path d="M 377 402,   373 402"    style="stroke: #ecd264; fill: none" />
<path d="M 377 403,   373 403"    style="stroke: #ecd264; fill: none" />
<path d="M 376 404,   374 404"    style="stroke: #ecd264; fill: none" />
<path d="M 376 405,   374 405"    style="stroke: #ecd264; fill: none" />

<path d="M 355 425,    245 425"
          style="stroke: #ecd264; fill: none" />
<path d="M 254 430,   254 420"    style="stroke: #ecd264; fill: none" />
<path d="M 253 430,   253 420"    style="stroke: #ecd264; fill: none" />
<path d="M 252 429,   252 421"    style="stroke: #ecd264; fill: none" />
<path d="M 251 429,   251 421"    style="stroke: #ecd264; fill: none" />
<path d="M 250 428,   250 422"    style="stroke: #ecd264; fill: none" />
<path d="M 249 428,   249 422"    style="stroke: #ecd264; fill: none" />
<path d="M 248 427,   248 423"    style="stroke: #ecd264; fill: none" />
<path d="M 247 427,   247 423"    style="stroke: #ecd264; fill: none" />
<path d="M 246 426,   246 424"    style="stroke: #ecd264; fill: none" />
<path d="M 245 426,   245 424"    style="stroke: #ecd264; fill: none" />

<path d="M 225 445,    225 485"
          style="stroke: #ecd264; fill: none" />
<path d="M 230 476,   220 476"    style="stroke: #ecd264; fill: none" />
<path d="M 230 477,   220 477"    style="stroke: #ecd264; fill: none" />
<path d="M 229 478,   221 478"    style="stroke: #ecd264; fill: none" />
<path d="M 229 479,   221 479"    style="stroke: #ecd264; fill: none" />
<path d="M 228 480,   222 480"    style="stroke: #ecd264; fill: none" />
<path d="M 228 481,   222 481"    style="stroke: #ecd264; fill: none" />
<path d="M 227 482,   223 482"    style="stroke: #ecd264; fill: none" />
<path d="M 227 483,   223 483"    style="stroke: #ecd264; fill: none" />
<path d="M 226 484,   224 484"    style="stroke: #ecd264; fill: none" />
<path d="M 226 485,   224 485"    style="stroke: #ecd264; fill: none" />

<path d="M 225 565,    225 605"
          style="stroke: #ecd264; fill: none" />
<path d="M 230 596,   220 596"    style="stroke: #ecd264; fill: none" />
<path d="M 230 597,   220 597"    style="stroke: #ecd264; fill: none" />
<path d="M 229 598,   221 598"    style="stroke: #ecd264; fill: none" />
<path d="M 229 599,   221 599"    style="stroke: #ecd264; fill: none" />
<path d="M 228 600,   222 600"    style="stroke: #ecd264; fill: none" />
<path d="M 228 601,   222 601"    style="stroke: #ecd264; fill: none" />
<path d="M 227 602,   223 602"    style="stroke: #ecd264; fill: none" />
<path d="M 227 603,   223 603"    style="stroke: #ecd264; fill: none" />
<path d="M 226 604,   224 604"    style="stroke: #ecd264; fill: none" />
<path d="M 226 605,   224 605"    style="stroke: #ecd264; fill: none" />

<path d="M 25 45,    25 125,
         205 125"
          style="stroke: #ecd264; fill: none" />
<path d="M 196 120,   196 130"    style="stroke: #ecd264; fill: none" />
<path d="M 197 120,   197 130"    style="stroke: #ecd264; fill: none" />
<path d="M 198 121,   198 129"    style="stroke: #ecd264; fill: none" />
<path d="M 199 121,   199 129"    style="stroke: #ecd264; fill: none" />
<path d="M 200 122,   200 128"    style="stroke: #ecd264; fill: none" />
<path d="M 201 122,   201 128"    style="stroke: #ecd264; fill: none" />
<path d="M 202 123,   202 127"    style="stroke: #ecd264; fill: none" />
<path d="M 203 123,   203 127"    style="stroke: #ecd264; fill: none" />
<path d="M 204 124,   204 126"    style="stroke: #ecd264; fill: none" />
<path d="M 205 124,   205 126"    style="stroke: #ecd264; fill: none" />

<path d="M 245 25,    445 25,
         445 625,
         245 625"
          style="stroke: #ecd264; fill: none" />
<path d="M 254 630,   254 620"    style="stroke: #ecd264; fill: none" />
<path d="M 253 630,   253 620"    style="stroke: #ecd264; fill: none" />
<path d="M 252 629,   252 621"    style="stroke: #ecd264; fill: none" />
<path d="M 251 629,   251 621"    style="stroke: #ecd264; fill: none" />
<path d="M 250 628,   250 622"    style="stroke: #ecd264; fill: none" />
<path d="M 249 628,   249 622"    style="stroke: #ecd264; fill: none" />
<path d="M 248 627,   248 623"    style="stroke: #ecd264; fill: none" />
<path d="M 247 627,   247 623"    style="stroke: #ecd264; fill: none" />
<path d="M 246 626,   246 624"    style="stroke: #ecd264; fill: none" />
<path d="M 245 626,   245 624"    style="stroke: #ecd264; fill: none" />

<path d="M 357.1114561800016824 416.0557280900008412,    325 400,
         325 350,
         357.1114561800016824 333.9442719099991588"
          style="stroke: #ecd264; fill: none" />
<path d="M 346.8255434835026498 333.4970583144992008,   351.2976794385022292 342.4413302244983596"    style="stroke: #ecd264; fill: none" />
<path d="M 347.7199706745025657 333.0498447189992429,   352.1921066295021451 341.9941166289984017"    style="stroke: #ecd264; fill: none" />
<path d="M 349.0616114610024395 333.4970583144992009,   352.6393202250021031 340.6524758424985279"    style="stroke: #ecd264; fill: none" />
<path d="M 349.9560386520023554 333.0498447189992429,   353.533747416002019 340.2052622469985699"    style="stroke: #ecd264; fill: none" />
<path d="M 351.2976794385022292 333.4970583144992009,   353.9809610115019768 338.8636214604986961"    style="stroke: #ecd264; fill: none" />
<path d="M 352.1921066295021451 333.0498447189992429,   354.8753882025018927 338.4164078649987381"    style="stroke: #ecd264; fill: none" />
<path d="M 353.5337474160020189 333.4970583144992008,   355.3226017980018507 337.0747670784988644"    style="stroke: #ecd264; fill: none" />
<path d="M 354.4281746070019348 333.0498447189992429,   356.2170289890017666 336.6275534829989065"    style="stroke: #ecd264; fill: none" />
<path d="M 355.7698153935018086 333.4970583144992008,   356.6642425845017244 335.2859126964990326"    style="stroke: #ecd264; fill: none" />
<path d="M 356.6642425845017245 333.0498447189992429,   357.5586697755016403 334.8386991009990747"    style="stroke: #ecd264; fill: none" />

<path d="M 190 525,    175 525,
         175 425,
         205 425"
          style="stroke: #ecd264; fill: none" />
<path d="M 196 420,   196 430"    style="stroke: #ecd264; fill: none" />
<path d="M 197 420,   197 430"    style="stroke: #ecd264; fill: none" />
<path d="M 198 421,   198 429"    style="stroke: #ecd264; fill: none" />
<path d="M 199 421,   199 429"    style="stroke: #ecd264; fill: none" />
<path d="M 200 422,   200 428"    style="stroke: #ecd264; fill: none" />
<path d="M 201 422,   201 428"    style="stroke: #ecd264; fill: none" />
<path d="M 202 423,   202 427"    style="stroke: #ecd264; fill: none" />
<path d="M 203 423,   203 427"    style="stroke: #ecd264; fill: none" />
<path d="M 204 424,   204 426"    style="stroke: #ecd264; fill: none" />
<path d="M 205 424,   205 426"    style="stroke: #ecd264; fill: none" />

<text x="50" y="20" style="stroke: #ecd264; fill: #ecd264; font-size:12pt; text-decoration: underline;  text-anchor: left">indnam</text>

<text x="260" y="20" style="stroke: #ecd264; fill: #ecd264; font-size:12pt;  text-anchor: left">W</text>

<text x="240" y="60" style="stroke: #ecd264; fill: #ecd264; font-size:12pt;  text-anchor: left">X</text>

<text x="240" y="150" style="stroke: #ecd264; fill: #ecd264; font-size:12pt;  text-anchor: left">^</text>

<rect x="240" y="160" width="30" height="30"
  style="fill: none; stroke: #ecd264" />
<text x="255" y="180" style="stroke: #ecd264; fill: #ecd264; font-size:12pt;  text-anchor: middle">1</text>

<text x="240" y="250" style="stroke: #ecd264; fill: #ecd264; font-size:12pt; text-decoration: underline;  text-anchor: left">name</text>

<rect x="240" y="260" width="30" height="30"
  style="fill: none; stroke: #ecd264" />
<text x="255" y="280" style="stroke: #ecd264; fill: #ecd264; font-size:12pt;  text-anchor: middle">2</text>

<text x="390" y="250" style="stroke: #ecd264; fill: #ecd264; font-size:12pt;  text-anchor: left">(</text>

<rect x="390" y="260" width="30" height="30"
  style="fill: none; stroke: #ecd264" />
<text x="405" y="280" style="stroke: #ecd264; fill: #ecd264; font-size:12pt;  text-anchor: middle">3</text>

<text x="290" y="315" style="stroke: #ecd264; fill: #ecd264; font-size:12pt;  text-anchor: left">(</text>

<rect x="300" y="290" width="30" height="30"
  style="fill: none; stroke: #ecd264" />
<text x="315" y="310" style="stroke: #ecd264; fill: #ecd264; font-size:12pt;  text-anchor: middle">3</text>

<text x="390" y="360" style="stroke: #ecd264; fill: #ecd264; font-size:12pt; text-decoration: underline;  text-anchor: left">expr</text>

<rect x="390" y="370" width="30" height="30"
  style="fill: none; stroke: #ecd264" />
<text x="405" y="390" style="stroke: #ecd264; fill: #ecd264; font-size:12pt;  text-anchor: middle">4</text>

<text x="310" y="370" style="stroke: #ecd264; fill: #ecd264; font-size:12pt;  text-anchor: left">,</text>

<text x="260" y="415" style="stroke: #ecd264; fill: #ecd264; font-size:12pt;  text-anchor: left">)</text>

<rect x="270" y="390" width="30" height="30"
  style="fill: none; stroke: #ecd264" />
<text x="285" y="410" style="stroke: #ecd264; fill: #ecd264; font-size:12pt;  text-anchor: middle">5</text>

<text x="150" y="460" style="stroke: #ecd264; fill: #ecd264; font-size:12pt; text-decoration: underline;  text-anchor: left">eoi</text>

<rect x="140" y="470" width="30" height="30"
  style="fill: none; stroke: #ecd264" />
<text x="155" y="490" style="stroke: #ecd264; fill: #ecd264; font-size:12pt;  text-anchor: middle">6</text>

<rect x="240" y="570" width="30" height="30"
  style="fill: none; stroke: #ecd264" />
<text x="255" y="590" style="stroke: #ecd264; fill: #ecd264; font-size:12pt;  text-anchor: middle">7</text>



</svg>
