<?xml version="1.0" standalone="no"?>

<!DOCTYPE svg PUBLIC "-//W3C//DTD SVG 1.1//EN" 
"http://www.w3.org/Graphics/SVG/1.1/DTD/svg11.dtd">

<svg width="510" height="750" version="1.1"
     xmlns="http://www.w3.org/2000/svg">
<title>Transition Diagram for trans_read</title>
<rect x="0" y="0" width="510" height="750" style="fill: #4c76ac; stroke: #4c76ac" />

<circle cx="35" cy="25" r="20" style="stroke: #ecd264; fill: none" />
<text x="35" y="30" style="stroke: #ecd264; fill: #ecd264; font-size:12pt;  text-anchor: middle">E</text>

<circle cx="160" cy="25" r="20" style="stroke: #ecd264; fill: none" />

<path d="M 235 5,
     255 25,
     235 45,
     215 25,
     235 5"
     style="fill: none; stroke: #ecd264" />

<circle cx="235" cy="125" r="20" style="stroke: #ecd264; fill: none" />

<text x="60" y="20" style="stroke: #ecd264; fill: #ecd264; font-size:12pt; text-decoration: underline;  text-anchor: left">postcond</text>

<text x="290" y="20" style="stroke: #ecd264; fill: #ecd264; font-size:12pt;  text-anchor: left">W</text>

<text x="250" y="80" style="stroke: #ecd264; fill: #ecd264; font-size:12pt;  text-anchor: left">X</text>

<path d="M 55 25,    140 25"
          style="stroke: #ecd264; fill: none" />
<path d="M 131 20,   131 30"    style="stroke: #ecd264; fill: none" />
<path d="M 132 20,   132 30"    style="stroke: #ecd264; fill: none" />
<path d="M 133 21,   133 29"    style="stroke: #ecd264; fill: none" />
<path d="M 134 21,   134 29"    style="stroke: #ecd264; fill: none" />
<path d="M 135 22,   135 28"    style="stroke: #ecd264; fill: none" />
<path d="M 136 22,   136 28"    style="stroke: #ecd264; fill: none" />
<path d="M 137 23,   137 27"    style="stroke: #ecd264; fill: none" />
<path d="M 138 23,   138 27"    style="stroke: #ecd264; fill: none" />
<path d="M 139 24,   139 26"    style="stroke: #ecd264; fill: none" />
<path d="M 140 24,   140 26"    style="stroke: #ecd264; fill: none" />

<path d="M 180 25,    215 25"
          style="stroke: #ecd264; fill: none" />
<path d="M 206 20,   206 30"    style="stroke: #ecd264; fill: none" />
<path d="M 207 20,   207 30"    style="stroke: #ecd264; fill: none" />
<path d="M 208 21,   208 29"    style="stroke: #ecd264; fill: none" />
<path d="M 209 21,   209 29"    style="stroke: #ecd264; fill: none" />
<path d="M 210 22,   210 28"    style="stroke: #ecd264; fill: none" />
<path d="M 211 22,   211 28"    style="stroke: #ecd264; fill: none" />
<path d="M 212 23,   212 27"    style="stroke: #ecd264; fill: none" />
<path d="M 213 23,   213 27"    style="stroke: #ecd264; fill: none" />
<path d="M 214 24,   214 26"    style="stroke: #ecd264; fill: none" />
<path d="M 215 24,   215 26"    style="stroke: #ecd264; fill: none" />

<path d="M 235 45,    235 105"
          style="stroke: #ecd264; fill: none" />
<path d="M 240 96,   230 96"    style="stroke: #ecd264; fill: none" />
<path d="M 240 97,   230 97"    style="stroke: #ecd264; fill: none" />
<path d="M 239 98,   231 98"    style="stroke: #ecd264; fill: none" />
<path d="M 239 99,   231 99"    style="stroke: #ecd264; fill: none" />
<path d="M 238 100,   232 100"    style="stroke: #ecd264; fill: none" />
<path d="M 238 101,   232 101"    style="stroke: #ecd264; fill: none" />
<path d="M 237 102,   233 102"    style="stroke: #ecd264; fill: none" />
<path d="M 237 103,   233 103"    style="stroke: #ecd264; fill: none" />
<path d="M 236 104,   234 104"    style="stroke: #ecd264; fill: none" />
<path d="M 236 105,   234 105"    style="stroke: #ecd264; fill: none" />

<circle cx="135" cy="225" r="20" style="stroke: #ecd264; fill: none" />

<circle cx="335" cy="225" r="20" style="stroke: #ecd264; fill: none" />

<path d="M 220.8578643762690495 139.1421356237309505,    149.1421356237309505 210.8578643762690495"
          style="stroke: #ecd264; fill: none" />
<path d="M 159.0416305603426158 208.0294372515228594,   151.9705627484771406 200.9583694396573842"    style="stroke: #ecd264; fill: none" />
<path d="M 158.3345237791560683 208.7365440327094069,   151.2634559672905931 201.6654762208439317"    style="stroke: #ecd264; fill: none" />
<path d="M 156.9203102167829733 208.7365440327094069,   151.2634559672905931 203.0796897832170267"    style="stroke: #ecd264; fill: none" />
<path d="M 156.2132034355964257 209.4436508138959545,   150.5563491861040455 203.7867965644035743"    style="stroke: #ecd264; fill: none" />
<path d="M 154.7989898732233307 209.4436508138959545,   150.5563491861040455 205.2010101267766693"    style="stroke: #ecd264; fill: none" />
<path d="M 154.0918830920367832 210.150757595082502,   149.849242404917498 205.9081169079632168"    style="stroke: #ecd264; fill: none" />
<path d="M 152.6776695296636881 210.1507575950825019,   149.8492424049174981 207.3223304703363119"    style="stroke: #ecd264; fill: none" />
<path d="M 151.9705627484771405 210.8578643762690495,   149.1421356237309505 208.0294372515228595"    style="stroke: #ecd264; fill: none" />
<path d="M 150.5563491861040455 210.8578643762690495,   149.1421356237309505 209.4436508138959545"    style="stroke: #ecd264; fill: none" />
<path d="M 149.849242404917498 211.564971157455597,   148.435028842544403 210.150757595082502"    style="stroke: #ecd264; fill: none" />

<path d="M 249.1421356237309505 139.1421356237309505,    320.8578643762690495 210.8578643762690495"
          style="stroke: #ecd264; fill: none" />
<path d="M 318.0294372515228594 200.9583694396573842,   310.9583694396573842 208.0294372515228594"    style="stroke: #ecd264; fill: none" />
<path d="M 318.7365440327094069 201.6654762208439317,   311.6654762208439317 208.7365440327094069"    style="stroke: #ecd264; fill: none" />
<path d="M 318.7365440327094069 203.0796897832170267,   313.0796897832170267 208.7365440327094069"    style="stroke: #ecd264; fill: none" />
<path d="M 319.4436508138959545 203.7867965644035743,   313.7867965644035743 209.4436508138959545"    style="stroke: #ecd264; fill: none" />
<path d="M 319.4436508138959545 205.2010101267766693,   315.2010101267766693 209.4436508138959545"    style="stroke: #ecd264; fill: none" />
<path d="M 320.150757595082502 205.9081169079632168,   315.9081169079632168 210.150757595082502"    style="stroke: #ecd264; fill: none" />
<path d="M 320.1507575950825019 207.3223304703363119,   317.3223304703363119 210.1507575950825019"    style="stroke: #ecd264; fill: none" />
<path d="M 320.8578643762690495 208.0294372515228595,   318.0294372515228595 210.8578643762690495"    style="stroke: #ecd264; fill: none" />
<path d="M 320.8578643762690495 209.4436508138959545,   319.4436508138959545 210.8578643762690495"    style="stroke: #ecd264; fill: none" />
<path d="M 321.564971157455597 210.150757595082502,   320.150757595082502 211.564971157455597"    style="stroke: #ecd264; fill: none" />

<circle cx="435" cy="125" r="20" style="stroke: #ecd264; fill: none" />

<path d="M 255 125,    415 125"
          style="stroke: #ecd264; fill: none" />
<path d="M 406 120,   406 130"    style="stroke: #ecd264; fill: none" />
<path d="M 407 120,   407 130"    style="stroke: #ecd264; fill: none" />
<path d="M 408 121,   408 129"    style="stroke: #ecd264; fill: none" />
<path d="M 409 121,   409 129"    style="stroke: #ecd264; fill: none" />
<path d="M 410 122,   410 128"    style="stroke: #ecd264; fill: none" />
<path d="M 411 122,   411 128"    style="stroke: #ecd264; fill: none" />
<path d="M 412 123,   412 127"    style="stroke: #ecd264; fill: none" />
<path d="M 413 123,   413 127"    style="stroke: #ecd264; fill: none" />
<path d="M 414 124,   414 126"    style="stroke: #ecd264; fill: none" />
<path d="M 415 124,   415 126"    style="stroke: #ecd264; fill: none" />

<circle cx="435" cy="325" r="20" style="stroke: #ecd264; fill: none" />

<path d="M 435 145,    435 305"
          style="stroke: #ecd264; fill: none" />
<path d="M 440 296,   430 296"    style="stroke: #ecd264; fill: none" />
<path d="M 440 297,   430 297"    style="stroke: #ecd264; fill: none" />
<path d="M 439 298,   431 298"    style="stroke: #ecd264; fill: none" />
<path d="M 439 299,   431 299"    style="stroke: #ecd264; fill: none" />
<path d="M 438 300,   432 300"    style="stroke: #ecd264; fill: none" />
<path d="M 438 301,   432 301"    style="stroke: #ecd264; fill: none" />
<path d="M 437 302,   433 302"    style="stroke: #ecd264; fill: none" />
<path d="M 437 303,   433 303"    style="stroke: #ecd264; fill: none" />
<path d="M 436 304,   434 304"    style="stroke: #ecd264; fill: none" />
<path d="M 436 305,   434 305"    style="stroke: #ecd264; fill: none" />

<circle cx="435" cy="425" r="20" style="stroke: #ecd264; fill: none" />

<path d="M 435 345,    435 405"
          style="stroke: #ecd264; fill: none" />
<path d="M 440 396,   430 396"    style="stroke: #ecd264; fill: none" />
<path d="M 440 397,   430 397"    style="stroke: #ecd264; fill: none" />
<path d="M 439 398,   431 398"    style="stroke: #ecd264; fill: none" />
<path d="M 439 399,   431 399"    style="stroke: #ecd264; fill: none" />
<path d="M 438 400,   432 400"    style="stroke: #ecd264; fill: none" />
<path d="M 438 401,   432 401"    style="stroke: #ecd264; fill: none" />
<path d="M 437 402,   433 402"    style="stroke: #ecd264; fill: none" />
<path d="M 437 403,   433 403"    style="stroke: #ecd264; fill: none" />
<path d="M 436 404,   434 404"    style="stroke: #ecd264; fill: none" />
<path d="M 436 405,   434 405"    style="stroke: #ecd264; fill: none" />

<circle cx="235" cy="325" r="20" style="stroke: #ecd264; fill: none" />

<path d="M 149.1421356237309505 239.1421356237309505,    220.8578643762690495 310.8578643762690495"
          style="stroke: #ecd264; fill: none" />
<path d="M 218.0294372515228594 300.9583694396573842,   210.9583694396573842 308.0294372515228594"    style="stroke: #ecd264; fill: none" />
<path d="M 218.7365440327094069 301.6654762208439317,   211.6654762208439317 308.7365440327094069"    style="stroke: #ecd264; fill: none" />
<path d="M 218.7365440327094069 303.0796897832170267,   213.0796897832170267 308.7365440327094069"    style="stroke: #ecd264; fill: none" />
<path d="M 219.4436508138959545 303.7867965644035743,   213.7867965644035743 309.4436508138959545"    style="stroke: #ecd264; fill: none" />
<path d="M 219.4436508138959545 305.2010101267766693,   215.2010101267766693 309.4436508138959545"    style="stroke: #ecd264; fill: none" />
<path d="M 220.150757595082502 305.9081169079632168,   215.9081169079632168 310.150757595082502"    style="stroke: #ecd264; fill: none" />
<path d="M 220.1507575950825019 307.3223304703363119,   217.3223304703363119 310.1507575950825019"    style="stroke: #ecd264; fill: none" />
<path d="M 220.8578643762690495 308.0294372515228595,   218.0294372515228595 310.8578643762690495"    style="stroke: #ecd264; fill: none" />
<path d="M 220.8578643762690495 309.4436508138959545,   219.4436508138959545 310.8578643762690495"    style="stroke: #ecd264; fill: none" />
<path d="M 221.564971157455597 310.150757595082502,   220.150757595082502 311.564971157455597"    style="stroke: #ecd264; fill: none" />

<path d="M 320.8578643762690495 239.1421356237309505,    249.1421356237309505 310.8578643762690495"
          style="stroke: #ecd264; fill: none" />
<path d="M 259.0416305603426158 308.0294372515228594,   251.9705627484771406 300.9583694396573842"    style="stroke: #ecd264; fill: none" />
<path d="M 258.3345237791560683 308.7365440327094069,   251.2634559672905931 301.6654762208439317"    style="stroke: #ecd264; fill: none" />
<path d="M 256.9203102167829733 308.7365440327094069,   251.2634559672905931 303.0796897832170267"    style="stroke: #ecd264; fill: none" />
<path d="M 256.2132034355964257 309.4436508138959545,   250.5563491861040455 303.7867965644035743"    style="stroke: #ecd264; fill: none" />
<path d="M 254.7989898732233307 309.4436508138959545,   250.5563491861040455 305.2010101267766693"    style="stroke: #ecd264; fill: none" />
<path d="M 254.0918830920367832 310.150757595082502,   249.849242404917498 305.9081169079632168"    style="stroke: #ecd264; fill: none" />
<path d="M 252.6776695296636881 310.1507575950825019,   249.8492424049174981 307.3223304703363119"    style="stroke: #ecd264; fill: none" />
<path d="M 251.9705627484771405 310.8578643762690495,   249.1421356237309505 308.0294372515228595"    style="stroke: #ecd264; fill: none" />
<path d="M 250.5563491861040455 310.8578643762690495,   249.1421356237309505 309.4436508138959545"    style="stroke: #ecd264; fill: none" />
<path d="M 249.849242404917498 311.564971157455597,   248.435028842544403 310.150757595082502"    style="stroke: #ecd264; fill: none" />

<path d="M 415 325,    255 325"
          style="stroke: #ecd264; fill: none" />
<path d="M 264 330,   264 320"    style="stroke: #ecd264; fill: none" />
<path d="M 263 330,   263 320"    style="stroke: #ecd264; fill: none" />
<path d="M 262 329,   262 321"    style="stroke: #ecd264; fill: none" />
<path d="M 261 329,   261 321"    style="stroke: #ecd264; fill: none" />
<path d="M 260 328,   260 322"    style="stroke: #ecd264; fill: none" />
<path d="M 259 328,   259 322"    style="stroke: #ecd264; fill: none" />
<path d="M 258 327,   258 323"    style="stroke: #ecd264; fill: none" />
<path d="M 257 327,   257 323"    style="stroke: #ecd264; fill: none" />
<path d="M 256 326,   256 324"    style="stroke: #ecd264; fill: none" />
<path d="M 255 326,   255 324"    style="stroke: #ecd264; fill: none" />

<circle cx="35" cy="425" r="20" style="stroke: #ecd264; fill: none" />

<path d="M 115 225,    35 225,
         35 405"
          style="stroke: #ecd264; fill: none" />
<path d="M 40 396,   30 396"    style="stroke: #ecd264; fill: none" />
<path d="M 40 397,   30 397"    style="stroke: #ecd264; fill: none" />
<path d="M 39 398,   31 398"    style="stroke: #ecd264; fill: none" />
<path d="M 39 399,   31 399"    style="stroke: #ecd264; fill: none" />
<path d="M 38 400,   32 400"    style="stroke: #ecd264; fill: none" />
<path d="M 38 401,   32 401"    style="stroke: #ecd264; fill: none" />
<path d="M 37 402,   33 402"    style="stroke: #ecd264; fill: none" />
<path d="M 37 403,   33 403"    style="stroke: #ecd264; fill: none" />
<path d="M 36 404,   34 404"    style="stroke: #ecd264; fill: none" />
<path d="M 36 405,   34 405"    style="stroke: #ecd264; fill: none" />

<path d="M 155 390.3589838486224541,
       175 425,
       155 459.6410161513775459,
       115 459.6410161513775459,
       95 425,
       115 390.3589838486224541,
       155 390.3589838486224541"
     style="stroke: #ecd264; fill: none" />
<text x="135" y="420" style="stroke: #ecd264; fill: #ecd264; font-size:12pt;  text-anchor: middle">Timeout</text>

<text x="135" y="440" style="stroke: #ecd264; fill: #ecd264; font-size:12pt;  text-anchor: middle">over</text>

<path d="M 355 390.3589838486224541,
       375 425,
       355 459.6410161513775459,
       315 459.6410161513775459,
       295 425,
       315 390.3589838486224541,
       355 390.3589838486224541"
     style="stroke: #ecd264; fill: none" />
<text x="335" y="420" style="stroke: #ecd264; fill: #ecd264; font-size:12pt;  text-anchor: middle">Timeout</text>

<text x="335" y="440" style="stroke: #ecd264; fill: #ecd264; font-size:12pt;  text-anchor: middle">over</text>

<circle cx="235" cy="425" r="20" style="stroke: #ecd264; fill: none" />

<path d="M 55 425,    95 425"
          style="stroke: #ecd264; fill: none" />
<path d="M 86 420,   86 430"    style="stroke: #ecd264; fill: none" />
<path d="M 87 420,   87 430"    style="stroke: #ecd264; fill: none" />
<path d="M 88 421,   88 429"    style="stroke: #ecd264; fill: none" />
<path d="M 89 421,   89 429"    style="stroke: #ecd264; fill: none" />
<path d="M 90 422,   90 428"    style="stroke: #ecd264; fill: none" />
<path d="M 91 422,   91 428"    style="stroke: #ecd264; fill: none" />
<path d="M 92 423,   92 427"    style="stroke: #ecd264; fill: none" />
<path d="M 93 423,   93 427"    style="stroke: #ecd264; fill: none" />
<path d="M 94 424,   94 426"    style="stroke: #ecd264; fill: none" />
<path d="M 95 424,   95 426"    style="stroke: #ecd264; fill: none" />

<path d="M 175 425,    215 425"
          style="stroke: #ecd264; fill: none" />
<path d="M 206 420,   206 430"    style="stroke: #ecd264; fill: none" />
<path d="M 207 420,   207 430"    style="stroke: #ecd264; fill: none" />
<path d="M 208 421,   208 429"    style="stroke: #ecd264; fill: none" />
<path d="M 209 421,   209 429"    style="stroke: #ecd264; fill: none" />
<path d="M 210 422,   210 428"    style="stroke: #ecd264; fill: none" />
<path d="M 211 422,   211 428"    style="stroke: #ecd264; fill: none" />
<path d="M 212 423,   212 427"    style="stroke: #ecd264; fill: none" />
<path d="M 213 423,   213 427"    style="stroke: #ecd264; fill: none" />
<path d="M 214 424,   214 426"    style="stroke: #ecd264; fill: none" />
<path d="M 215 424,   215 426"    style="stroke: #ecd264; fill: none" />

<path d="M 415 425,    375 425"
          style="stroke: #ecd264; fill: none" />
<path d="M 384 430,   384 420"    style="stroke: #ecd264; fill: none" />
<path d="M 383 430,   383 420"    style="stroke: #ecd264; fill: none" />
<path d="M 382 429,   382 421"    style="stroke: #ecd264; fill: none" />
<path d="M 381 429,   381 421"    style="stroke: #ecd264; fill: none" />
<path d="M 380 428,   380 422"    style="stroke: #ecd264; fill: none" />
<path d="M 379 428,   379 422"    style="stroke: #ecd264; fill: none" />
<path d="M 378 427,   378 423"    style="stroke: #ecd264; fill: none" />
<path d="M 377 427,   377 423"    style="stroke: #ecd264; fill: none" />
<path d="M 376 426,   376 424"    style="stroke: #ecd264; fill: none" />
<path d="M 375 426,   375 424"    style="stroke: #ecd264; fill: none" />

<path d="M 295 425,    255 425"
          style="stroke: #ecd264; fill: none" />
<path d="M 264 430,   264 420"    style="stroke: #ecd264; fill: none" />
<path d="M 263 430,   263 420"    style="stroke: #ecd264; fill: none" />
<path d="M 262 429,   262 421"    style="stroke: #ecd264; fill: none" />
<path d="M 261 429,   261 421"    style="stroke: #ecd264; fill: none" />
<path d="M 260 428,   260 422"    style="stroke: #ecd264; fill: none" />
<path d="M 259 428,   259 422"    style="stroke: #ecd264; fill: none" />
<path d="M 258 427,   258 423"    style="stroke: #ecd264; fill: none" />
<path d="M 257 427,   257 423"    style="stroke: #ecd264; fill: none" />
<path d="M 256 426,   256 424"    style="stroke: #ecd264; fill: none" />
<path d="M 255 426,   255 424"    style="stroke: #ecd264; fill: none" />

<path d="M 161.1421356237309505 398.8578643762690495,    220.8578643762690495 339.1421356237309505"
          style="stroke: #ecd264; fill: none" />
<path d="M 210.9583694396573842 341.9705627484771406,   218.0294372515228594 349.0416305603426158"    style="stroke: #ecd264; fill: none" />
<path d="M 211.6654762208439317 341.2634559672905931,   218.7365440327094069 348.3345237791560683"    style="stroke: #ecd264; fill: none" />
<path d="M 213.0796897832170267 341.2634559672905931,   218.7365440327094069 346.9203102167829733"    style="stroke: #ecd264; fill: none" />
<path d="M 213.7867965644035743 340.5563491861040455,   219.4436508138959545 346.2132034355964257"    style="stroke: #ecd264; fill: none" />
<path d="M 215.2010101267766693 340.5563491861040455,   219.4436508138959545 344.7989898732233307"    style="stroke: #ecd264; fill: none" />
<path d="M 215.9081169079632168 339.849242404917498,   220.150757595082502 344.0918830920367832"    style="stroke: #ecd264; fill: none" />
<path d="M 217.3223304703363119 339.8492424049174981,   220.1507575950825019 342.6776695296636881"    style="stroke: #ecd264; fill: none" />
<path d="M 218.0294372515228595 339.1421356237309505,   220.8578643762690495 341.9705627484771405"    style="stroke: #ecd264; fill: none" />
<path d="M 219.4436508138959545 339.1421356237309505,   220.8578643762690495 340.5563491861040455"    style="stroke: #ecd264; fill: none" />
<path d="M 220.150757595082502 338.435028842544403,   221.564971157455597 339.849242404917498"    style="stroke: #ecd264; fill: none" />

<path d="M 308.8578643762690495 398.8578643762690495,    249.1421356237309505 339.1421356237309505"
          style="stroke: #ecd264; fill: none" />
<path d="M 251.9705627484771406 349.0416305603426158,   259.0416305603426158 341.9705627484771406"    style="stroke: #ecd264; fill: none" />
<path d="M 251.2634559672905931 348.3345237791560683,   258.3345237791560683 341.2634559672905931"    style="stroke: #ecd264; fill: none" />
<path d="M 251.2634559672905931 346.9203102167829733,   256.9203102167829733 341.2634559672905931"    style="stroke: #ecd264; fill: none" />
<path d="M 250.5563491861040455 346.2132034355964257,   256.2132034355964257 340.5563491861040455"    style="stroke: #ecd264; fill: none" />
<path d="M 250.5563491861040455 344.7989898732233307,   254.7989898732233307 340.5563491861040455"    style="stroke: #ecd264; fill: none" />
<path d="M 249.849242404917498 344.0918830920367832,   254.0918830920367832 339.849242404917498"    style="stroke: #ecd264; fill: none" />
<path d="M 249.8492424049174981 342.6776695296636881,   252.6776695296636881 339.8492424049174981"    style="stroke: #ecd264; fill: none" />
<path d="M 249.1421356237309505 341.9705627484771405,   251.9705627484771405 339.1421356237309505"    style="stroke: #ecd264; fill: none" />
<path d="M 249.1421356237309505 340.5563491861040455,   250.5563491861040455 339.1421356237309505"    style="stroke: #ecd264; fill: none" />
<path d="M 248.435028842544403 339.849242404917498,   249.849242404917498 338.435028842544403"    style="stroke: #ecd264; fill: none" />

<path d="M 235 145,    235 305"
          style="stroke: #ecd264; fill: none" />
<path d="M 240 296,   230 296"    style="stroke: #ecd264; fill: none" />
<path d="M 240 297,   230 297"    style="stroke: #ecd264; fill: none" />
<path d="M 239 298,   231 298"    style="stroke: #ecd264; fill: none" />
<path d="M 239 299,   231 299"    style="stroke: #ecd264; fill: none" />
<path d="M 238 300,   232 300"    style="stroke: #ecd264; fill: none" />
<path d="M 238 301,   232 301"    style="stroke: #ecd264; fill: none" />
<path d="M 237 302,   233 302"    style="stroke: #ecd264; fill: none" />
<path d="M 237 303,   233 303"    style="stroke: #ecd264; fill: none" />
<path d="M 236 304,   234 304"    style="stroke: #ecd264; fill: none" />
<path d="M 236 305,   234 305"    style="stroke: #ecd264; fill: none" />

<path d="M 235 345,    235 405"
          style="stroke: #ecd264; fill: none" />
<path d="M 240 396,   230 396"    style="stroke: #ecd264; fill: none" />
<path d="M 240 397,   230 397"    style="stroke: #ecd264; fill: none" />
<path d="M 239 398,   231 398"    style="stroke: #ecd264; fill: none" />
<path d="M 239 399,   231 399"    style="stroke: #ecd264; fill: none" />
<path d="M 238 400,   232 400"    style="stroke: #ecd264; fill: none" />
<path d="M 238 401,   232 401"    style="stroke: #ecd264; fill: none" />
<path d="M 237 402,   233 402"    style="stroke: #ecd264; fill: none" />
<path d="M 237 403,   233 403"    style="stroke: #ecd264; fill: none" />
<path d="M 236 404,   234 404"    style="stroke: #ecd264; fill: none" />
<path d="M 236 405,   234 405"    style="stroke: #ecd264; fill: none" />

<circle cx="235" cy="525" r="20" style="stroke: #ecd264; fill: none" />

<path d="M 235 445,    235 505"
          style="stroke: #ecd264; fill: none" />
<path d="M 240 496,   230 496"    style="stroke: #ecd264; fill: none" />
<path d="M 240 497,   230 497"    style="stroke: #ecd264; fill: none" />
<path d="M 239 498,   231 498"    style="stroke: #ecd264; fill: none" />
<path d="M 239 499,   231 499"    style="stroke: #ecd264; fill: none" />
<path d="M 238 500,   232 500"    style="stroke: #ecd264; fill: none" />
<path d="M 238 501,   232 501"    style="stroke: #ecd264; fill: none" />
<path d="M 237 502,   233 502"    style="stroke: #ecd264; fill: none" />
<path d="M 237 503,   233 503"    style="stroke: #ecd264; fill: none" />
<path d="M 236 504,   234 504"    style="stroke: #ecd264; fill: none" />
<path d="M 236 505,   234 505"    style="stroke: #ecd264; fill: none" />

<path d="M 235 605,
     255 625,
     235 645,
     215 625,
     235 605"
     style="fill: none; stroke: #ecd264" />

<path d="M 235 545,    235 605"
          style="stroke: #ecd264; fill: none" />
<path d="M 240 596,   230 596"    style="stroke: #ecd264; fill: none" />
<path d="M 240 597,   230 597"    style="stroke: #ecd264; fill: none" />
<path d="M 239 598,   231 598"    style="stroke: #ecd264; fill: none" />
<path d="M 239 599,   231 599"    style="stroke: #ecd264; fill: none" />
<path d="M 238 600,   232 600"    style="stroke: #ecd264; fill: none" />
<path d="M 238 601,   232 601"    style="stroke: #ecd264; fill: none" />
<path d="M 237 602,   233 602"    style="stroke: #ecd264; fill: none" />
<path d="M 237 603,   233 603"    style="stroke: #ecd264; fill: none" />
<path d="M 236 604,   234 604"    style="stroke: #ecd264; fill: none" />
<path d="M 236 605,   234 605"    style="stroke: #ecd264; fill: none" />

<circle cx="235" cy="725" r="20" style="stroke: #ecd264; fill: none" />
<text x="235" y="730" style="stroke: #ecd264; fill: #ecd264; font-size:12pt;  text-anchor: middle">X</text>

<circle cx="335" cy="625" r="20" style="stroke: #ecd264; fill: none" />
<text x="335" y="630" style="stroke: #ecd264; fill: #ecd264; font-size:12pt;  text-anchor: middle">Y</text>

<path d="M 255 625,    315 625"
          style="stroke: #ecd264; fill: none" />
<path d="M 306 620,   306 630"    style="stroke: #ecd264; fill: none" />
<path d="M 307 620,   307 630"    style="stroke: #ecd264; fill: none" />
<path d="M 308 621,   308 629"    style="stroke: #ecd264; fill: none" />
<path d="M 309 621,   309 629"    style="stroke: #ecd264; fill: none" />
<path d="M 310 622,   310 628"    style="stroke: #ecd264; fill: none" />
<path d="M 311 622,   311 628"    style="stroke: #ecd264; fill: none" />
<path d="M 312 623,   312 627"    style="stroke: #ecd264; fill: none" />
<path d="M 313 623,   313 627"    style="stroke: #ecd264; fill: none" />
<path d="M 314 624,   314 626"    style="stroke: #ecd264; fill: none" />
<path d="M 315 624,   315 626"    style="stroke: #ecd264; fill: none" />

<path d="M 235 645,    235 705"
          style="stroke: #ecd264; fill: none" />
<path d="M 240 696,   230 696"    style="stroke: #ecd264; fill: none" />
<path d="M 240 697,   230 697"    style="stroke: #ecd264; fill: none" />
<path d="M 239 698,   231 698"    style="stroke: #ecd264; fill: none" />
<path d="M 239 699,   231 699"    style="stroke: #ecd264; fill: none" />
<path d="M 238 700,   232 700"    style="stroke: #ecd264; fill: none" />
<path d="M 238 701,   232 701"    style="stroke: #ecd264; fill: none" />
<path d="M 237 702,   233 702"    style="stroke: #ecd264; fill: none" />
<path d="M 237 703,   233 703"    style="stroke: #ecd264; fill: none" />
<path d="M 236 704,   234 704"    style="stroke: #ecd264; fill: none" />
<path d="M 236 705,   234 705"    style="stroke: #ecd264; fill: none" />

<path d="M 215 625,    5 625,
         5 125,
         215 125"
          style="stroke: #ecd264; fill: none" />
<path d="M 206 120,   206 130"    style="stroke: #ecd264; fill: none" />
<path d="M 207 120,   207 130"    style="stroke: #ecd264; fill: none" />
<path d="M 208 121,   208 129"    style="stroke: #ecd264; fill: none" />
<path d="M 209 121,   209 129"    style="stroke: #ecd264; fill: none" />
<path d="M 210 122,   210 128"    style="stroke: #ecd264; fill: none" />
<path d="M 211 122,   211 128"    style="stroke: #ecd264; fill: none" />
<path d="M 212 123,   212 127"    style="stroke: #ecd264; fill: none" />
<path d="M 213 123,   213 127"    style="stroke: #ecd264; fill: none" />
<path d="M 214 124,   214 126"    style="stroke: #ecd264; fill: none" />
<path d="M 215 124,   215 126"    style="stroke: #ecd264; fill: none" />

<path d="M 255 25,    505 25,
         505 525,
         335 525,
         249.1421356237309505 439.1421356237309505"
          style="stroke: #ecd264; fill: none" />
<path d="M 251.9705627484771406 449.0416305603426158,   259.0416305603426158 441.9705627484771406"    style="stroke: #ecd264; fill: none" />
<path d="M 251.2634559672905931 448.3345237791560683,   258.3345237791560683 441.2634559672905931"    style="stroke: #ecd264; fill: none" />
<path d="M 251.2634559672905931 446.9203102167829733,   256.9203102167829733 441.2634559672905931"    style="stroke: #ecd264; fill: none" />
<path d="M 250.5563491861040455 446.2132034355964257,   256.2132034355964257 440.5563491861040455"    style="stroke: #ecd264; fill: none" />
<path d="M 250.5563491861040455 444.7989898732233307,   254.7989898732233307 440.5563491861040455"    style="stroke: #ecd264; fill: none" />
<path d="M 249.849242404917498 444.0918830920367832,   254.0918830920367832 439.849242404917498"    style="stroke: #ecd264; fill: none" />
<path d="M 249.8492424049174981 442.6776695296636881,   252.6776695296636881 439.8492424049174981"    style="stroke: #ecd264; fill: none" />
<path d="M 249.1421356237309505 441.9705627484771405,   251.9705627484771405 439.1421356237309505"    style="stroke: #ecd264; fill: none" />
<path d="M 249.1421356237309505 440.5563491861040455,   250.5563491861040455 439.1421356237309505"    style="stroke: #ecd264; fill: none" />
<path d="M 248.435028842544403 439.849242404917498,   249.849242404917498 438.435028842544403"    style="stroke: #ecd264; fill: none" />

<text x="330" y="125" style="stroke: #ecd264; fill: #ecd264; font-size:12pt;  text-anchor: left">*</text>

<text x="245" y="230" style="stroke: #ecd264; fill: #ecd264; font-size:12pt; text-decoration: underline;  text-anchor: left">format</text>

<text x="280" y="150" style="stroke: #ecd264; fill: #ecd264; font-size:12pt; text-decoration: underline;  text-anchor: left">strlit</text>

<text x="170" y="150" style="stroke: #ecd264; fill: #ecd264; font-size:12pt; text-decoration: underline;  text-anchor: left">lvn</text>

<text x="445" y="180" style="stroke: #ecd264; fill: #ecd264; font-size:12pt; text-decoration: underline;  text-anchor: left">lvn</text>

<rect x="445" y="210" width="30" height="30"
  style="fill: none; stroke: #ecd264" />
<text x="460" y="230" style="stroke: #ecd264; fill: #ecd264; font-size:12pt;  text-anchor: middle">1</text>

<rect x="125" y="160" width="30" height="30"
  style="fill: none; stroke: #ecd264" />
<text x="140" y="180" style="stroke: #ecd264; fill: #ecd264; font-size:12pt;  text-anchor: middle">1</text>

<rect x="185" y="240" width="30" height="30"
  style="fill: none; stroke: #ecd264" />
<text x="200" y="260" style="stroke: #ecd264; fill: #ecd264; font-size:12pt;  text-anchor: middle">2</text>

<rect x="380" y="290" width="30" height="30"
  style="fill: none; stroke: #ecd264" />
<text x="395" y="310" style="stroke: #ecd264; fill: #ecd264; font-size:12pt;  text-anchor: middle">3</text>

<text x="45" y="300" style="stroke: #ecd264; fill: #ecd264; font-size:12pt; text-decoration: underline;  text-anchor: left">timeout</text>

<rect x="45" y="310" width="30" height="30"
  style="fill: none; stroke: #ecd264" />
<text x="60" y="330" style="stroke: #ecd264; fill: #ecd264; font-size:12pt;  text-anchor: middle">4</text>

<text x="445" y="355" style="stroke: #ecd264; fill: #ecd264; font-size:12pt; text-decoration: underline;  text-anchor: left">timeout</text>

<rect x="445" y="365" width="30" height="30"
  style="fill: none; stroke: #ecd264" />
<text x="460" y="385" style="stroke: #ecd264; fill: #ecd264; font-size:12pt;  text-anchor: middle">5</text>

<rect x="260" y="385" width="30" height="30"
  style="fill: none; stroke: #ecd264" />
<text x="275" y="405" style="stroke: #ecd264; fill: #ecd264; font-size:12pt;  text-anchor: middle">7</text>

<rect x="185" y="385" width="30" height="30"
  style="fill: none; stroke: #ecd264" />
<text x="200" y="405" style="stroke: #ecd264; fill: #ecd264; font-size:12pt;  text-anchor: middle">6</text>

<rect x="145" y="345" width="30" height="30"
  style="fill: none; stroke: #ecd264" />
<text x="160" y="365" style="stroke: #ecd264; fill: #ecd264; font-size:12pt;  text-anchor: middle">8</text>

<rect x="295" y="345" width="30" height="30"
  style="fill: none; stroke: #ecd264" />
<text x="310" y="365" style="stroke: #ecd264; fill: #ecd264; font-size:12pt;  text-anchor: middle">9</text>

<rect x="320" y="160" width="30" height="30"
  style="fill: none; stroke: #ecd264" />
<text x="335" y="180" style="stroke: #ecd264; fill: #ecd264; font-size:12pt;  text-anchor: middle">10</text>

<text x="245" y="500" style="stroke: #ecd264; fill: #ecd264; font-size:12pt; text-decoration: underline;  text-anchor: left">comend</text>

<text x="280" y="620" style="stroke: #ecd264; fill: #ecd264; font-size:12pt;  text-anchor: left">Y</text>

<text x="180" y="620" style="stroke: #ecd264; fill: #ecd264; font-size:12pt;  text-anchor: left">Z</text>

<text x="245" y="670" style="stroke: #ecd264; fill: #ecd264; font-size:12pt;  text-anchor: left">X</text>



</svg>
