<?xml version="1.0" standalone="no"?>

<!DOCTYPE svg PUBLIC "-//W3C//DTD SVG 1.1//EN" 
"http://www.w3.org/Graphics/SVG/1.1/DTD/svg11.dtd">

<svg width="200" height="380" version="1.1"
     xmlns="http://www.w3.org/2000/svg">
<title>Transition Diagram for p02b</title>
<rect x="0" y="0" width="200" height="380" style="fill: #4c76ac; stroke: #4c76ac" />

<circle cx="100" cy="50" r="20" style="stroke: #ecd264; fill: none" />

<circle cx="100" cy="150" r="20" style="stroke: #ecd264; fill: none" />

<circle cx="25" cy="250" r="20" style="stroke: #ecd264; fill: none" />
<text x="25" y="255" style="stroke: #ecd264; fill: #ecd264; font-size:12pt;  text-anchor: middle">X</text>

<circle cx="100" cy="350" r="20" style="stroke: #ecd264; fill: none" />
<text x="100" y="355" style="stroke: #ecd264; fill: #ecd264; font-size:12pt;  text-anchor: middle">Y</text>

<text x="110" y="100" style="stroke: #ecd264; fill: #ecd264; font-size:12pt; text-decoration: underline;  text-anchor: left">diagram</text>

<path d="M 100 230,
     120 250,
     100 270,
     80 250,
     100 230"
     style="fill: none; stroke: #ecd264" />

<path d="M 100 70,    100 130"
          style="stroke: #ecd264; fill: none" />
<path d="M 105 121,   95 121"    style="stroke: #ecd264; fill: none" />
<path d="M 105 122,   95 122"    style="stroke: #ecd264; fill: none" />
<path d="M 104 123,   96 123"    style="stroke: #ecd264; fill: none" />
<path d="M 104 124,   96 124"    style="stroke: #ecd264; fill: none" />
<path d="M 103 125,   97 125"    style="stroke: #ecd264; fill: none" />
<path d="M 103 126,   97 126"    style="stroke: #ecd264; fill: none" />
<path d="M 102 127,   98 127"    style="stroke: #ecd264; fill: none" />
<path d="M 102 128,   98 128"    style="stroke: #ecd264; fill: none" />
<path d="M 101 129,   99 129"    style="stroke: #ecd264; fill: none" />
<path d="M 101 130,   99 130"    style="stroke: #ecd264; fill: none" />

<path d="M 100 170,    100 230"
          style="stroke: #ecd264; fill: none" />
<path d="M 105 221,   95 221"    style="stroke: #ecd264; fill: none" />
<path d="M 105 222,   95 222"    style="stroke: #ecd264; fill: none" />
<path d="M 104 223,   96 223"    style="stroke: #ecd264; fill: none" />
<path d="M 104 224,   96 224"    style="stroke: #ecd264; fill: none" />
<path d="M 103 225,   97 225"    style="stroke: #ecd264; fill: none" />
<path d="M 103 226,   97 226"    style="stroke: #ecd264; fill: none" />
<path d="M 102 227,   98 227"    style="stroke: #ecd264; fill: none" />
<path d="M 102 228,   98 228"    style="stroke: #ecd264; fill: none" />
<path d="M 101 229,   99 229"    style="stroke: #ecd264; fill: none" />
<path d="M 101 230,   99 230"    style="stroke: #ecd264; fill: none" />

<path d="M 80 250,    45 250"
          style="stroke: #ecd264; fill: none" />
<path d="M 54 255,   54 245"    style="stroke: #ecd264; fill: none" />
<path d="M 53 255,   53 245"    style="stroke: #ecd264; fill: none" />
<path d="M 52 254,   52 246"    style="stroke: #ecd264; fill: none" />
<path d="M 51 254,   51 246"    style="stroke: #ecd264; fill: none" />
<path d="M 50 253,   50 247"    style="stroke: #ecd264; fill: none" />
<path d="M 49 253,   49 247"    style="stroke: #ecd264; fill: none" />
<path d="M 48 252,   48 248"    style="stroke: #ecd264; fill: none" />
<path d="M 47 252,   47 248"    style="stroke: #ecd264; fill: none" />
<path d="M 46 251,   46 249"    style="stroke: #ecd264; fill: none" />
<path d="M 45 251,   45 249"    style="stroke: #ecd264; fill: none" />

<path d="M 120 250,    155 250"
          style="stroke: #ecd264; fill: none" />
<path d="M 146 245,   146 255"    style="stroke: #ecd264; fill: none" />
<path d="M 147 245,   147 255"    style="stroke: #ecd264; fill: none" />
<path d="M 148 246,   148 254"    style="stroke: #ecd264; fill: none" />
<path d="M 149 246,   149 254"    style="stroke: #ecd264; fill: none" />
<path d="M 150 247,   150 253"    style="stroke: #ecd264; fill: none" />
<path d="M 151 247,   151 253"    style="stroke: #ecd264; fill: none" />
<path d="M 152 248,   152 252"    style="stroke: #ecd264; fill: none" />
<path d="M 153 248,   153 252"    style="stroke: #ecd264; fill: none" />
<path d="M 154 249,   154 251"    style="stroke: #ecd264; fill: none" />
<path d="M 155 249,   155 251"    style="stroke: #ecd264; fill: none" />

<path d="M 100 270,    100 330"
          style="stroke: #ecd264; fill: none" />
<path d="M 105 321,   95 321"    style="stroke: #ecd264; fill: none" />
<path d="M 105 322,   95 322"    style="stroke: #ecd264; fill: none" />
<path d="M 104 323,   96 323"    style="stroke: #ecd264; fill: none" />
<path d="M 104 324,   96 324"    style="stroke: #ecd264; fill: none" />
<path d="M 103 325,   97 325"    style="stroke: #ecd264; fill: none" />
<path d="M 103 326,   97 326"    style="stroke: #ecd264; fill: none" />
<path d="M 102 327,   98 327"    style="stroke: #ecd264; fill: none" />
<path d="M 102 328,   98 328"    style="stroke: #ecd264; fill: none" />
<path d="M 101 329,   99 329"    style="stroke: #ecd264; fill: none" />
<path d="M 101 330,   99 330"    style="stroke: #ecd264; fill: none" />

<path d="M 100 25,    100 30"
          style="stroke: #ecd264; fill: none" />
<path d="M 105 21,   95 21"    style="stroke: #ecd264; fill: none" />
<path d="M 105 22,   95 22"    style="stroke: #ecd264; fill: none" />
<path d="M 104 23,   96 23"    style="stroke: #ecd264; fill: none" />
<path d="M 104 24,   96 24"    style="stroke: #ecd264; fill: none" />
<path d="M 103 25,   97 25"    style="stroke: #ecd264; fill: none" />
<path d="M 103 26,   97 26"    style="stroke: #ecd264; fill: none" />
<path d="M 102 27,   98 27"    style="stroke: #ecd264; fill: none" />
<path d="M 102 28,   98 28"    style="stroke: #ecd264; fill: none" />
<path d="M 101 29,   99 29"    style="stroke: #ecd264; fill: none" />
<path d="M 101 30,   99 30"    style="stroke: #ecd264; fill: none" />

<text x="110" y="300" style="stroke: #ecd264; fill: #ecd264; font-size:12pt;  text-anchor: left">Y</text>

<text x="70" y="240" style="stroke: #ecd264; fill: #ecd264; font-size:12pt;  text-anchor: left">X</text>

<text x="120" y="240" style="stroke: #ecd264; fill: #ecd264; font-size:12pt;  text-anchor: left">Z</text>

<text x="160" y="250" style="stroke: #ecd264; fill: #ecd264; font-size:12pt;  text-anchor: left">...</text>

<text x="97" y="5" style="stroke: #ecd264; fill: #ecd264; font-size:12pt;  text-anchor: left">.</text>

<text x="97" y="10" style="stroke: #ecd264; fill: #ecd264; font-size:12pt;  text-anchor: left">.</text>

<text x="97" y="15" style="stroke: #ecd264; fill: #ecd264; font-size:12pt;  text-anchor: left">.</text>



</svg>
