<?xml version="1.0" standalone="no"?>

<!DOCTYPE svg PUBLIC "-//W3C//DTD SVG 1.1//EN" 
"http://www.w3.org/Graphics/SVG/1.1/DTD/svg11.dtd">

<svg width="450" height="850" version="1.1"
     xmlns="http://www.w3.org/2000/svg">
<title>Transition Diagram for trans_if</title>
<rect x="0" y="0" width="450" height="850" style="fill: #4c76ac; stroke: #4c76ac" />

<circle cx="75" cy="25" r="20" style="stroke: #ecd264; fill: none" />
<text x="75" y="30" style="stroke: #ecd264; fill: #ecd264; font-size:12pt;  text-anchor: middle">E</text>

<circle cx="225" cy="25" r="20" style="stroke: #ecd264; fill: none" />

<path d="M 225 105,
     245 125,
     225 145,
     205 125,
     225 105"
     style="fill: none; stroke: #ecd264" />

<circle cx="40" cy="125" r="20" style="stroke: #ecd264; fill: none" />

<circle cx="425" cy="125" r="20" style="stroke: #ecd264; fill: none" />
<text x="425" y="130" style="stroke: #ecd264; fill: #ecd264; font-size:12pt;  text-anchor: middle">Y</text>

<path d="M 40 190,
       70.31088913245535265 207.5,
       70.31088913245535265 242.5,
       40 260,
       9.68911086754464735 242.5,
       9.68911086754464735 207.5,
       40 190"
     style="stroke: #ecd264; fill: none" />
<text x="40" y="230" style="stroke: #ecd264; fill: #ecd264; font-size:12pt;  text-anchor: middle">Ifswitch</text>

<circle cx="40" cy="325" r="20" style="stroke: #ecd264; fill: none" />

<circle cx="40" cy="425" r="20" style="stroke: #ecd264; fill: none" />
<text x="40" y="430" style="stroke: #ecd264; fill: #ecd264; font-size:12pt;  text-anchor: middle">X</text>

<circle cx="175" cy="225" r="20" style="stroke: #ecd264; fill: none" />

<circle cx="175" cy="325" r="20" style="stroke: #ecd264; fill: none" />

<path d="M 175 390,
       205.3108891324553527 407.5,
       205.3108891324553527 442.5,
       175 460,
       144.6891108675446473 442.5,
       144.6891108675446473 407.5,
       175 390"
     style="stroke: #ecd264; fill: none" />
<text x="175" y="430" style="stroke: #ecd264; fill: #ecd264; font-size:12pt;  text-anchor: middle">Ifswitch</text>

<circle cx="225" cy="525" r="20" style="stroke: #ecd264; fill: none" />

<circle cx="225" cy="625" r="20" style="stroke: #ecd264; fill: none" />

<path d="M 225 705,
     245 725,
     225 745,
     205 725,
     225 705"
     style="fill: none; stroke: #ecd264" />

<circle cx="225" cy="825" r="20" style="stroke: #ecd264; fill: none" />
<text x="225" y="830" style="stroke: #ecd264; fill: #ecd264; font-size:12pt;  text-anchor: middle">X</text>

<circle cx="325" cy="725" r="20" style="stroke: #ecd264; fill: none" />
<text x="325" y="730" style="stroke: #ecd264; fill: #ecd264; font-size:12pt;  text-anchor: middle">Y</text>

<path d="M 95 25,    205 25"
          style="stroke: #ecd264; fill: none" />
<path d="M 196 20,   196 30"    style="stroke: #ecd264; fill: none" />
<path d="M 197 20,   197 30"    style="stroke: #ecd264; fill: none" />
<path d="M 198 21,   198 29"    style="stroke: #ecd264; fill: none" />
<path d="M 199 21,   199 29"    style="stroke: #ecd264; fill: none" />
<path d="M 200 22,   200 28"    style="stroke: #ecd264; fill: none" />
<path d="M 201 22,   201 28"    style="stroke: #ecd264; fill: none" />
<path d="M 202 23,   202 27"    style="stroke: #ecd264; fill: none" />
<path d="M 203 23,   203 27"    style="stroke: #ecd264; fill: none" />
<path d="M 204 24,   204 26"    style="stroke: #ecd264; fill: none" />
<path d="M 205 24,   205 26"    style="stroke: #ecd264; fill: none" />

<path d="M 225 45,    225 105"
          style="stroke: #ecd264; fill: none" />
<path d="M 230 96,   220 96"    style="stroke: #ecd264; fill: none" />
<path d="M 230 97,   220 97"    style="stroke: #ecd264; fill: none" />
<path d="M 229 98,   221 98"    style="stroke: #ecd264; fill: none" />
<path d="M 229 99,   221 99"    style="stroke: #ecd264; fill: none" />
<path d="M 228 100,   222 100"    style="stroke: #ecd264; fill: none" />
<path d="M 228 101,   222 101"    style="stroke: #ecd264; fill: none" />
<path d="M 227 102,   223 102"    style="stroke: #ecd264; fill: none" />
<path d="M 227 103,   223 103"    style="stroke: #ecd264; fill: none" />
<path d="M 226 104,   224 104"    style="stroke: #ecd264; fill: none" />
<path d="M 226 105,   224 105"    style="stroke: #ecd264; fill: none" />

<path d="M 205 125,    60 125"
          style="stroke: #ecd264; fill: none" />
<path d="M 69 130,   69 120"    style="stroke: #ecd264; fill: none" />
<path d="M 68 130,   68 120"    style="stroke: #ecd264; fill: none" />
<path d="M 67 129,   67 121"    style="stroke: #ecd264; fill: none" />
<path d="M 66 129,   66 121"    style="stroke: #ecd264; fill: none" />
<path d="M 65 128,   65 122"    style="stroke: #ecd264; fill: none" />
<path d="M 64 128,   64 122"    style="stroke: #ecd264; fill: none" />
<path d="M 63 127,   63 123"    style="stroke: #ecd264; fill: none" />
<path d="M 62 127,   62 123"    style="stroke: #ecd264; fill: none" />
<path d="M 61 126,   61 124"    style="stroke: #ecd264; fill: none" />
<path d="M 60 126,   60 124"    style="stroke: #ecd264; fill: none" />

<path d="M 245 125,    405 125"
          style="stroke: #ecd264; fill: none" />
<path d="M 396 120,   396 130"    style="stroke: #ecd264; fill: none" />
<path d="M 397 120,   397 130"    style="stroke: #ecd264; fill: none" />
<path d="M 398 121,   398 129"    style="stroke: #ecd264; fill: none" />
<path d="M 399 121,   399 129"    style="stroke: #ecd264; fill: none" />
<path d="M 400 122,   400 128"    style="stroke: #ecd264; fill: none" />
<path d="M 401 122,   401 128"    style="stroke: #ecd264; fill: none" />
<path d="M 402 123,   402 127"    style="stroke: #ecd264; fill: none" />
<path d="M 403 123,   403 127"    style="stroke: #ecd264; fill: none" />
<path d="M 404 124,   404 126"    style="stroke: #ecd264; fill: none" />
<path d="M 405 124,   405 126"    style="stroke: #ecd264; fill: none" />

<path d="M 40 145,    40 190"
          style="stroke: #ecd264; fill: none" />
<path d="M 45 181,   35 181"    style="stroke: #ecd264; fill: none" />
<path d="M 45 182,   35 182"    style="stroke: #ecd264; fill: none" />
<path d="M 44 183,   36 183"    style="stroke: #ecd264; fill: none" />
<path d="M 44 184,   36 184"    style="stroke: #ecd264; fill: none" />
<path d="M 43 185,   37 185"    style="stroke: #ecd264; fill: none" />
<path d="M 43 186,   37 186"    style="stroke: #ecd264; fill: none" />
<path d="M 42 187,   38 187"    style="stroke: #ecd264; fill: none" />
<path d="M 42 188,   38 188"    style="stroke: #ecd264; fill: none" />
<path d="M 41 189,   39 189"    style="stroke: #ecd264; fill: none" />
<path d="M 41 190,   39 190"    style="stroke: #ecd264; fill: none" />

<path d="M 40 260,    40 305"
          style="stroke: #ecd264; fill: none" />
<path d="M 45 296,   35 296"    style="stroke: #ecd264; fill: none" />
<path d="M 45 297,   35 297"    style="stroke: #ecd264; fill: none" />
<path d="M 44 298,   36 298"    style="stroke: #ecd264; fill: none" />
<path d="M 44 299,   36 299"    style="stroke: #ecd264; fill: none" />
<path d="M 43 300,   37 300"    style="stroke: #ecd264; fill: none" />
<path d="M 43 301,   37 301"    style="stroke: #ecd264; fill: none" />
<path d="M 42 302,   38 302"    style="stroke: #ecd264; fill: none" />
<path d="M 42 303,   38 303"    style="stroke: #ecd264; fill: none" />
<path d="M 41 304,   39 304"    style="stroke: #ecd264; fill: none" />
<path d="M 41 305,   39 305"    style="stroke: #ecd264; fill: none" />

<path d="M 40 345,    40 405"
          style="stroke: #ecd264; fill: none" />
<path d="M 45 396,   35 396"    style="stroke: #ecd264; fill: none" />
<path d="M 45 397,   35 397"    style="stroke: #ecd264; fill: none" />
<path d="M 44 398,   36 398"    style="stroke: #ecd264; fill: none" />
<path d="M 44 399,   36 399"    style="stroke: #ecd264; fill: none" />
<path d="M 43 400,   37 400"    style="stroke: #ecd264; fill: none" />
<path d="M 43 401,   37 401"    style="stroke: #ecd264; fill: none" />
<path d="M 42 402,   38 402"    style="stroke: #ecd264; fill: none" />
<path d="M 42 403,   38 403"    style="stroke: #ecd264; fill: none" />
<path d="M 41 404,   39 404"    style="stroke: #ecd264; fill: none" />
<path d="M 41 405,   39 405"    style="stroke: #ecd264; fill: none" />

<path d="M 175 245,    175 305"
          style="stroke: #ecd264; fill: none" />
<path d="M 180 296,   170 296"    style="stroke: #ecd264; fill: none" />
<path d="M 180 297,   170 297"    style="stroke: #ecd264; fill: none" />
<path d="M 179 298,   171 298"    style="stroke: #ecd264; fill: none" />
<path d="M 179 299,   171 299"    style="stroke: #ecd264; fill: none" />
<path d="M 178 300,   172 300"    style="stroke: #ecd264; fill: none" />
<path d="M 178 301,   172 301"    style="stroke: #ecd264; fill: none" />
<path d="M 177 302,   173 302"    style="stroke: #ecd264; fill: none" />
<path d="M 177 303,   173 303"    style="stroke: #ecd264; fill: none" />
<path d="M 176 304,   174 304"    style="stroke: #ecd264; fill: none" />
<path d="M 176 305,   174 305"    style="stroke: #ecd264; fill: none" />

<path d="M 175 345,    175 390"
          style="stroke: #ecd264; fill: none" />
<path d="M 180 381,   170 381"    style="stroke: #ecd264; fill: none" />
<path d="M 180 382,   170 382"    style="stroke: #ecd264; fill: none" />
<path d="M 179 383,   171 383"    style="stroke: #ecd264; fill: none" />
<path d="M 179 384,   171 384"    style="stroke: #ecd264; fill: none" />
<path d="M 178 385,   172 385"    style="stroke: #ecd264; fill: none" />
<path d="M 178 386,   172 386"    style="stroke: #ecd264; fill: none" />
<path d="M 177 387,   173 387"    style="stroke: #ecd264; fill: none" />
<path d="M 177 388,   173 388"    style="stroke: #ecd264; fill: none" />
<path d="M 176 389,   174 389"    style="stroke: #ecd264; fill: none" />
<path d="M 176 390,   174 390"    style="stroke: #ecd264; fill: none" />

<path d="M 175 460,    175 525,
         205 525"
          style="stroke: #ecd264; fill: none" />
<path d="M 196 520,   196 530"    style="stroke: #ecd264; fill: none" />
<path d="M 197 520,   197 530"    style="stroke: #ecd264; fill: none" />
<path d="M 198 521,   198 529"    style="stroke: #ecd264; fill: none" />
<path d="M 199 521,   199 529"    style="stroke: #ecd264; fill: none" />
<path d="M 200 522,   200 528"    style="stroke: #ecd264; fill: none" />
<path d="M 201 522,   201 528"    style="stroke: #ecd264; fill: none" />
<path d="M 202 523,   202 527"    style="stroke: #ecd264; fill: none" />
<path d="M 203 523,   203 527"    style="stroke: #ecd264; fill: none" />
<path d="M 204 524,   204 526"    style="stroke: #ecd264; fill: none" />
<path d="M 205 524,   205 526"    style="stroke: #ecd264; fill: none" />

<path d="M 205 425,    225 425,
         225 505"
          style="stroke: #ecd264; fill: none" />
<path d="M 230 496,   220 496"    style="stroke: #ecd264; fill: none" />
<path d="M 230 497,   220 497"    style="stroke: #ecd264; fill: none" />
<path d="M 229 498,   221 498"    style="stroke: #ecd264; fill: none" />
<path d="M 229 499,   221 499"    style="stroke: #ecd264; fill: none" />
<path d="M 228 500,   222 500"    style="stroke: #ecd264; fill: none" />
<path d="M 228 501,   222 501"    style="stroke: #ecd264; fill: none" />
<path d="M 227 502,   223 502"    style="stroke: #ecd264; fill: none" />
<path d="M 227 503,   223 503"    style="stroke: #ecd264; fill: none" />
<path d="M 226 504,   224 504"    style="stroke: #ecd264; fill: none" />
<path d="M 226 505,   224 505"    style="stroke: #ecd264; fill: none" />

<path d="M 225 545,    225 605"
          style="stroke: #ecd264; fill: none" />
<path d="M 230 596,   220 596"    style="stroke: #ecd264; fill: none" />
<path d="M 230 597,   220 597"    style="stroke: #ecd264; fill: none" />
<path d="M 229 598,   221 598"    style="stroke: #ecd264; fill: none" />
<path d="M 229 599,   221 599"    style="stroke: #ecd264; fill: none" />
<path d="M 228 600,   222 600"    style="stroke: #ecd264; fill: none" />
<path d="M 228 601,   222 601"    style="stroke: #ecd264; fill: none" />
<path d="M 227 602,   223 602"    style="stroke: #ecd264; fill: none" />
<path d="M 227 603,   223 603"    style="stroke: #ecd264; fill: none" />
<path d="M 226 604,   224 604"    style="stroke: #ecd264; fill: none" />
<path d="M 226 605,   224 605"    style="stroke: #ecd264; fill: none" />

<path d="M 225 645,    225 705"
          style="stroke: #ecd264; fill: none" />
<path d="M 230 696,   220 696"    style="stroke: #ecd264; fill: none" />
<path d="M 230 697,   220 697"    style="stroke: #ecd264; fill: none" />
<path d="M 229 698,   221 698"    style="stroke: #ecd264; fill: none" />
<path d="M 229 699,   221 699"    style="stroke: #ecd264; fill: none" />
<path d="M 228 700,   222 700"    style="stroke: #ecd264; fill: none" />
<path d="M 228 701,   222 701"    style="stroke: #ecd264; fill: none" />
<path d="M 227 702,   223 702"    style="stroke: #ecd264; fill: none" />
<path d="M 227 703,   223 703"    style="stroke: #ecd264; fill: none" />
<path d="M 226 704,   224 704"    style="stroke: #ecd264; fill: none" />
<path d="M 226 705,   224 705"    style="stroke: #ecd264; fill: none" />

<path d="M 225 745,    225 805"
          style="stroke: #ecd264; fill: none" />
<path d="M 230 796,   220 796"    style="stroke: #ecd264; fill: none" />
<path d="M 230 797,   220 797"    style="stroke: #ecd264; fill: none" />
<path d="M 229 798,   221 798"    style="stroke: #ecd264; fill: none" />
<path d="M 229 799,   221 799"    style="stroke: #ecd264; fill: none" />
<path d="M 228 800,   222 800"    style="stroke: #ecd264; fill: none" />
<path d="M 228 801,   222 801"    style="stroke: #ecd264; fill: none" />
<path d="M 227 802,   223 802"    style="stroke: #ecd264; fill: none" />
<path d="M 227 803,   223 803"    style="stroke: #ecd264; fill: none" />
<path d="M 226 804,   224 804"    style="stroke: #ecd264; fill: none" />
<path d="M 226 805,   224 805"    style="stroke: #ecd264; fill: none" />

<path d="M 245 725,    305 725"
          style="stroke: #ecd264; fill: none" />
<path d="M 296 720,   296 730"    style="stroke: #ecd264; fill: none" />
<path d="M 297 720,   297 730"    style="stroke: #ecd264; fill: none" />
<path d="M 298 721,   298 729"    style="stroke: #ecd264; fill: none" />
<path d="M 299 721,   299 729"    style="stroke: #ecd264; fill: none" />
<path d="M 300 722,   300 728"    style="stroke: #ecd264; fill: none" />
<path d="M 301 722,   301 728"    style="stroke: #ecd264; fill: none" />
<path d="M 302 723,   302 727"    style="stroke: #ecd264; fill: none" />
<path d="M 303 723,   303 727"    style="stroke: #ecd264; fill: none" />
<path d="M 304 724,   304 726"    style="stroke: #ecd264; fill: none" />
<path d="M 305 724,   305 726"    style="stroke: #ecd264; fill: none" />

<path d="M 205 725,    130 725,
         130 225,
         155 225"
          style="stroke: #ecd264; fill: none" />
<path d="M 146 220,   146 230"    style="stroke: #ecd264; fill: none" />
<path d="M 147 220,   147 230"    style="stroke: #ecd264; fill: none" />
<path d="M 148 221,   148 229"    style="stroke: #ecd264; fill: none" />
<path d="M 149 221,   149 229"    style="stroke: #ecd264; fill: none" />
<path d="M 150 222,   150 228"    style="stroke: #ecd264; fill: none" />
<path d="M 151 222,   151 228"    style="stroke: #ecd264; fill: none" />
<path d="M 152 223,   152 227"    style="stroke: #ecd264; fill: none" />
<path d="M 153 223,   153 227"    style="stroke: #ecd264; fill: none" />
<path d="M 154 224,   154 226"    style="stroke: #ecd264; fill: none" />
<path d="M 155 224,   155 226"    style="stroke: #ecd264; fill: none" />

<path d="M 215.8578643762690495 134.1421356237309505,    175 175,
         175 205"
          style="stroke: #ecd264; fill: none" />
<path d="M 180 196,   170 196"    style="stroke: #ecd264; fill: none" />
<path d="M 180 197,   170 197"    style="stroke: #ecd264; fill: none" />
<path d="M 179 198,   171 198"    style="stroke: #ecd264; fill: none" />
<path d="M 179 199,   171 199"    style="stroke: #ecd264; fill: none" />
<path d="M 178 200,   172 200"    style="stroke: #ecd264; fill: none" />
<path d="M 178 201,   172 201"    style="stroke: #ecd264; fill: none" />
<path d="M 177 202,   173 202"    style="stroke: #ecd264; fill: none" />
<path d="M 177 203,   173 203"    style="stroke: #ecd264; fill: none" />
<path d="M 176 204,   174 204"    style="stroke: #ecd264; fill: none" />
<path d="M 176 205,   174 205"    style="stroke: #ecd264; fill: none" />

<path d="M 234.1421356237309505 134.1421356237309505,    325 225,
         325 525,
         245 525"
          style="stroke: #ecd264; fill: none" />
<path d="M 254 530,   254 520"    style="stroke: #ecd264; fill: none" />
<path d="M 253 530,   253 520"    style="stroke: #ecd264; fill: none" />
<path d="M 252 529,   252 521"    style="stroke: #ecd264; fill: none" />
<path d="M 251 529,   251 521"    style="stroke: #ecd264; fill: none" />
<path d="M 250 528,   250 522"    style="stroke: #ecd264; fill: none" />
<path d="M 249 528,   249 522"    style="stroke: #ecd264; fill: none" />
<path d="M 248 527,   248 523"    style="stroke: #ecd264; fill: none" />
<path d="M 247 527,   247 523"    style="stroke: #ecd264; fill: none" />
<path d="M 246 526,   246 524"    style="stroke: #ecd264; fill: none" />
<path d="M 245 526,   245 524"    style="stroke: #ecd264; fill: none" />

<path d="M 70 225,    100 225,
         100 325,
         60 325"
          style="stroke: #ecd264; fill: none" />
<path d="M 69 330,   69 320"    style="stroke: #ecd264; fill: none" />
<path d="M 68 330,   68 320"    style="stroke: #ecd264; fill: none" />
<path d="M 67 329,   67 321"    style="stroke: #ecd264; fill: none" />
<path d="M 66 329,   66 321"    style="stroke: #ecd264; fill: none" />
<path d="M 65 328,   65 322"    style="stroke: #ecd264; fill: none" />
<path d="M 64 328,   64 322"    style="stroke: #ecd264; fill: none" />
<path d="M 63 327,   63 323"    style="stroke: #ecd264; fill: none" />
<path d="M 62 327,   62 323"    style="stroke: #ecd264; fill: none" />
<path d="M 61 326,   61 324"    style="stroke: #ecd264; fill: none" />
<path d="M 60 326,   60 324"    style="stroke: #ecd264; fill: none" />

<text x="110" y="20" style="stroke: #ecd264; fill: #ecd264; font-size:12pt; text-decoration: underline;  text-anchor: left">argument</text>

<text x="280" y="120" style="stroke: #ecd264; fill: #ecd264; font-size:12pt;  text-anchor: left">Y</text>

<text x="280" y="170" style="stroke: #ecd264; fill: #ecd264; font-size:12pt;  text-anchor: left">W</text>

<text x="170" y="120" style="stroke: #ecd264; fill: #ecd264; font-size:12pt;  text-anchor: left">Z</text>

<text x="160" y="170" style="stroke: #ecd264; fill: #ecd264; font-size:12pt;  text-anchor: left">X</text>

<rect x="50" y="265" width="30" height="30"
  style="fill: none; stroke: #ecd264" />
<text x="65" y="285" style="stroke: #ecd264; fill: #ecd264; font-size:12pt;  text-anchor: middle">2</text>

<text x="190" y="260" style="stroke: #ecd264; fill: #ecd264; font-size:12pt; text-decoration: underline;  text-anchor: left">tvexpr</text>

<rect x="190" y="270" width="30" height="30"
  style="fill: none; stroke: #ecd264" />
<text x="205" y="290" style="stroke: #ecd264; fill: #ecd264; font-size:12pt;  text-anchor: middle">1</text>

<rect x="180" y="470" width="30" height="30"
  style="fill: none; stroke: #ecd264" />
<text x="195" y="490" style="stroke: #ecd264; fill: #ecd264; font-size:12pt;  text-anchor: middle">2</text>

<text x="260" y="720" style="stroke: #ecd264; fill: #ecd264; font-size:12pt;  text-anchor: left">Y</text>

<text x="240" y="780" style="stroke: #ecd264; fill: #ecd264; font-size:12pt;  text-anchor: left">X</text>

<text x="190" y="720" style="stroke: #ecd264; fill: #ecd264; font-size:12pt;  text-anchor: left">Z</text>

<text x="240" y="580" style="stroke: #ecd264; fill: #ecd264; font-size:12pt; text-decoration: underline;  text-anchor: left">comend</text>



</svg>
