<?xml version="1.0" standalone="no"?>

<!DOCTYPE svg PUBLIC "-//W3C//DTD SVG 1.1//EN" 
"http://www.w3.org/Graphics/SVG/1.1/DTD/svg11.dtd">

<svg width="375" height="650" version="1.1"
     xmlns="http://www.w3.org/2000/svg">
<title>Transition Diagram for trans_write</title>
<rect x="0" y="0" width="375" height="650" style="fill: #4c76ac; stroke: #4c76ac" />

<circle cx="25" cy="25" r="20" style="stroke: #ecd264; fill: none" />
<text x="25" y="30" style="stroke: #ecd264; fill: #ecd264; font-size:12pt;  text-anchor: middle">E</text>

<circle cx="150" cy="25" r="20" style="stroke: #ecd264; fill: none" />

<path d="M 225 5,
     245 25,
     225 45,
     205 25,
     225 5"
     style="fill: none; stroke: #ecd264" />

<circle cx="225" cy="125" r="20" style="stroke: #ecd264; fill: none" />

<circle cx="125" cy="225" r="20" style="stroke: #ecd264; fill: none" />

<circle cx="325" cy="225" r="20" style="stroke: #ecd264; fill: none" />

<circle cx="225" cy="325" r="20" style="stroke: #ecd264; fill: none" />

<circle cx="225" cy="425" r="20" style="stroke: #ecd264; fill: none" />

<path d="M 225 505,
     245 525,
     225 545,
     205 525,
     225 505"
     style="fill: none; stroke: #ecd264" />

<circle cx="225" cy="625" r="20" style="stroke: #ecd264; fill: none" />
<text x="225" y="630" style="stroke: #ecd264; fill: #ecd264; font-size:12pt;  text-anchor: middle">X</text>

<circle cx="325" cy="525" r="20" style="stroke: #ecd264; fill: none" />
<text x="325" y="530" style="stroke: #ecd264; fill: #ecd264; font-size:12pt;  text-anchor: middle">Y</text>

<text x="50" y="20" style="stroke: #ecd264; fill: #ecd264; font-size:12pt; text-decoration: underline;  text-anchor: left">postcond</text>

<text x="280" y="20" style="stroke: #ecd264; fill: #ecd264; font-size:12pt;  text-anchor: left">W</text>

<text x="240" y="80" style="stroke: #ecd264; fill: #ecd264; font-size:12pt;  text-anchor: left">X</text>

<path d="M 45 25,    130 25"
          style="stroke: #ecd264; fill: none" />
<path d="M 121 20,   121 30"    style="stroke: #ecd264; fill: none" />
<path d="M 122 20,   122 30"    style="stroke: #ecd264; fill: none" />
<path d="M 123 21,   123 29"    style="stroke: #ecd264; fill: none" />
<path d="M 124 21,   124 29"    style="stroke: #ecd264; fill: none" />
<path d="M 125 22,   125 28"    style="stroke: #ecd264; fill: none" />
<path d="M 126 22,   126 28"    style="stroke: #ecd264; fill: none" />
<path d="M 127 23,   127 27"    style="stroke: #ecd264; fill: none" />
<path d="M 128 23,   128 27"    style="stroke: #ecd264; fill: none" />
<path d="M 129 24,   129 26"    style="stroke: #ecd264; fill: none" />
<path d="M 130 24,   130 26"    style="stroke: #ecd264; fill: none" />

<path d="M 170 25,    205 25"
          style="stroke: #ecd264; fill: none" />
<path d="M 196 20,   196 30"    style="stroke: #ecd264; fill: none" />
<path d="M 197 20,   197 30"    style="stroke: #ecd264; fill: none" />
<path d="M 198 21,   198 29"    style="stroke: #ecd264; fill: none" />
<path d="M 199 21,   199 29"    style="stroke: #ecd264; fill: none" />
<path d="M 200 22,   200 28"    style="stroke: #ecd264; fill: none" />
<path d="M 201 22,   201 28"    style="stroke: #ecd264; fill: none" />
<path d="M 202 23,   202 27"    style="stroke: #ecd264; fill: none" />
<path d="M 203 23,   203 27"    style="stroke: #ecd264; fill: none" />
<path d="M 204 24,   204 26"    style="stroke: #ecd264; fill: none" />
<path d="M 205 24,   205 26"    style="stroke: #ecd264; fill: none" />

<path d="M 225 45,    225 105"
          style="stroke: #ecd264; fill: none" />
<path d="M 230 96,   220 96"    style="stroke: #ecd264; fill: none" />
<path d="M 230 97,   220 97"    style="stroke: #ecd264; fill: none" />
<path d="M 229 98,   221 98"    style="stroke: #ecd264; fill: none" />
<path d="M 229 99,   221 99"    style="stroke: #ecd264; fill: none" />
<path d="M 228 100,   222 100"    style="stroke: #ecd264; fill: none" />
<path d="M 228 101,   222 101"    style="stroke: #ecd264; fill: none" />
<path d="M 227 102,   223 102"    style="stroke: #ecd264; fill: none" />
<path d="M 227 103,   223 103"    style="stroke: #ecd264; fill: none" />
<path d="M 226 104,   224 104"    style="stroke: #ecd264; fill: none" />
<path d="M 226 105,   224 105"    style="stroke: #ecd264; fill: none" />

<path d="M 210.8578643762690495 139.1421356237309505,    139.1421356237309505 210.8578643762690495"
          style="stroke: #ecd264; fill: none" />
<path d="M 149.0416305603426158 208.0294372515228594,   141.9705627484771406 200.9583694396573842"    style="stroke: #ecd264; fill: none" />
<path d="M 148.3345237791560683 208.7365440327094069,   141.2634559672905931 201.6654762208439317"    style="stroke: #ecd264; fill: none" />
<path d="M 146.9203102167829733 208.7365440327094069,   141.2634559672905931 203.0796897832170267"    style="stroke: #ecd264; fill: none" />
<path d="M 146.2132034355964257 209.4436508138959545,   140.5563491861040455 203.7867965644035743"    style="stroke: #ecd264; fill: none" />
<path d="M 144.7989898732233307 209.4436508138959545,   140.5563491861040455 205.2010101267766693"    style="stroke: #ecd264; fill: none" />
<path d="M 144.0918830920367832 210.150757595082502,   139.849242404917498 205.9081169079632168"    style="stroke: #ecd264; fill: none" />
<path d="M 142.6776695296636881 210.1507575950825019,   139.8492424049174981 207.3223304703363119"    style="stroke: #ecd264; fill: none" />
<path d="M 141.9705627484771405 210.8578643762690495,   139.1421356237309505 208.0294372515228595"    style="stroke: #ecd264; fill: none" />
<path d="M 140.5563491861040455 210.8578643762690495,   139.1421356237309505 209.4436508138959545"    style="stroke: #ecd264; fill: none" />
<path d="M 139.849242404917498 211.564971157455597,   138.435028842544403 210.150757595082502"    style="stroke: #ecd264; fill: none" />

<path d="M 239.1421356237309505 139.1421356237309505,    310.8578643762690495 210.8578643762690495"
          style="stroke: #ecd264; fill: none" />
<path d="M 308.0294372515228594 200.9583694396573842,   300.9583694396573842 208.0294372515228594"    style="stroke: #ecd264; fill: none" />
<path d="M 308.7365440327094069 201.6654762208439317,   301.6654762208439317 208.7365440327094069"    style="stroke: #ecd264; fill: none" />
<path d="M 308.7365440327094069 203.0796897832170267,   303.0796897832170267 208.7365440327094069"    style="stroke: #ecd264; fill: none" />
<path d="M 309.4436508138959545 203.7867965644035743,   303.7867965644035743 209.4436508138959545"    style="stroke: #ecd264; fill: none" />
<path d="M 309.4436508138959545 205.2010101267766693,   305.2010101267766693 209.4436508138959545"    style="stroke: #ecd264; fill: none" />
<path d="M 310.150757595082502 205.9081169079632168,   305.9081169079632168 210.150757595082502"    style="stroke: #ecd264; fill: none" />
<path d="M 310.1507575950825019 207.3223304703363119,   307.3223304703363119 210.1507575950825019"    style="stroke: #ecd264; fill: none" />
<path d="M 310.8578643762690495 208.0294372515228595,   308.0294372515228595 210.8578643762690495"    style="stroke: #ecd264; fill: none" />
<path d="M 310.8578643762690495 209.4436508138959545,   309.4436508138959545 210.8578643762690495"    style="stroke: #ecd264; fill: none" />
<path d="M 311.564971157455597 210.150757595082502,   310.150757595082502 211.564971157455597"    style="stroke: #ecd264; fill: none" />

<path d="M 139.1421356237309505 239.1421356237309505,    210.8578643762690495 310.8578643762690495"
          style="stroke: #ecd264; fill: none" />
<path d="M 208.0294372515228594 300.9583694396573842,   200.9583694396573842 308.0294372515228594"    style="stroke: #ecd264; fill: none" />
<path d="M 208.7365440327094069 301.6654762208439317,   201.6654762208439317 308.7365440327094069"    style="stroke: #ecd264; fill: none" />
<path d="M 208.7365440327094069 303.0796897832170267,   203.0796897832170267 308.7365440327094069"    style="stroke: #ecd264; fill: none" />
<path d="M 209.4436508138959545 303.7867965644035743,   203.7867965644035743 309.4436508138959545"    style="stroke: #ecd264; fill: none" />
<path d="M 209.4436508138959545 305.2010101267766693,   205.2010101267766693 309.4436508138959545"    style="stroke: #ecd264; fill: none" />
<path d="M 210.150757595082502 305.9081169079632168,   205.9081169079632168 310.150757595082502"    style="stroke: #ecd264; fill: none" />
<path d="M 210.1507575950825019 307.3223304703363119,   207.3223304703363119 310.1507575950825019"    style="stroke: #ecd264; fill: none" />
<path d="M 210.8578643762690495 308.0294372515228595,   208.0294372515228595 310.8578643762690495"    style="stroke: #ecd264; fill: none" />
<path d="M 210.8578643762690495 309.4436508138959545,   209.4436508138959545 310.8578643762690495"    style="stroke: #ecd264; fill: none" />
<path d="M 211.564971157455597 310.150757595082502,   210.150757595082502 311.564971157455597"    style="stroke: #ecd264; fill: none" />

<path d="M 310.8578643762690495 239.1421356237309505,    239.1421356237309505 310.8578643762690495"
          style="stroke: #ecd264; fill: none" />
<path d="M 249.0416305603426158 308.0294372515228594,   241.9705627484771406 300.9583694396573842"    style="stroke: #ecd264; fill: none" />
<path d="M 248.3345237791560683 308.7365440327094069,   241.2634559672905931 301.6654762208439317"    style="stroke: #ecd264; fill: none" />
<path d="M 246.9203102167829733 308.7365440327094069,   241.2634559672905931 303.0796897832170267"    style="stroke: #ecd264; fill: none" />
<path d="M 246.2132034355964257 309.4436508138959545,   240.5563491861040455 303.7867965644035743"    style="stroke: #ecd264; fill: none" />
<path d="M 244.7989898732233307 309.4436508138959545,   240.5563491861040455 305.2010101267766693"    style="stroke: #ecd264; fill: none" />
<path d="M 244.0918830920367832 310.150757595082502,   239.849242404917498 305.9081169079632168"    style="stroke: #ecd264; fill: none" />
<path d="M 242.6776695296636881 310.1507575950825019,   239.8492424049174981 307.3223304703363119"    style="stroke: #ecd264; fill: none" />
<path d="M 241.9705627484771405 310.8578643762690495,   239.1421356237309505 308.0294372515228595"    style="stroke: #ecd264; fill: none" />
<path d="M 240.5563491861040455 310.8578643762690495,   239.1421356237309505 309.4436508138959545"    style="stroke: #ecd264; fill: none" />
<path d="M 239.849242404917498 311.564971157455597,   238.435028842544403 310.150757595082502"    style="stroke: #ecd264; fill: none" />

<path d="M 225 145,    225 305"
          style="stroke: #ecd264; fill: none" />
<path d="M 230 296,   220 296"    style="stroke: #ecd264; fill: none" />
<path d="M 230 297,   220 297"    style="stroke: #ecd264; fill: none" />
<path d="M 229 298,   221 298"    style="stroke: #ecd264; fill: none" />
<path d="M 229 299,   221 299"    style="stroke: #ecd264; fill: none" />
<path d="M 228 300,   222 300"    style="stroke: #ecd264; fill: none" />
<path d="M 228 301,   222 301"    style="stroke: #ecd264; fill: none" />
<path d="M 227 302,   223 302"    style="stroke: #ecd264; fill: none" />
<path d="M 227 303,   223 303"    style="stroke: #ecd264; fill: none" />
<path d="M 226 304,   224 304"    style="stroke: #ecd264; fill: none" />
<path d="M 226 305,   224 305"    style="stroke: #ecd264; fill: none" />

<path d="M 225 345,    225 405"
          style="stroke: #ecd264; fill: none" />
<path d="M 230 396,   220 396"    style="stroke: #ecd264; fill: none" />
<path d="M 230 397,   220 397"    style="stroke: #ecd264; fill: none" />
<path d="M 229 398,   221 398"    style="stroke: #ecd264; fill: none" />
<path d="M 229 399,   221 399"    style="stroke: #ecd264; fill: none" />
<path d="M 228 400,   222 400"    style="stroke: #ecd264; fill: none" />
<path d="M 228 401,   222 401"    style="stroke: #ecd264; fill: none" />
<path d="M 227 402,   223 402"    style="stroke: #ecd264; fill: none" />
<path d="M 227 403,   223 403"    style="stroke: #ecd264; fill: none" />
<path d="M 226 404,   224 404"    style="stroke: #ecd264; fill: none" />
<path d="M 226 405,   224 405"    style="stroke: #ecd264; fill: none" />

<path d="M 225 445,    225 505"
          style="stroke: #ecd264; fill: none" />
<path d="M 230 496,   220 496"    style="stroke: #ecd264; fill: none" />
<path d="M 230 497,   220 497"    style="stroke: #ecd264; fill: none" />
<path d="M 229 498,   221 498"    style="stroke: #ecd264; fill: none" />
<path d="M 229 499,   221 499"    style="stroke: #ecd264; fill: none" />
<path d="M 228 500,   222 500"    style="stroke: #ecd264; fill: none" />
<path d="M 228 501,   222 501"    style="stroke: #ecd264; fill: none" />
<path d="M 227 502,   223 502"    style="stroke: #ecd264; fill: none" />
<path d="M 227 503,   223 503"    style="stroke: #ecd264; fill: none" />
<path d="M 226 504,   224 504"    style="stroke: #ecd264; fill: none" />
<path d="M 226 505,   224 505"    style="stroke: #ecd264; fill: none" />

<path d="M 225 545,    225 605"
          style="stroke: #ecd264; fill: none" />
<path d="M 230 596,   220 596"    style="stroke: #ecd264; fill: none" />
<path d="M 230 597,   220 597"    style="stroke: #ecd264; fill: none" />
<path d="M 229 598,   221 598"    style="stroke: #ecd264; fill: none" />
<path d="M 229 599,   221 599"    style="stroke: #ecd264; fill: none" />
<path d="M 228 600,   222 600"    style="stroke: #ecd264; fill: none" />
<path d="M 228 601,   222 601"    style="stroke: #ecd264; fill: none" />
<path d="M 227 602,   223 602"    style="stroke: #ecd264; fill: none" />
<path d="M 227 603,   223 603"    style="stroke: #ecd264; fill: none" />
<path d="M 226 604,   224 604"    style="stroke: #ecd264; fill: none" />
<path d="M 226 605,   224 605"    style="stroke: #ecd264; fill: none" />

<path d="M 245 525,    305 525"
          style="stroke: #ecd264; fill: none" />
<path d="M 296 520,   296 530"    style="stroke: #ecd264; fill: none" />
<path d="M 297 520,   297 530"    style="stroke: #ecd264; fill: none" />
<path d="M 298 521,   298 529"    style="stroke: #ecd264; fill: none" />
<path d="M 299 521,   299 529"    style="stroke: #ecd264; fill: none" />
<path d="M 300 522,   300 528"    style="stroke: #ecd264; fill: none" />
<path d="M 301 522,   301 528"    style="stroke: #ecd264; fill: none" />
<path d="M 302 523,   302 527"    style="stroke: #ecd264; fill: none" />
<path d="M 303 523,   303 527"    style="stroke: #ecd264; fill: none" />
<path d="M 304 524,   304 526"    style="stroke: #ecd264; fill: none" />
<path d="M 305 524,   305 526"    style="stroke: #ecd264; fill: none" />

<path d="M 245 25,    370 25,
         370 325,
         245 325"
          style="stroke: #ecd264; fill: none" />
<path d="M 254 330,   254 320"    style="stroke: #ecd264; fill: none" />
<path d="M 253 330,   253 320"    style="stroke: #ecd264; fill: none" />
<path d="M 252 329,   252 321"    style="stroke: #ecd264; fill: none" />
<path d="M 251 329,   251 321"    style="stroke: #ecd264; fill: none" />
<path d="M 250 328,   250 322"    style="stroke: #ecd264; fill: none" />
<path d="M 249 328,   249 322"    style="stroke: #ecd264; fill: none" />
<path d="M 248 327,   248 323"    style="stroke: #ecd264; fill: none" />
<path d="M 247 327,   247 323"    style="stroke: #ecd264; fill: none" />
<path d="M 246 326,   246 324"    style="stroke: #ecd264; fill: none" />
<path d="M 245 326,   245 324"    style="stroke: #ecd264; fill: none" />

<path d="M 205 525,    50 525,
         50 125,
         205 125"
          style="stroke: #ecd264; fill: none" />
<path d="M 196 120,   196 130"    style="stroke: #ecd264; fill: none" />
<path d="M 197 120,   197 130"    style="stroke: #ecd264; fill: none" />
<path d="M 198 121,   198 129"    style="stroke: #ecd264; fill: none" />
<path d="M 199 121,   199 129"    style="stroke: #ecd264; fill: none" />
<path d="M 200 122,   200 128"    style="stroke: #ecd264; fill: none" />
<path d="M 201 122,   201 128"    style="stroke: #ecd264; fill: none" />
<path d="M 202 123,   202 127"    style="stroke: #ecd264; fill: none" />
<path d="M 203 123,   203 127"    style="stroke: #ecd264; fill: none" />
<path d="M 204 124,   204 126"    style="stroke: #ecd264; fill: none" />
<path d="M 205 124,   205 126"    style="stroke: #ecd264; fill: none" />

<text x="270" y="165" style="stroke: #ecd264; fill: #ecd264; font-size:12pt;  text-anchor: left">*</text>

<text x="145" y="165" style="stroke: #ecd264; fill: #ecd264; font-size:12pt; text-decoration: underline;  text-anchor: left">expr</text>

<text x="230" y="230" style="stroke: #ecd264; fill: #ecd264; font-size:12pt; text-decoration: underline;  text-anchor: left">format</text>

<rect x="135" y="270" width="30" height="30"
  style="fill: none; stroke: #ecd264" />
<text x="150" y="290" style="stroke: #ecd264; fill: #ecd264; font-size:12pt;  text-anchor: middle">1</text>

<text x="300" y="260" style="stroke: #ecd264; fill: #ecd264; font-size:12pt; text-decoration: underline;  text-anchor: left">intexpr</text>

<rect x="285" y="270" width="30" height="30"
  style="fill: none; stroke: #ecd264" />
<text x="300" y="290" style="stroke: #ecd264; fill: #ecd264; font-size:12pt;  text-anchor: middle">2</text>

<text x="240" y="370" style="stroke: #ecd264; fill: #ecd264; font-size:12pt; text-decoration: underline;  text-anchor: left">comend</text>

<text x="270" y="520" style="stroke: #ecd264; fill: #ecd264; font-size:12pt;  text-anchor: left">Y</text>

<text x="180" y="520" style="stroke: #ecd264; fill: #ecd264; font-size:12pt;  text-anchor: left">Z</text>

<text x="240" y="550" style="stroke: #ecd264; fill: #ecd264; font-size:12pt;  text-anchor: left">X</text>



</svg>
