<?xml version="1.0" standalone="no"?>

<!DOCTYPE svg PUBLIC "-//W3C//DTD SVG 1.1//EN" 
"http://www.w3.org/Graphics/SVG/1.1/DTD/svg11.dtd">

<svg width="400" height="650" version="1.1"
     xmlns="http://www.w3.org/2000/svg">
<title>Transition Diagram for trans_routine</title>
<rect x="0" y="0" width="400" height="650" style="fill: #4c76ac; stroke: #4c76ac" />

<circle cx="100" cy="25" r="20" style="stroke: #ecd264; fill: none" />
<text x="100" y="30" style="stroke: #ecd264; fill: #ecd264; font-size:12pt;  text-anchor: middle">E</text>

<circle cx="100" cy="125" r="20" style="stroke: #ecd264; fill: none" />

<circle cx="100" cy="225" r="20" style="stroke: #ecd264; fill: none" />

<circle cx="100" cy="325" r="20" style="stroke: #ecd264; fill: none" />

<path d="M 100 370,
       138.9711431702997391 392.5,
       138.9711431702997391 437.5,
       100 460,
       61.0288568297002609 437.5,
       61.0288568297002609 392.5,
       100 370"
     style="stroke: #ecd264; fill: none" />
<text x="100" y="420" style="stroke: #ecd264; fill: #ecd264; font-size:12pt;  text-anchor: middle">Indsw>0</text>

<path d="M 100 490,
       138.9711431702997391 512.5,
       138.9711431702997391 557.5,
       100 580,
       61.0288568297002609 557.5,
       61.0288568297002609 512.5,
       100 490"
     style="stroke: #ecd264; fill: none" />
<text x="100" y="540" style="stroke: #ecd264; fill: #ecd264; font-size:12pt;  text-anchor: middle">Dosw>0</text>

<circle cx="100" cy="625" r="20" style="stroke: #ecd264; fill: none" />
<text x="100" y="630" style="stroke: #ecd264; fill: #ecd264; font-size:12pt;  text-anchor: middle">X</text>

<path d="M 70 38.45299461620748471,  50 73.09401076758503058,  30 38.45299461620748471,  70 38.45299461620748471"
     style="stroke: #ecd264; fill: none" />
<text x="50" y="55" style="stroke: #ecd264; fill: #ecd264; font-size:12pt;  text-anchor: middle">1</text>

<path d="M 100 45,    100 105"
          style="stroke: #ecd264; fill: none" />
<path d="M 105 96,   95 96"    style="stroke: #ecd264; fill: none" />
<path d="M 105 97,   95 97"    style="stroke: #ecd264; fill: none" />
<path d="M 104 98,   96 98"    style="stroke: #ecd264; fill: none" />
<path d="M 104 99,   96 99"    style="stroke: #ecd264; fill: none" />
<path d="M 103 100,   97 100"    style="stroke: #ecd264; fill: none" />
<path d="M 103 101,   97 101"    style="stroke: #ecd264; fill: none" />
<path d="M 102 102,   98 102"    style="stroke: #ecd264; fill: none" />
<path d="M 102 103,   98 103"    style="stroke: #ecd264; fill: none" />
<path d="M 101 104,   99 104"    style="stroke: #ecd264; fill: none" />
<path d="M 101 105,   99 105"    style="stroke: #ecd264; fill: none" />

<path d="M 100 145,    100 205"
          style="stroke: #ecd264; fill: none" />
<path d="M 105 196,   95 196"    style="stroke: #ecd264; fill: none" />
<path d="M 105 197,   95 197"    style="stroke: #ecd264; fill: none" />
<path d="M 104 198,   96 198"    style="stroke: #ecd264; fill: none" />
<path d="M 104 199,   96 199"    style="stroke: #ecd264; fill: none" />
<path d="M 103 200,   97 200"    style="stroke: #ecd264; fill: none" />
<path d="M 103 201,   97 201"    style="stroke: #ecd264; fill: none" />
<path d="M 102 202,   98 202"    style="stroke: #ecd264; fill: none" />
<path d="M 102 203,   98 203"    style="stroke: #ecd264; fill: none" />
<path d="M 101 204,   99 204"    style="stroke: #ecd264; fill: none" />
<path d="M 101 205,   99 205"    style="stroke: #ecd264; fill: none" />

<path d="M 100 245,    100 305"
          style="stroke: #ecd264; fill: none" />
<path d="M 105 296,   95 296"    style="stroke: #ecd264; fill: none" />
<path d="M 105 297,   95 297"    style="stroke: #ecd264; fill: none" />
<path d="M 104 298,   96 298"    style="stroke: #ecd264; fill: none" />
<path d="M 104 299,   96 299"    style="stroke: #ecd264; fill: none" />
<path d="M 103 300,   97 300"    style="stroke: #ecd264; fill: none" />
<path d="M 103 301,   97 301"    style="stroke: #ecd264; fill: none" />
<path d="M 102 302,   98 302"    style="stroke: #ecd264; fill: none" />
<path d="M 102 303,   98 303"    style="stroke: #ecd264; fill: none" />
<path d="M 101 304,   99 304"    style="stroke: #ecd264; fill: none" />
<path d="M 101 305,   99 305"    style="stroke: #ecd264; fill: none" />

<path d="M 100 345,    100 370"
          style="stroke: #ecd264; fill: none" />
<path d="M 105 361,   95 361"    style="stroke: #ecd264; fill: none" />
<path d="M 105 362,   95 362"    style="stroke: #ecd264; fill: none" />
<path d="M 104 363,   96 363"    style="stroke: #ecd264; fill: none" />
<path d="M 104 364,   96 364"    style="stroke: #ecd264; fill: none" />
<path d="M 103 365,   97 365"    style="stroke: #ecd264; fill: none" />
<path d="M 103 366,   97 366"    style="stroke: #ecd264; fill: none" />
<path d="M 102 367,   98 367"    style="stroke: #ecd264; fill: none" />
<path d="M 102 368,   98 368"    style="stroke: #ecd264; fill: none" />
<path d="M 101 369,   99 369"    style="stroke: #ecd264; fill: none" />
<path d="M 101 370,   99 370"    style="stroke: #ecd264; fill: none" />

<path d="M 100 460,    100 490"
          style="stroke: #ecd264; fill: none" />
<path d="M 105 481,   95 481"    style="stroke: #ecd264; fill: none" />
<path d="M 105 482,   95 482"    style="stroke: #ecd264; fill: none" />
<path d="M 104 483,   96 483"    style="stroke: #ecd264; fill: none" />
<path d="M 104 484,   96 484"    style="stroke: #ecd264; fill: none" />
<path d="M 103 485,   97 485"    style="stroke: #ecd264; fill: none" />
<path d="M 103 486,   97 486"    style="stroke: #ecd264; fill: none" />
<path d="M 102 487,   98 487"    style="stroke: #ecd264; fill: none" />
<path d="M 102 488,   98 488"    style="stroke: #ecd264; fill: none" />
<path d="M 101 489,   99 489"    style="stroke: #ecd264; fill: none" />
<path d="M 101 490,   99 490"    style="stroke: #ecd264; fill: none" />

<path d="M 100 580,    100 605"
          style="stroke: #ecd264; fill: none" />
<path d="M 105 596,   95 596"    style="stroke: #ecd264; fill: none" />
<path d="M 105 597,   95 597"    style="stroke: #ecd264; fill: none" />
<path d="M 104 598,   96 598"    style="stroke: #ecd264; fill: none" />
<path d="M 104 599,   96 599"    style="stroke: #ecd264; fill: none" />
<path d="M 103 600,   97 600"    style="stroke: #ecd264; fill: none" />
<path d="M 103 601,   97 601"    style="stroke: #ecd264; fill: none" />
<path d="M 102 602,   98 602"    style="stroke: #ecd264; fill: none" />
<path d="M 102 603,   98 603"    style="stroke: #ecd264; fill: none" />
<path d="M 101 604,   99 604"    style="stroke: #ecd264; fill: none" />
<path d="M 101 605,   99 605"    style="stroke: #ecd264; fill: none" />

<path d="M 82.1114561800016824 216.0557280900008412,    50 200,
         50 150,
         82.1114561800016824 133.9442719099991588"
          style="stroke: #ecd264; fill: none" />
<path d="M 71.8255434835026498 133.4970583144992008,   76.2976794385022292 142.4413302244983596"    style="stroke: #ecd264; fill: none" />
<path d="M 72.7199706745025657 133.0498447189992429,   77.1921066295021451 141.9941166289984017"    style="stroke: #ecd264; fill: none" />
<path d="M 74.06161146100243954 133.4970583144992009,   77.63932022500210306 140.6524758424985279"    style="stroke: #ecd264; fill: none" />
<path d="M 74.95603865200235544 133.0498447189992429,   78.53374741600201896 140.2052622469985699"    style="stroke: #ecd264; fill: none" />
<path d="M 76.29767943850222918 133.4970583144992009,   78.98096101150197682 138.8636214604986961"    style="stroke: #ecd264; fill: none" />
<path d="M 77.19210662950214508 133.0498447189992429,   79.87538820250189272 138.4164078649987381"    style="stroke: #ecd264; fill: none" />
<path d="M 78.53374741600201892 133.4970583144992008,   80.32260179800185068 137.0747670784988644"    style="stroke: #ecd264; fill: none" />
<path d="M 79.42817460700193482 133.0498447189992429,   81.21702898900176658 136.6275534829989065"    style="stroke: #ecd264; fill: none" />
<path d="M 80.76981539350180856 133.4970583144992008,   81.66424258450172444 135.2859126964990326"    style="stroke: #ecd264; fill: none" />
<path d="M 81.66424258450172446 133.0498447189992429,   82.55866977550164034 134.8386991009990747"    style="stroke: #ecd264; fill: none" />

<path d="M 50 70,    50 100,
         82.1114561800016824 116.0557280900008412"
          style="stroke: #ecd264; fill: none" />
<path d="M 76.2976794385022292 107.5586697755016404,   71.8255434835026498 116.5029416855007992"    style="stroke: #ecd264; fill: none" />
<path d="M 77.1921066295021451 108.0058833710015983,   72.7199706745025657 116.9501552810007571"    style="stroke: #ecd264; fill: none" />
<path d="M 77.63932022500210306 109.3475241575014721,   74.06161146100243954 116.5029416855007991"    style="stroke: #ecd264; fill: none" />
<path d="M 78.53374741600201896 109.7947377530014301,   74.95603865200235544 116.9501552810007571"    style="stroke: #ecd264; fill: none" />
<path d="M 78.98096101150197682 111.1363785395013039,   76.29767943850222918 116.5029416855007991"    style="stroke: #ecd264; fill: none" />
<path d="M 79.87538820250189272 111.5835921350012619,   77.19210662950214508 116.9501552810007571"    style="stroke: #ecd264; fill: none" />
<path d="M 80.32260179800185068 112.9252329215011356,   78.53374741600201892 116.5029416855007992"    style="stroke: #ecd264; fill: none" />
<path d="M 81.21702898900176658 113.3724465170010935,   79.42817460700193482 116.9501552810007571"    style="stroke: #ecd264; fill: none" />
<path d="M 81.66424258450172444 114.7140873035009674,   80.76981539350180856 116.5029416855007992"    style="stroke: #ecd264; fill: none" />
<path d="M 82.55866977550164034 115.1613008990009253,   81.66424258450172446 116.9501552810007571"    style="stroke: #ecd264; fill: none" />

<text x="5" y="180" style="stroke: #ecd264; fill: #ecd264; font-size:12pt; text-decoration: underline;  text-anchor: left">line</text>

<text x="110" y="70" style="stroke: #ecd264; fill: #ecd264; font-size:12pt; text-decoration: underline;  text-anchor: left">line</text>

<text x="110" y="270" style="stroke: #ecd264; fill: #ecd264; font-size:12pt; text-decoration: underline;  text-anchor: left">eor</text>

<rect x="150" y="380" width="30" height="30"
  style="fill: none; stroke: #ecd264" />
<text x="165" y="400" style="stroke: #ecd264; fill: #ecd264; font-size:12pt;  text-anchor: middle">1</text>

<rect x="150" y="500" width="30" height="30"
  style="fill: none; stroke: #ecd264" />
<text x="165" y="520" style="stroke: #ecd264; fill: #ecd264; font-size:12pt;  text-anchor: middle">2</text>

<rect x="120" y="575" width="30" height="30"
  style="fill: none; stroke: #ecd264" />
<text x="135" y="595" style="stroke: #ecd264; fill: #ecd264; font-size:12pt;  text-anchor: middle">3</text>

<path d="M 208.4529946162074847 395,  243.0940107675850306 415,  208.4529946162074847 435,  208.4529946162074847 395"
     style="stroke: #ecd264; fill: none" />
<text x="220" y="420" style="stroke: #ecd264; fill: #ecd264; font-size:12pt;  text-anchor: middle">1</text>

<path d="M 208.4529946162074847 515,  243.0940107675850306 535,  208.4529946162074847 555,  208.4529946162074847 515"
     style="stroke: #ecd264; fill: none" />
<text x="220" y="540" style="stroke: #ecd264; fill: #ecd264; font-size:12pt;  text-anchor: middle">1</text>

<path d="M 140 415,    205 415"
          style="stroke: #ecd264; fill: none" />
<path d="M 196 410,   196 420"    style="stroke: #ecd264; fill: none" />
<path d="M 197 410,   197 420"    style="stroke: #ecd264; fill: none" />
<path d="M 198 411,   198 419"    style="stroke: #ecd264; fill: none" />
<path d="M 199 411,   199 419"    style="stroke: #ecd264; fill: none" />
<path d="M 200 412,   200 418"    style="stroke: #ecd264; fill: none" />
<path d="M 201 412,   201 418"    style="stroke: #ecd264; fill: none" />
<path d="M 202 413,   202 417"    style="stroke: #ecd264; fill: none" />
<path d="M 203 413,   203 417"    style="stroke: #ecd264; fill: none" />
<path d="M 204 414,   204 416"    style="stroke: #ecd264; fill: none" />
<path d="M 205 414,   205 416"    style="stroke: #ecd264; fill: none" />

<path d="M 140 535,    205 535"
          style="stroke: #ecd264; fill: none" />
<path d="M 196 530,   196 540"    style="stroke: #ecd264; fill: none" />
<path d="M 197 530,   197 540"    style="stroke: #ecd264; fill: none" />
<path d="M 198 531,   198 539"    style="stroke: #ecd264; fill: none" />
<path d="M 199 531,   199 539"    style="stroke: #ecd264; fill: none" />
<path d="M 200 532,   200 538"    style="stroke: #ecd264; fill: none" />
<path d="M 201 532,   201 538"    style="stroke: #ecd264; fill: none" />
<path d="M 202 533,   202 537"    style="stroke: #ecd264; fill: none" />
<path d="M 203 533,   203 537"    style="stroke: #ecd264; fill: none" />
<path d="M 204 534,   204 536"    style="stroke: #ecd264; fill: none" />
<path d="M 205 534,   205 536"    style="stroke: #ecd264; fill: none" />

<text x="245" y="420" style="stroke: #ecd264; fill: #ecd264; font-size:12pt;  text-anchor: left">XECUTE command</text>

<text x="245" y="540" style="stroke: #ecd264; fill: #ecd264; font-size:12pt;  text-anchor: left">DO command</text>



</svg>
