<?xml version="1.0" standalone="no"?>

<!DOCTYPE svg PUBLIC "-//W3C//DTD SVG 1.1//EN" 
"http://www.w3.org/Graphics/SVG/1.1/DTD/svg11.dtd">

<svg width="280" height="650" version="1.1"
     xmlns="http://www.w3.org/2000/svg">
<title>Transition Diagram for trans_indnam</title>
<rect x="0" y="0" width="280" height="650" style="fill: #4c76ac; stroke: #4c76ac" />

<circle cx="125" cy="25" r="20" style="stroke: #ecd264; fill: none" />
<text x="125" y="30" style="stroke: #ecd264; fill: #ecd264; font-size:12pt;  text-anchor: middle">E</text>

<path d="M 125 95,
       150.9807621135331594 110,
       150.9807621135331594 140,
       125 155,
       99.0192378864668406 140,
       99.0192378864668406 110,
       125 95"
     style="stroke: #ecd264; fill: none" />
<text x="125" y="130" style="stroke: #ecd264; fill: #ecd264; font-size:12pt;  text-anchor: middle">Indcom</text>

<circle cx="125" cy="225" r="20" style="stroke: #ecd264; fill: none" />

<circle cx="125" cy="325" r="20" style="stroke: #ecd264; fill: none" />

<circle cx="125" cy="425" r="20" style="stroke: #ecd264; fill: none" />

<path d="M 125 485,
       159.6410161513775459 505,
       159.6410161513775459 545,
       125 565,
       90.3589838486224541 545,
       90.3589838486224541 505,
       125 485"
     style="stroke: #ecd264; fill: none" />
<text x="125" y="510" style="stroke: #ecd264; fill: #ecd264; font-size:12pt;  text-anchor: middle">Linact</text>

<text x="125" y="530" style="stroke: #ecd264; fill: #ecd264; font-size:12pt;  text-anchor: middle">AND</text>

<text x="125" y="550" style="stroke: #ecd264; fill: #ecd264; font-size:12pt;  text-anchor: middle">Comact</text>

<circle cx="125" cy="625" r="20" style="stroke: #ecd264; fill: none" />
<text x="125" y="630" style="stroke: #ecd264; fill: #ecd264; font-size:12pt;  text-anchor: middle">W</text>

<circle cx="225" cy="525" r="20" style="stroke: #ecd264; fill: none" />

<circle cx="225" cy="625" r="20" style="stroke: #ecd264; fill: none" />
<text x="225" y="630" style="stroke: #ecd264; fill: #ecd264; font-size:12pt;  text-anchor: middle">X</text>

<path d="M 125 45,    125 95"
          style="stroke: #ecd264; fill: none" />
<path d="M 130 86,   120 86"    style="stroke: #ecd264; fill: none" />
<path d="M 130 87,   120 87"    style="stroke: #ecd264; fill: none" />
<path d="M 129 88,   121 88"    style="stroke: #ecd264; fill: none" />
<path d="M 129 89,   121 89"    style="stroke: #ecd264; fill: none" />
<path d="M 128 90,   122 90"    style="stroke: #ecd264; fill: none" />
<path d="M 128 91,   122 91"    style="stroke: #ecd264; fill: none" />
<path d="M 127 92,   123 92"    style="stroke: #ecd264; fill: none" />
<path d="M 127 93,   123 93"    style="stroke: #ecd264; fill: none" />
<path d="M 126 94,   124 94"    style="stroke: #ecd264; fill: none" />
<path d="M 126 95,   124 95"    style="stroke: #ecd264; fill: none" />

<path d="M 125 155,    125 205"
          style="stroke: #ecd264; fill: none" />
<path d="M 130 196,   120 196"    style="stroke: #ecd264; fill: none" />
<path d="M 130 197,   120 197"    style="stroke: #ecd264; fill: none" />
<path d="M 129 198,   121 198"    style="stroke: #ecd264; fill: none" />
<path d="M 129 199,   121 199"    style="stroke: #ecd264; fill: none" />
<path d="M 128 200,   122 200"    style="stroke: #ecd264; fill: none" />
<path d="M 128 201,   122 201"    style="stroke: #ecd264; fill: none" />
<path d="M 127 202,   123 202"    style="stroke: #ecd264; fill: none" />
<path d="M 127 203,   123 203"    style="stroke: #ecd264; fill: none" />
<path d="M 126 204,   124 204"    style="stroke: #ecd264; fill: none" />
<path d="M 126 205,   124 205"    style="stroke: #ecd264; fill: none" />

<path d="M 125 245,    125 305"
          style="stroke: #ecd264; fill: none" />
<path d="M 130 296,   120 296"    style="stroke: #ecd264; fill: none" />
<path d="M 130 297,   120 297"    style="stroke: #ecd264; fill: none" />
<path d="M 129 298,   121 298"    style="stroke: #ecd264; fill: none" />
<path d="M 129 299,   121 299"    style="stroke: #ecd264; fill: none" />
<path d="M 128 300,   122 300"    style="stroke: #ecd264; fill: none" />
<path d="M 128 301,   122 301"    style="stroke: #ecd264; fill: none" />
<path d="M 127 302,   123 302"    style="stroke: #ecd264; fill: none" />
<path d="M 127 303,   123 303"    style="stroke: #ecd264; fill: none" />
<path d="M 126 304,   124 304"    style="stroke: #ecd264; fill: none" />
<path d="M 126 305,   124 305"    style="stroke: #ecd264; fill: none" />

<path d="M 125 345,    125 405"
          style="stroke: #ecd264; fill: none" />
<path d="M 130 396,   120 396"    style="stroke: #ecd264; fill: none" />
<path d="M 130 397,   120 397"    style="stroke: #ecd264; fill: none" />
<path d="M 129 398,   121 398"    style="stroke: #ecd264; fill: none" />
<path d="M 129 399,   121 399"    style="stroke: #ecd264; fill: none" />
<path d="M 128 400,   122 400"    style="stroke: #ecd264; fill: none" />
<path d="M 128 401,   122 401"    style="stroke: #ecd264; fill: none" />
<path d="M 127 402,   123 402"    style="stroke: #ecd264; fill: none" />
<path d="M 127 403,   123 403"    style="stroke: #ecd264; fill: none" />
<path d="M 126 404,   124 404"    style="stroke: #ecd264; fill: none" />
<path d="M 126 405,   124 405"    style="stroke: #ecd264; fill: none" />

<path d="M 125 445,    125 485"
          style="stroke: #ecd264; fill: none" />
<path d="M 130 476,   120 476"    style="stroke: #ecd264; fill: none" />
<path d="M 130 477,   120 477"    style="stroke: #ecd264; fill: none" />
<path d="M 129 478,   121 478"    style="stroke: #ecd264; fill: none" />
<path d="M 129 479,   121 479"    style="stroke: #ecd264; fill: none" />
<path d="M 128 480,   122 480"    style="stroke: #ecd264; fill: none" />
<path d="M 128 481,   122 481"    style="stroke: #ecd264; fill: none" />
<path d="M 127 482,   123 482"    style="stroke: #ecd264; fill: none" />
<path d="M 127 483,   123 483"    style="stroke: #ecd264; fill: none" />
<path d="M 126 484,   124 484"    style="stroke: #ecd264; fill: none" />
<path d="M 126 485,   124 485"    style="stroke: #ecd264; fill: none" />

<path d="M 125 565,    125 605"
          style="stroke: #ecd264; fill: none" />
<path d="M 130 596,   120 596"    style="stroke: #ecd264; fill: none" />
<path d="M 130 597,   120 597"    style="stroke: #ecd264; fill: none" />
<path d="M 129 598,   121 598"    style="stroke: #ecd264; fill: none" />
<path d="M 129 599,   121 599"    style="stroke: #ecd264; fill: none" />
<path d="M 128 600,   122 600"    style="stroke: #ecd264; fill: none" />
<path d="M 128 601,   122 601"    style="stroke: #ecd264; fill: none" />
<path d="M 127 602,   123 602"    style="stroke: #ecd264; fill: none" />
<path d="M 127 603,   123 603"    style="stroke: #ecd264; fill: none" />
<path d="M 126 604,   124 604"    style="stroke: #ecd264; fill: none" />
<path d="M 126 605,   124 605"    style="stroke: #ecd264; fill: none" />

<path d="M 159 525,    205 525"
          style="stroke: #ecd264; fill: none" />
<path d="M 196 520,   196 530"    style="stroke: #ecd264; fill: none" />
<path d="M 197 520,   197 530"    style="stroke: #ecd264; fill: none" />
<path d="M 198 521,   198 529"    style="stroke: #ecd264; fill: none" />
<path d="M 199 521,   199 529"    style="stroke: #ecd264; fill: none" />
<path d="M 200 522,   200 528"    style="stroke: #ecd264; fill: none" />
<path d="M 201 522,   201 528"    style="stroke: #ecd264; fill: none" />
<path d="M 202 523,   202 527"    style="stroke: #ecd264; fill: none" />
<path d="M 203 523,   203 527"    style="stroke: #ecd264; fill: none" />
<path d="M 204 524,   204 526"    style="stroke: #ecd264; fill: none" />
<path d="M 205 524,   205 526"    style="stroke: #ecd264; fill: none" />

<path d="M 225 545,    225 605"
          style="stroke: #ecd264; fill: none" />
<path d="M 230 596,   220 596"    style="stroke: #ecd264; fill: none" />
<path d="M 230 597,   220 597"    style="stroke: #ecd264; fill: none" />
<path d="M 229 598,   221 598"    style="stroke: #ecd264; fill: none" />
<path d="M 229 599,   221 599"    style="stroke: #ecd264; fill: none" />
<path d="M 228 600,   222 600"    style="stroke: #ecd264; fill: none" />
<path d="M 228 601,   222 601"    style="stroke: #ecd264; fill: none" />
<path d="M 227 602,   223 602"    style="stroke: #ecd264; fill: none" />
<path d="M 227 603,   223 603"    style="stroke: #ecd264; fill: none" />
<path d="M 226 604,   224 604"    style="stroke: #ecd264; fill: none" />
<path d="M 226 605,   224 605"    style="stroke: #ecd264; fill: none" />

<path d="M 225 505,    225 325,
         145 325"
          style="stroke: #ecd264; fill: none" />
<path d="M 154 330,   154 320"    style="stroke: #ecd264; fill: none" />
<path d="M 153 330,   153 320"    style="stroke: #ecd264; fill: none" />
<path d="M 152 329,   152 321"    style="stroke: #ecd264; fill: none" />
<path d="M 151 329,   151 321"    style="stroke: #ecd264; fill: none" />
<path d="M 150 328,   150 322"    style="stroke: #ecd264; fill: none" />
<path d="M 149 328,   149 322"    style="stroke: #ecd264; fill: none" />
<path d="M 148 327,   148 323"    style="stroke: #ecd264; fill: none" />
<path d="M 147 327,   147 323"    style="stroke: #ecd264; fill: none" />
<path d="M 146 326,   146 324"    style="stroke: #ecd264; fill: none" />
<path d="M 145 326,   145 324"    style="stroke: #ecd264; fill: none" />

<path d="M 100 125,    50 125,
         50 625,
         105 625"
          style="stroke: #ecd264; fill: none" />
<path d="M 96 620,   96 630"    style="stroke: #ecd264; fill: none" />
<path d="M 97 620,   97 630"    style="stroke: #ecd264; fill: none" />
<path d="M 98 621,   98 629"    style="stroke: #ecd264; fill: none" />
<path d="M 99 621,   99 629"    style="stroke: #ecd264; fill: none" />
<path d="M 100 622,   100 628"    style="stroke: #ecd264; fill: none" />
<path d="M 101 622,   101 628"    style="stroke: #ecd264; fill: none" />
<path d="M 102 623,   102 627"    style="stroke: #ecd264; fill: none" />
<path d="M 103 623,   103 627"    style="stroke: #ecd264; fill: none" />
<path d="M 104 624,   104 626"    style="stroke: #ecd264; fill: none" />
<path d="M 105 624,   105 626"    style="stroke: #ecd264; fill: none" />

<text x="140" y="270" style="stroke: #ecd264; fill: #ecd264; font-size:12pt;  text-anchor: left">@</text>

<text x="140" y="360" style="stroke: #ecd264; fill: #ecd264; font-size:12pt; text-decoration: underline;  text-anchor: left">expratom</text>

<text x="240" y="430" style="stroke: #ecd264; fill: #ecd264; font-size:12pt;  text-anchor: left">@</text>

<rect x="5" y="325" width="30" height="30"
  style="fill: none; stroke: #ecd264" />
<text x="20" y="345" style="stroke: #ecd264; fill: #ecd264; font-size:12pt;  text-anchor: middle">2</text>

<circle cx="20" cy="340" r="15" style="stroke: #ecd264; fill: none" />

<rect x="165" y="490" width="30" height="30"
  style="fill: none; stroke: #ecd264" />
<text x="180" y="510" style="stroke: #ecd264; fill: #ecd264; font-size:12pt;  text-anchor: middle">1</text>



</svg>
