<?xml version="1.0" standalone="no"?>

<!DOCTYPE svg PUBLIC "-//W3C//DTD SVG 1.1//EN" 
"http://www.w3.org/Graphics/SVG/1.1/DTD/svg11.dtd">

<svg width="100" height="250" version="1.1"
     xmlns="http://www.w3.org/2000/svg">
<title>Transition Diagram for trans_next</title>
<rect x="0" y="0" width="100" height="250" style="fill: #4c76ac; stroke: #4c76ac" />

<circle cx="25" cy="25" r="20" style="stroke: #ecd264; fill: none" />
<text x="25" y="30" style="stroke: #ecd264; fill: #ecd264; font-size:12pt;  text-anchor: middle">E</text>

<circle cx="25" cy="125" r="20" style="stroke: #ecd264; fill: none" />

<circle cx="25" cy="225" r="20" style="stroke: #ecd264; fill: none" />
<text x="25" y="230" style="stroke: #ecd264; fill: #ecd264; font-size:12pt;  text-anchor: middle">X</text>

<path d="M 25 45,    25 105"
          style="stroke: #ecd264; fill: none" />
<path d="M 30 96,   20 96"    style="stroke: #ecd264; fill: none" />
<path d="M 30 97,   20 97"    style="stroke: #ecd264; fill: none" />
<path d="M 29 98,   21 98"    style="stroke: #ecd264; fill: none" />
<path d="M 29 99,   21 99"    style="stroke: #ecd264; fill: none" />
<path d="M 28 100,   22 100"    style="stroke: #ecd264; fill: none" />
<path d="M 28 101,   22 101"    style="stroke: #ecd264; fill: none" />
<path d="M 27 102,   23 102"    style="stroke: #ecd264; fill: none" />
<path d="M 27 103,   23 103"    style="stroke: #ecd264; fill: none" />
<path d="M 26 104,   24 104"    style="stroke: #ecd264; fill: none" />
<path d="M 26 105,   24 105"    style="stroke: #ecd264; fill: none" />

<path d="M 25 145,    25 205"
          style="stroke: #ecd264; fill: none" />
<path d="M 30 196,   20 196"    style="stroke: #ecd264; fill: none" />
<path d="M 30 197,   20 197"    style="stroke: #ecd264; fill: none" />
<path d="M 29 198,   21 198"    style="stroke: #ecd264; fill: none" />
<path d="M 29 199,   21 199"    style="stroke: #ecd264; fill: none" />
<path d="M 28 200,   22 200"    style="stroke: #ecd264; fill: none" />
<path d="M 28 201,   22 201"    style="stroke: #ecd264; fill: none" />
<path d="M 27 202,   23 202"    style="stroke: #ecd264; fill: none" />
<path d="M 27 203,   23 203"    style="stroke: #ecd264; fill: none" />
<path d="M 26 204,   24 204"    style="stroke: #ecd264; fill: none" />
<path d="M 26 205,   24 205"    style="stroke: #ecd264; fill: none" />

<text x="40" y="60" style="stroke: #ecd264; fill: #ecd264; font-size:12pt; text-decoration: underline;  text-anchor: left">glvn</text>

<rect x="40" y="70" width="30" height="30"
  style="fill: none; stroke: #ecd264" />
<text x="55" y="90" style="stroke: #ecd264; fill: #ecd264; font-size:12pt;  text-anchor: middle">1</text>

<text x="40" y="160" style="stroke: #ecd264; fill: #ecd264; font-size:12pt;  text-anchor: left">)</text>

<rect x="40" y="170" width="30" height="30"
  style="fill: none; stroke: #ecd264" />
<text x="55" y="190" style="stroke: #ecd264; fill: #ecd264; font-size:12pt;  text-anchor: middle">2</text>



</svg>
