<?xml version="1.0" standalone="no"?>

<!DOCTYPE svg PUBLIC "-//W3C//DTD SVG 1.1//EN" 
"http://www.w3.org/Graphics/SVG/1.1/DTD/svg11.dtd">

<svg width="255" height="350" version="1.1"
     xmlns="http://www.w3.org/2000/svg">
<title>Transition Diagram for trans_name</title>
<rect x="0" y="0" width="255" height="350" style="fill: #4c76ac; stroke: #4c76ac" />

<circle cx="125" cy="25" r="20" style="stroke: #ecd264; fill: none" />
<text x="125" y="30" style="stroke: #ecd264; fill: #ecd264; font-size:12pt;  text-anchor: middle">E</text>

<circle cx="25" cy="125" r="20" style="stroke: #ecd264; fill: none" />

<circle cx="225" cy="125" r="20" style="stroke: #ecd264; fill: none" />

<circle cx="125" cy="225" r="20" style="stroke: #ecd264; fill: none" />

<circle cx="125" cy="325" r="20" style="stroke: #ecd264; fill: none" />
<text x="125" y="330" style="stroke: #ecd264; fill: #ecd264; font-size:12pt;  text-anchor: middle">X</text>

<path d="M 110.8578643762690495 39.14213562373095049,    39.14213562373095049 110.8578643762690495"
          style="stroke: #ecd264; fill: none" />
<path d="M 49.04163056034261583 108.0294372515228594,   41.97056274847714059 100.9583694396573842"    style="stroke: #ecd264; fill: none" />
<path d="M 48.33452377915606831 108.7365440327094069,   41.26345596729059307 101.6654762208439317"    style="stroke: #ecd264; fill: none" />
<path d="M 46.92031021678297326 108.7365440327094069,   41.26345596729059306 103.0796897832170267"    style="stroke: #ecd264; fill: none" />
<path d="M 46.21320343559642574 109.4436508138959545,   40.55634918610404554 103.7867965644035743"    style="stroke: #ecd264; fill: none" />
<path d="M 44.79898987322333068 109.4436508138959545,   40.55634918610404554 105.2010101267766693"    style="stroke: #ecd264; fill: none" />
<path d="M 44.09188309203678316 110.150757595082502,   39.84924240491749802 105.9081169079632168"    style="stroke: #ecd264; fill: none" />
<path d="M 42.67766952966368811 110.1507575950825019,   39.84924240491749801 107.3223304703363119"    style="stroke: #ecd264; fill: none" />
<path d="M 41.97056274847714059 110.8578643762690495,   39.14213562373095049 108.0294372515228595"    style="stroke: #ecd264; fill: none" />
<path d="M 40.55634918610404553 110.8578643762690495,   39.14213562373095049 109.4436508138959545"    style="stroke: #ecd264; fill: none" />
<path d="M 39.84924240491749801 111.564971157455597,   38.43502884254440297 110.150757595082502"    style="stroke: #ecd264; fill: none" />

<path d="M 139.1421356237309505 39.14213562373095049,    210.8578643762690495 110.8578643762690495"
          style="stroke: #ecd264; fill: none" />
<path d="M 208.0294372515228594 100.9583694396573842,   200.9583694396573842 108.0294372515228594"    style="stroke: #ecd264; fill: none" />
<path d="M 208.7365440327094069 101.6654762208439317,   201.6654762208439317 108.7365440327094069"    style="stroke: #ecd264; fill: none" />
<path d="M 208.7365440327094069 103.0796897832170267,   203.0796897832170267 108.7365440327094069"    style="stroke: #ecd264; fill: none" />
<path d="M 209.4436508138959545 103.7867965644035743,   203.7867965644035743 109.4436508138959545"    style="stroke: #ecd264; fill: none" />
<path d="M 209.4436508138959545 105.2010101267766693,   205.2010101267766693 109.4436508138959545"    style="stroke: #ecd264; fill: none" />
<path d="M 210.150757595082502 105.9081169079632168,   205.9081169079632168 110.150757595082502"    style="stroke: #ecd264; fill: none" />
<path d="M 210.1507575950825019 107.3223304703363119,   207.3223304703363119 110.1507575950825019"    style="stroke: #ecd264; fill: none" />
<path d="M 210.8578643762690495 108.0294372515228595,   208.0294372515228595 110.8578643762690495"    style="stroke: #ecd264; fill: none" />
<path d="M 210.8578643762690495 109.4436508138959545,   209.4436508138959545 110.8578643762690495"    style="stroke: #ecd264; fill: none" />
<path d="M 211.564971157455597 110.150757595082502,   210.150757595082502 111.564971157455597"    style="stroke: #ecd264; fill: none" />

<path d="M 210.8578643762690495 139.1421356237309505,    139.1421356237309505 210.8578643762690495"
          style="stroke: #ecd264; fill: none" />
<path d="M 149.0416305603426158 208.0294372515228594,   141.9705627484771406 200.9583694396573842"    style="stroke: #ecd264; fill: none" />
<path d="M 148.3345237791560683 208.7365440327094069,   141.2634559672905931 201.6654762208439317"    style="stroke: #ecd264; fill: none" />
<path d="M 146.9203102167829733 208.7365440327094069,   141.2634559672905931 203.0796897832170267"    style="stroke: #ecd264; fill: none" />
<path d="M 146.2132034355964257 209.4436508138959545,   140.5563491861040455 203.7867965644035743"    style="stroke: #ecd264; fill: none" />
<path d="M 144.7989898732233307 209.4436508138959545,   140.5563491861040455 205.2010101267766693"    style="stroke: #ecd264; fill: none" />
<path d="M 144.0918830920367832 210.150757595082502,   139.849242404917498 205.9081169079632168"    style="stroke: #ecd264; fill: none" />
<path d="M 142.6776695296636881 210.1507575950825019,   139.8492424049174981 207.3223304703363119"    style="stroke: #ecd264; fill: none" />
<path d="M 141.9705627484771405 210.8578643762690495,   139.1421356237309505 208.0294372515228595"    style="stroke: #ecd264; fill: none" />
<path d="M 140.5563491861040455 210.8578643762690495,   139.1421356237309505 209.4436508138959545"    style="stroke: #ecd264; fill: none" />
<path d="M 139.849242404917498 211.564971157455597,   138.435028842544403 210.150757595082502"    style="stroke: #ecd264; fill: none" />

<path d="M 39.14213562373095049 139.1421356237309505,    110.8578643762690495 210.8578643762690495"
          style="stroke: #ecd264; fill: none" />
<path d="M 108.0294372515228594 200.9583694396573842,   100.9583694396573842 208.0294372515228594"    style="stroke: #ecd264; fill: none" />
<path d="M 108.7365440327094069 201.6654762208439317,   101.6654762208439317 208.7365440327094069"    style="stroke: #ecd264; fill: none" />
<path d="M 108.7365440327094069 203.0796897832170267,   103.0796897832170267 208.7365440327094069"    style="stroke: #ecd264; fill: none" />
<path d="M 109.4436508138959545 203.7867965644035743,   103.7867965644035743 209.4436508138959545"    style="stroke: #ecd264; fill: none" />
<path d="M 109.4436508138959545 205.2010101267766693,   105.2010101267766693 209.4436508138959545"    style="stroke: #ecd264; fill: none" />
<path d="M 110.150757595082502 205.9081169079632168,   105.9081169079632168 210.150757595082502"    style="stroke: #ecd264; fill: none" />
<path d="M 110.1507575950825019 207.3223304703363119,   107.3223304703363119 210.1507575950825019"    style="stroke: #ecd264; fill: none" />
<path d="M 110.8578643762690495 208.0294372515228595,   108.0294372515228595 210.8578643762690495"    style="stroke: #ecd264; fill: none" />
<path d="M 110.8578643762690495 209.4436508138959545,   109.4436508138959545 210.8578643762690495"    style="stroke: #ecd264; fill: none" />
<path d="M 111.564971157455597 210.150757595082502,   110.150757595082502 211.564971157455597"    style="stroke: #ecd264; fill: none" />

<path d="M 125 245,    125 305"
          style="stroke: #ecd264; fill: none" />
<path d="M 130 296,   120 296"    style="stroke: #ecd264; fill: none" />
<path d="M 130 297,   120 297"    style="stroke: #ecd264; fill: none" />
<path d="M 129 298,   121 298"    style="stroke: #ecd264; fill: none" />
<path d="M 129 299,   121 299"    style="stroke: #ecd264; fill: none" />
<path d="M 128 300,   122 300"    style="stroke: #ecd264; fill: none" />
<path d="M 128 301,   122 301"    style="stroke: #ecd264; fill: none" />
<path d="M 127 302,   123 302"    style="stroke: #ecd264; fill: none" />
<path d="M 127 303,   123 303"    style="stroke: #ecd264; fill: none" />
<path d="M 126 304,   124 304"    style="stroke: #ecd264; fill: none" />
<path d="M 126 305,   124 305"    style="stroke: #ecd264; fill: none" />

<path d="M 142.8885438199983176 216.0557280900008412,    175 200,
         200 200,
         200 250,
         175 250,
         142.8885438199983176 233.9442719099991588"
          style="stroke: #ecd264; fill: none" />
<path d="M 148.7023205614977708 242.4413302244983596,   153.1744565164973502 233.4970583144992008"    style="stroke: #ecd264; fill: none" />
<path d="M 147.8078933704978549 241.9941166289984017,   152.2800293254974343 233.0498447189992429"    style="stroke: #ecd264; fill: none" />
<path d="M 147.3606797749978969 240.6524758424985279,   150.9383885389975605 233.4970583144992009"    style="stroke: #ecd264; fill: none" />
<path d="M 146.466252583997981 240.2052622469985699,   150.0439613479976446 233.0498447189992429"    style="stroke: #ecd264; fill: none" />
<path d="M 146.0190389884980232 238.8636214604986961,   148.7023205614977708 233.4970583144992009"    style="stroke: #ecd264; fill: none" />
<path d="M 145.1246117974981073 238.4164078649987381,   147.8078933704978549 233.0498447189992429"    style="stroke: #ecd264; fill: none" />
<path d="M 144.6773982019981493 237.0747670784988644,   146.4662525839979811 233.4970583144992008"    style="stroke: #ecd264; fill: none" />
<path d="M 143.7829710109982334 236.6275534829989065,   145.5718253929980652 233.0498447189992429"    style="stroke: #ecd264; fill: none" />
<path d="M 143.3357574154982756 235.2859126964990326,   144.2301846064981914 233.4970583144992008"    style="stroke: #ecd264; fill: none" />
<path d="M 142.4413302244983597 234.8386991009990747,   143.3357574154982755 233.0498447189992429"    style="stroke: #ecd264; fill: none" />

<path d="M 107.1114561800016824 233.9442719099991588,    75 250,
         50 250,
         50 200,
         75 200,
         107.1114561800016824 216.0557280900008412"
          style="stroke: #ecd264; fill: none" />
<path d="M 101.2976794385022292 207.5586697755016404,   96.8255434835026498 216.5029416855007992"    style="stroke: #ecd264; fill: none" />
<path d="M 102.1921066295021451 208.0058833710015983,   97.7199706745025657 216.9501552810007571"    style="stroke: #ecd264; fill: none" />
<path d="M 102.6393202250021031 209.3475241575014721,   99.0616114610024395 216.5029416855007991"    style="stroke: #ecd264; fill: none" />
<path d="M 103.533747416002019 209.7947377530014301,   99.9560386520023554 216.9501552810007571"    style="stroke: #ecd264; fill: none" />
<path d="M 103.9809610115019768 211.1363785395013039,   101.2976794385022292 216.5029416855007991"    style="stroke: #ecd264; fill: none" />
<path d="M 104.8753882025018927 211.5835921350012619,   102.1921066295021451 216.9501552810007571"    style="stroke: #ecd264; fill: none" />
<path d="M 105.3226017980018507 212.9252329215011356,   103.5337474160020189 216.5029416855007992"    style="stroke: #ecd264; fill: none" />
<path d="M 106.2170289890017666 213.3724465170010935,   104.4281746070019348 216.9501552810007571"    style="stroke: #ecd264; fill: none" />
<path d="M 106.6642425845017244 214.7140873035009674,   105.7698153935018086 216.5029416855007992"    style="stroke: #ecd264; fill: none" />
<path d="M 107.5586697755016403 215.1613008990009253,   106.6642425845017245 216.9501552810007571"    style="stroke: #ecd264; fill: none" />

<text x="50" y="60" style="stroke: #ecd264; fill: #ecd264; font-size:12pt;  text-anchor: left">%</text>

<text x="170" y="60" style="stroke: #ecd264; fill: #ecd264; font-size:12pt; text-decoration: underline;  text-anchor: left">alpha</text>

<rect x="25" y="160" width="30" height="30"
  style="fill: none; stroke: #ecd264" />
<text x="40" y="180" style="stroke: #ecd264; fill: #ecd264; font-size:12pt;  text-anchor: middle">1</text>

<rect x="195" y="160" width="30" height="30"
  style="fill: none; stroke: #ecd264" />
<text x="210" y="180" style="stroke: #ecd264; fill: #ecd264; font-size:12pt;  text-anchor: middle">2</text>

<text x="10" y="210" style="stroke: #ecd264; fill: #ecd264; font-size:12pt; text-decoration: underline;  text-anchor: left">digit</text>

<rect x="10" y="220" width="30" height="30"
  style="fill: none; stroke: #ecd264" />
<text x="25" y="240" style="stroke: #ecd264; fill: #ecd264; font-size:12pt;  text-anchor: middle">3</text>

<text x="210" y="210" style="stroke: #ecd264; fill: #ecd264; font-size:12pt; text-decoration: underline;  text-anchor: left">alpha</text>

<rect x="210" y="220" width="30" height="30"
  style="fill: none; stroke: #ecd264" />
<text x="225" y="240" style="stroke: #ecd264; fill: #ecd264; font-size:12pt;  text-anchor: middle">3</text>

<rect x="140" y="270" width="30" height="30"
  style="fill: none; stroke: #ecd264" />
<text x="155" y="290" style="stroke: #ecd264; fill: #ecd264; font-size:12pt;  text-anchor: middle">4</text>



</svg>
