<?xml version="1.0" standalone="no"?>

<!DOCTYPE svg PUBLIC "-//W3C//DTD SVG 1.1//EN" 
"http://www.w3.org/Graphics/SVG/1.1/DTD/svg11.dtd">

<svg width="500" height="750" version="1.1"
     xmlns="http://www.w3.org/2000/svg">
<title>Transition Diagram for trans_kill</title>
<rect x="0" y="0" width="500" height="750" style="fill: #4c76ac; stroke: #4c76ac" />

<circle cx="25" cy="25" r="20" style="stroke: #ecd264; fill: none" />
<text x="25" y="30" style="stroke: #ecd264; fill: #ecd264; font-size:12pt;  text-anchor: middle">E</text>

<path d="M 45 25,    130 25"
          style="stroke: #ecd264; fill: none" />
<path d="M 121 20,   121 30"    style="stroke: #ecd264; fill: none" />
<path d="M 122 20,   122 30"    style="stroke: #ecd264; fill: none" />
<path d="M 123 21,   123 29"    style="stroke: #ecd264; fill: none" />
<path d="M 124 21,   124 29"    style="stroke: #ecd264; fill: none" />
<path d="M 125 22,   125 28"    style="stroke: #ecd264; fill: none" />
<path d="M 126 22,   126 28"    style="stroke: #ecd264; fill: none" />
<path d="M 127 23,   127 27"    style="stroke: #ecd264; fill: none" />
<path d="M 128 23,   128 27"    style="stroke: #ecd264; fill: none" />
<path d="M 129 24,   129 26"    style="stroke: #ecd264; fill: none" />
<path d="M 130 24,   130 26"    style="stroke: #ecd264; fill: none" />

<text x="50" y="20" style="stroke: #ecd264; fill: #ecd264; font-size:12pt; text-decoration: underline;  text-anchor: left">postcond</text>

<circle cx="150" cy="25" r="20" style="stroke: #ecd264; fill: none" />

<path d="M 150 45,    150 105"
          style="stroke: #ecd264; fill: none" />
<path d="M 155 96,   145 96"    style="stroke: #ecd264; fill: none" />
<path d="M 155 97,   145 97"    style="stroke: #ecd264; fill: none" />
<path d="M 154 98,   146 98"    style="stroke: #ecd264; fill: none" />
<path d="M 154 99,   146 99"    style="stroke: #ecd264; fill: none" />
<path d="M 153 100,   147 100"    style="stroke: #ecd264; fill: none" />
<path d="M 153 101,   147 101"    style="stroke: #ecd264; fill: none" />
<path d="M 152 102,   148 102"    style="stroke: #ecd264; fill: none" />
<path d="M 152 103,   148 103"    style="stroke: #ecd264; fill: none" />
<path d="M 151 104,   149 104"    style="stroke: #ecd264; fill: none" />
<path d="M 151 105,   149 105"    style="stroke: #ecd264; fill: none" />

<path d="M 150 105,
     170 125,
     150 145,
     130 125,
     150 105"
     style="fill: none; stroke: #ecd264" />

<path d="M 130 125,    45 125"
          style="stroke: #ecd264; fill: none" />
<path d="M 54 130,   54 120"    style="stroke: #ecd264; fill: none" />
<path d="M 53 130,   53 120"    style="stroke: #ecd264; fill: none" />
<path d="M 52 129,   52 121"    style="stroke: #ecd264; fill: none" />
<path d="M 51 129,   51 121"    style="stroke: #ecd264; fill: none" />
<path d="M 50 128,   50 122"    style="stroke: #ecd264; fill: none" />
<path d="M 49 128,   49 122"    style="stroke: #ecd264; fill: none" />
<path d="M 48 127,   48 123"    style="stroke: #ecd264; fill: none" />
<path d="M 47 127,   47 123"    style="stroke: #ecd264; fill: none" />
<path d="M 46 126,   46 124"    style="stroke: #ecd264; fill: none" />
<path d="M 45 126,   45 124"    style="stroke: #ecd264; fill: none" />

<circle cx="25" cy="125" r="20" style="stroke: #ecd264; fill: none" />
<text x="25" y="130" style="stroke: #ecd264; fill: #ecd264; font-size:12pt;  text-anchor: middle">X</text>

<path d="M 140.8578643762690495 134.1421356237309505,    64.14213562373095049 210.8578643762690495"
          style="stroke: #ecd264; fill: none" />
<path d="M 74.04163056034261583 208.0294372515228594,   66.97056274847714059 200.9583694396573842"    style="stroke: #ecd264; fill: none" />
<path d="M 73.33452377915606831 208.7365440327094069,   66.26345596729059307 201.6654762208439317"    style="stroke: #ecd264; fill: none" />
<path d="M 71.92031021678297326 208.7365440327094069,   66.26345596729059306 203.0796897832170267"    style="stroke: #ecd264; fill: none" />
<path d="M 71.21320343559642574 209.4436508138959545,   65.55634918610404554 203.7867965644035743"    style="stroke: #ecd264; fill: none" />
<path d="M 69.79898987322333068 209.4436508138959545,   65.55634918610404554 205.2010101267766693"    style="stroke: #ecd264; fill: none" />
<path d="M 69.09188309203678316 210.150757595082502,   64.84924240491749802 205.9081169079632168"    style="stroke: #ecd264; fill: none" />
<path d="M 67.67766952966368811 210.1507575950825019,   64.84924240491749801 207.3223304703363119"    style="stroke: #ecd264; fill: none" />
<path d="M 66.97056274847714059 210.8578643762690495,   64.14213562373095049 208.0294372515228595"    style="stroke: #ecd264; fill: none" />
<path d="M 65.55634918610404553 210.8578643762690495,   64.14213562373095049 209.4436508138959545"    style="stroke: #ecd264; fill: none" />
<path d="M 64.84924240491749801 211.564971157455597,   63.43502884254440297 210.150757595082502"    style="stroke: #ecd264; fill: none" />

<circle cx="50" cy="225" r="20" style="stroke: #ecd264; fill: none" />
<text x="50" y="230" style="stroke: #ecd264; fill: #ecd264; font-size:12pt;  text-anchor: middle">Y</text>

<path d="M 159.1421356237309505 134.1421356237309505,    235.8578643762690495 210.8578643762690495"
          style="stroke: #ecd264; fill: none" />
<path d="M 233.0294372515228594 200.9583694396573842,   225.9583694396573842 208.0294372515228594"    style="stroke: #ecd264; fill: none" />
<path d="M 233.7365440327094069 201.6654762208439317,   226.6654762208439317 208.7365440327094069"    style="stroke: #ecd264; fill: none" />
<path d="M 233.7365440327094069 203.0796897832170267,   228.0796897832170267 208.7365440327094069"    style="stroke: #ecd264; fill: none" />
<path d="M 234.4436508138959545 203.7867965644035743,   228.7867965644035743 209.4436508138959545"    style="stroke: #ecd264; fill: none" />
<path d="M 234.4436508138959545 205.2010101267766693,   230.2010101267766693 209.4436508138959545"    style="stroke: #ecd264; fill: none" />
<path d="M 235.150757595082502 205.9081169079632168,   230.9081169079632168 210.150757595082502"    style="stroke: #ecd264; fill: none" />
<path d="M 235.1507575950825019 207.3223304703363119,   232.3223304703363119 210.1507575950825019"    style="stroke: #ecd264; fill: none" />
<path d="M 235.8578643762690495 208.0294372515228595,   233.0294372515228595 210.8578643762690495"    style="stroke: #ecd264; fill: none" />
<path d="M 235.8578643762690495 209.4436508138959545,   234.4436508138959545 210.8578643762690495"    style="stroke: #ecd264; fill: none" />
<path d="M 236.564971157455597 210.150757595082502,   235.150757595082502 211.564971157455597"    style="stroke: #ecd264; fill: none" />

<circle cx="250" cy="225" r="20" style="stroke: #ecd264; fill: none" />

<path d="M 250 245,    250 305"
          style="stroke: #ecd264; fill: none" />
<path d="M 255 296,   245 296"    style="stroke: #ecd264; fill: none" />
<path d="M 255 297,   245 297"    style="stroke: #ecd264; fill: none" />
<path d="M 254 298,   246 298"    style="stroke: #ecd264; fill: none" />
<path d="M 254 299,   246 299"    style="stroke: #ecd264; fill: none" />
<path d="M 253 300,   247 300"    style="stroke: #ecd264; fill: none" />
<path d="M 253 301,   247 301"    style="stroke: #ecd264; fill: none" />
<path d="M 252 302,   248 302"    style="stroke: #ecd264; fill: none" />
<path d="M 252 303,   248 303"    style="stroke: #ecd264; fill: none" />
<path d="M 251 304,   249 304"    style="stroke: #ecd264; fill: none" />
<path d="M 251 305,   249 305"    style="stroke: #ecd264; fill: none" />

<circle cx="250" cy="325" r="20" style="stroke: #ecd264; fill: none" />

<path d="M 250 345,    250 405"
          style="stroke: #ecd264; fill: none" />
<path d="M 255 396,   245 396"    style="stroke: #ecd264; fill: none" />
<path d="M 255 397,   245 397"    style="stroke: #ecd264; fill: none" />
<path d="M 254 398,   246 398"    style="stroke: #ecd264; fill: none" />
<path d="M 254 399,   246 399"    style="stroke: #ecd264; fill: none" />
<path d="M 253 400,   247 400"    style="stroke: #ecd264; fill: none" />
<path d="M 253 401,   247 401"    style="stroke: #ecd264; fill: none" />
<path d="M 252 402,   248 402"    style="stroke: #ecd264; fill: none" />
<path d="M 252 403,   248 403"    style="stroke: #ecd264; fill: none" />
<path d="M 251 404,   249 404"    style="stroke: #ecd264; fill: none" />
<path d="M 251 405,   249 405"    style="stroke: #ecd264; fill: none" />

<circle cx="250" cy="425" r="20" style="stroke: #ecd264; fill: none" />

<path d="M 250 445,    250 505"
          style="stroke: #ecd264; fill: none" />
<path d="M 255 496,   245 496"    style="stroke: #ecd264; fill: none" />
<path d="M 255 497,   245 497"    style="stroke: #ecd264; fill: none" />
<path d="M 254 498,   246 498"    style="stroke: #ecd264; fill: none" />
<path d="M 254 499,   246 499"    style="stroke: #ecd264; fill: none" />
<path d="M 253 500,   247 500"    style="stroke: #ecd264; fill: none" />
<path d="M 253 501,   247 501"    style="stroke: #ecd264; fill: none" />
<path d="M 252 502,   248 502"    style="stroke: #ecd264; fill: none" />
<path d="M 252 503,   248 503"    style="stroke: #ecd264; fill: none" />
<path d="M 251 504,   249 504"    style="stroke: #ecd264; fill: none" />
<path d="M 251 505,   249 505"    style="stroke: #ecd264; fill: none" />

<circle cx="250" cy="525" r="20" style="stroke: #ecd264; fill: none" />

<path d="M 250 545,    250 605"
          style="stroke: #ecd264; fill: none" />
<path d="M 255 596,   245 596"    style="stroke: #ecd264; fill: none" />
<path d="M 255 597,   245 597"    style="stroke: #ecd264; fill: none" />
<path d="M 254 598,   246 598"    style="stroke: #ecd264; fill: none" />
<path d="M 254 599,   246 599"    style="stroke: #ecd264; fill: none" />
<path d="M 253 600,   247 600"    style="stroke: #ecd264; fill: none" />
<path d="M 253 601,   247 601"    style="stroke: #ecd264; fill: none" />
<path d="M 252 602,   248 602"    style="stroke: #ecd264; fill: none" />
<path d="M 252 603,   248 603"    style="stroke: #ecd264; fill: none" />
<path d="M 251 604,   249 604"    style="stroke: #ecd264; fill: none" />
<path d="M 251 605,   249 605"    style="stroke: #ecd264; fill: none" />

<path d="M 250 605,
     270 625,
     250 645,
     230 625,
     250 605"
     style="fill: none; stroke: #ecd264" />

<path d="M 250 645,    250 705"
          style="stroke: #ecd264; fill: none" />
<path d="M 255 696,   245 696"    style="stroke: #ecd264; fill: none" />
<path d="M 255 697,   245 697"    style="stroke: #ecd264; fill: none" />
<path d="M 254 698,   246 698"    style="stroke: #ecd264; fill: none" />
<path d="M 254 699,   246 699"    style="stroke: #ecd264; fill: none" />
<path d="M 253 700,   247 700"    style="stroke: #ecd264; fill: none" />
<path d="M 253 701,   247 701"    style="stroke: #ecd264; fill: none" />
<path d="M 252 702,   248 702"    style="stroke: #ecd264; fill: none" />
<path d="M 252 703,   248 703"    style="stroke: #ecd264; fill: none" />
<path d="M 251 704,   249 704"    style="stroke: #ecd264; fill: none" />
<path d="M 251 705,   249 705"    style="stroke: #ecd264; fill: none" />

<circle cx="250" cy="725" r="20" style="stroke: #ecd264; fill: none" />
<text x="250" y="730" style="stroke: #ecd264; fill: #ecd264; font-size:12pt;  text-anchor: middle">X</text>

<path d="M 270 625,    330 625"
          style="stroke: #ecd264; fill: none" />
<path d="M 321 620,   321 630"    style="stroke: #ecd264; fill: none" />
<path d="M 322 620,   322 630"    style="stroke: #ecd264; fill: none" />
<path d="M 323 621,   323 629"    style="stroke: #ecd264; fill: none" />
<path d="M 324 621,   324 629"    style="stroke: #ecd264; fill: none" />
<path d="M 325 622,   325 628"    style="stroke: #ecd264; fill: none" />
<path d="M 326 622,   326 628"    style="stroke: #ecd264; fill: none" />
<path d="M 327 623,   327 627"    style="stroke: #ecd264; fill: none" />
<path d="M 328 623,   328 627"    style="stroke: #ecd264; fill: none" />
<path d="M 329 624,   329 626"    style="stroke: #ecd264; fill: none" />
<path d="M 330 624,   330 626"    style="stroke: #ecd264; fill: none" />

<circle cx="350" cy="625" r="20" style="stroke: #ecd264; fill: none" />
<text x="350" y="630" style="stroke: #ecd264; fill: #ecd264; font-size:12pt;  text-anchor: middle">Y</text>

<path d="M 270 225,    430 225"
          style="stroke: #ecd264; fill: none" />
<path d="M 421 220,   421 230"    style="stroke: #ecd264; fill: none" />
<path d="M 422 220,   422 230"    style="stroke: #ecd264; fill: none" />
<path d="M 423 221,   423 229"    style="stroke: #ecd264; fill: none" />
<path d="M 424 221,   424 229"    style="stroke: #ecd264; fill: none" />
<path d="M 425 222,   425 228"    style="stroke: #ecd264; fill: none" />
<path d="M 426 222,   426 228"    style="stroke: #ecd264; fill: none" />
<path d="M 427 223,   427 227"    style="stroke: #ecd264; fill: none" />
<path d="M 428 223,   428 227"    style="stroke: #ecd264; fill: none" />
<path d="M 429 224,   429 226"    style="stroke: #ecd264; fill: none" />
<path d="M 430 224,   430 226"    style="stroke: #ecd264; fill: none" />

<circle cx="450" cy="225" r="20" style="stroke: #ecd264; fill: none" />

<path d="M 450 245,    450 305"
          style="stroke: #ecd264; fill: none" />
<path d="M 455 296,   445 296"    style="stroke: #ecd264; fill: none" />
<path d="M 455 297,   445 297"    style="stroke: #ecd264; fill: none" />
<path d="M 454 298,   446 298"    style="stroke: #ecd264; fill: none" />
<path d="M 454 299,   446 299"    style="stroke: #ecd264; fill: none" />
<path d="M 453 300,   447 300"    style="stroke: #ecd264; fill: none" />
<path d="M 453 301,   447 301"    style="stroke: #ecd264; fill: none" />
<path d="M 452 302,   448 302"    style="stroke: #ecd264; fill: none" />
<path d="M 452 303,   448 303"    style="stroke: #ecd264; fill: none" />
<path d="M 451 304,   449 304"    style="stroke: #ecd264; fill: none" />
<path d="M 451 305,   449 305"    style="stroke: #ecd264; fill: none" />

<circle cx="450" cy="325" r="20" style="stroke: #ecd264; fill: none" />

<path d="M 430 325,    270 325"
          style="stroke: #ecd264; fill: none" />
<path d="M 279 330,   279 320"    style="stroke: #ecd264; fill: none" />
<path d="M 278 330,   278 320"    style="stroke: #ecd264; fill: none" />
<path d="M 277 329,   277 321"    style="stroke: #ecd264; fill: none" />
<path d="M 276 329,   276 321"    style="stroke: #ecd264; fill: none" />
<path d="M 275 328,   275 322"    style="stroke: #ecd264; fill: none" />
<path d="M 274 328,   274 322"    style="stroke: #ecd264; fill: none" />
<path d="M 273 327,   273 323"    style="stroke: #ecd264; fill: none" />
<path d="M 272 327,   272 323"    style="stroke: #ecd264; fill: none" />
<path d="M 271 326,   271 324"    style="stroke: #ecd264; fill: none" />
<path d="M 270 326,   270 324"    style="stroke: #ecd264; fill: none" />

<path d="M 170 125,    495 125,
         495 425,
         270 425"
          style="stroke: #ecd264; fill: none" />
<path d="M 279 430,   279 420"    style="stroke: #ecd264; fill: none" />
<path d="M 278 430,   278 420"    style="stroke: #ecd264; fill: none" />
<path d="M 277 429,   277 421"    style="stroke: #ecd264; fill: none" />
<path d="M 276 429,   276 421"    style="stroke: #ecd264; fill: none" />
<path d="M 275 428,   275 422"    style="stroke: #ecd264; fill: none" />
<path d="M 274 428,   274 422"    style="stroke: #ecd264; fill: none" />
<path d="M 273 427,   273 423"    style="stroke: #ecd264; fill: none" />
<path d="M 272 427,   272 423"    style="stroke: #ecd264; fill: none" />
<path d="M 271 426,   271 424"    style="stroke: #ecd264; fill: none" />
<path d="M 270 426,   270 424"    style="stroke: #ecd264; fill: none" />

<path d="M 230 625,    150 625,
         150 225,
         230 225"
          style="stroke: #ecd264; fill: none" />
<path d="M 221 220,   221 230"    style="stroke: #ecd264; fill: none" />
<path d="M 222 220,   222 230"    style="stroke: #ecd264; fill: none" />
<path d="M 223 221,   223 229"    style="stroke: #ecd264; fill: none" />
<path d="M 224 221,   224 229"    style="stroke: #ecd264; fill: none" />
<path d="M 225 222,   225 228"    style="stroke: #ecd264; fill: none" />
<path d="M 226 222,   226 228"    style="stroke: #ecd264; fill: none" />
<path d="M 227 223,   227 227"    style="stroke: #ecd264; fill: none" />
<path d="M 228 223,   228 227"    style="stroke: #ecd264; fill: none" />
<path d="M 229 224,   229 226"    style="stroke: #ecd264; fill: none" />
<path d="M 230 224,   230 226"    style="stroke: #ecd264; fill: none" />

<path d="M 432.1114561800016824 316.0557280900008412,    400 300,
         400 250,
         432.1114561800016824 233.9442719099991588"
          style="stroke: #ecd264; fill: none" />
<path d="M 421.8255434835026498 233.4970583144992008,   426.2976794385022292 242.4413302244983596"    style="stroke: #ecd264; fill: none" />
<path d="M 422.7199706745025657 233.0498447189992429,   427.1921066295021451 241.9941166289984017"    style="stroke: #ecd264; fill: none" />
<path d="M 424.0616114610024395 233.4970583144992009,   427.6393202250021031 240.6524758424985279"    style="stroke: #ecd264; fill: none" />
<path d="M 424.9560386520023554 233.0498447189992429,   428.533747416002019 240.2052622469985699"    style="stroke: #ecd264; fill: none" />
<path d="M 426.2976794385022292 233.4970583144992009,   428.9809610115019768 238.8636214604986961"    style="stroke: #ecd264; fill: none" />
<path d="M 427.1921066295021451 233.0498447189992429,   429.8753882025018927 238.4164078649987381"    style="stroke: #ecd264; fill: none" />
<path d="M 428.5337474160020189 233.4970583144992008,   430.3226017980018507 237.0747670784988644"    style="stroke: #ecd264; fill: none" />
<path d="M 429.4281746070019348 233.0498447189992429,   431.2170289890017666 236.6275534829989065"    style="stroke: #ecd264; fill: none" />
<path d="M 430.7698153935018086 233.4970583144992008,   431.6642425845017244 235.2859126964990326"    style="stroke: #ecd264; fill: none" />
<path d="M 431.6642425845017245 233.0498447189992429,   432.5586697755016403 234.8386991009990747"    style="stroke: #ecd264; fill: none" />

<text x="200" y="120" style="stroke: #ecd264; fill: #ecd264; font-size:12pt;  text-anchor: left">W</text>

<text x="200" y="160" style="stroke: #ecd264; fill: #ecd264; font-size:12pt;  text-anchor: left">X</text>

<text x="110" y="120" style="stroke: #ecd264; fill: #ecd264; font-size:12pt;  text-anchor: left">Z</text>

<text x="110" y="155" style="stroke: #ecd264; fill: #ecd264; font-size:12pt;  text-anchor: left">Y</text>

<rect x="60" y="90" width="30" height="30"
  style="fill: none; stroke: #ecd264" />
<text x="75" y="110" style="stroke: #ecd264; fill: #ecd264; font-size:12pt;  text-anchor: middle">1</text>

<rect x="70" y="140" width="30" height="30"
  style="fill: none; stroke: #ecd264" />
<text x="85" y="160" style="stroke: #ecd264; fill: #ecd264; font-size:12pt;  text-anchor: middle">1</text>

<text x="350" y="215" style="stroke: #ecd264; fill: #ecd264; font-size:12pt;  text-anchor: left">(</text>

<text x="260" y="260" style="stroke: #ecd264; fill: #ecd264; font-size:12pt; text-decoration: underline;  text-anchor: left">glvn</text>

<rect x="260" y="270" width="30" height="30"
  style="fill: none; stroke: #ecd264" />
<text x="275" y="290" style="stroke: #ecd264; fill: #ecd264; font-size:12pt;  text-anchor: middle">2</text>

<text x="460" y="260" style="stroke: #ecd264; fill: #ecd264; font-size:12pt; text-decoration: underline;  text-anchor: left">lvn</text>

<rect x="460" y="270" width="30" height="30"
  style="fill: none; stroke: #ecd264" />
<text x="475" y="290" style="stroke: #ecd264; fill: #ecd264; font-size:12pt;  text-anchor: middle">3</text>

<text x="310" y="315" style="stroke: #ecd264; fill: #ecd264; font-size:12pt;  text-anchor: left">)</text>

<rect x="330" y="290" width="30" height="30"
  style="fill: none; stroke: #ecd264" />
<text x="345" y="310" style="stroke: #ecd264; fill: #ecd264; font-size:12pt;  text-anchor: middle">4</text>

<text x="390" y="275" style="stroke: #ecd264; fill: #ecd264; font-size:12pt;  text-anchor: left">,</text>

<text x="260" y="480" style="stroke: #ecd264; fill: #ecd264; font-size:12pt; text-decoration: underline;  text-anchor: left">comend</text>

<text x="280" y="620" style="stroke: #ecd264; fill: #ecd264; font-size:12pt;  text-anchor: left">Y</text>

<text x="260" y="660" style="stroke: #ecd264; fill: #ecd264; font-size:12pt;  text-anchor: left">X</text>

<text x="210" y="620" style="stroke: #ecd264; fill: #ecd264; font-size:12pt;  text-anchor: left">Z</text>



</svg>
