<?xml version="1.0" standalone="no"?>

<!DOCTYPE svg PUBLIC "-//W3C//DTD SVG 1.1//EN" 
"http://www.w3.org/Graphics/SVG/1.1/DTD/svg11.dtd">

<svg width="520" height="375" version="1.1"
     xmlns="http://www.w3.org/2000/svg">
<title>Transition Diagram for trans_halthang</title>
<rect x="0" y="0" width="520" height="375" style="fill: #4c76ac; stroke: #4c76ac" />

<circle cx="255" cy="25" r="20" style="stroke: #ecd264; fill: none" />
<text x="255" y="30" style="stroke: #ecd264; fill: #ecd264; font-size:12pt;  text-anchor: middle">E</text>

<circle cx="255" cy="125" r="20" style="stroke: #ecd264; fill: none" />

<path d="M 255 205,
     275 225,
     255 245,
     235 225,
     255 205"
     style="fill: none; stroke: #ecd264" />

<path d="M 166.5470053837925153 205,  131.9059892324149694 225,  166.5470053837925153 245,  166.5470053837925153 205"
     style="stroke: #ecd264; fill: none" />
<text x="155" y="230" style="stroke: #ecd264; fill: #ecd264; font-size:12pt;  text-anchor: middle">2</text>

<path d="M 343.4529946162074847 205,  378.0940107675850306 225,  343.4529946162074847 245,  343.4529946162074847 205"
     style="stroke: #ecd264; fill: none" />
<text x="355" y="230" style="stroke: #ecd264; fill: #ecd264; font-size:12pt;  text-anchor: middle">2</text>

<path d="M 225 313.4529946162074847,  205 348.0940107675850306,  185 313.4529946162074847,  225 313.4529946162074847"
     style="stroke: #ecd264; fill: none" />
<text x="205" y="330" style="stroke: #ecd264; fill: #ecd264; font-size:12pt;  text-anchor: middle">1</text>

<path d="M 325 313.4529946162074847,  305 348.0940107675850306,  285 313.4529946162074847,  325 313.4529946162074847"
     style="stroke: #ecd264; fill: none" />
<text x="305" y="330" style="stroke: #ecd264; fill: #ecd264; font-size:12pt;  text-anchor: middle">2</text>

<path d="M 255 45,    255 105"
          style="stroke: #ecd264; fill: none" />
<path d="M 260 96,   250 96"    style="stroke: #ecd264; fill: none" />
<path d="M 260 97,   250 97"    style="stroke: #ecd264; fill: none" />
<path d="M 259 98,   251 98"    style="stroke: #ecd264; fill: none" />
<path d="M 259 99,   251 99"    style="stroke: #ecd264; fill: none" />
<path d="M 258 100,   252 100"    style="stroke: #ecd264; fill: none" />
<path d="M 258 101,   252 101"    style="stroke: #ecd264; fill: none" />
<path d="M 257 102,   253 102"    style="stroke: #ecd264; fill: none" />
<path d="M 257 103,   253 103"    style="stroke: #ecd264; fill: none" />
<path d="M 256 104,   254 104"    style="stroke: #ecd264; fill: none" />
<path d="M 256 105,   254 105"    style="stroke: #ecd264; fill: none" />

<path d="M 255 145,    255 205"
          style="stroke: #ecd264; fill: none" />
<path d="M 260 196,   250 196"    style="stroke: #ecd264; fill: none" />
<path d="M 260 197,   250 197"    style="stroke: #ecd264; fill: none" />
<path d="M 259 198,   251 198"    style="stroke: #ecd264; fill: none" />
<path d="M 259 199,   251 199"    style="stroke: #ecd264; fill: none" />
<path d="M 258 200,   252 200"    style="stroke: #ecd264; fill: none" />
<path d="M 258 201,   252 201"    style="stroke: #ecd264; fill: none" />
<path d="M 257 202,   253 202"    style="stroke: #ecd264; fill: none" />
<path d="M 257 203,   253 203"    style="stroke: #ecd264; fill: none" />
<path d="M 256 204,   254 204"    style="stroke: #ecd264; fill: none" />
<path d="M 256 205,   254 205"    style="stroke: #ecd264; fill: none" />

<path d="M 235 225,    170 225"
          style="stroke: #ecd264; fill: none" />
<path d="M 179 230,   179 220"    style="stroke: #ecd264; fill: none" />
<path d="M 178 230,   178 220"    style="stroke: #ecd264; fill: none" />
<path d="M 177 229,   177 221"    style="stroke: #ecd264; fill: none" />
<path d="M 176 229,   176 221"    style="stroke: #ecd264; fill: none" />
<path d="M 175 228,   175 222"    style="stroke: #ecd264; fill: none" />
<path d="M 174 228,   174 222"    style="stroke: #ecd264; fill: none" />
<path d="M 173 227,   173 223"    style="stroke: #ecd264; fill: none" />
<path d="M 172 227,   172 223"    style="stroke: #ecd264; fill: none" />
<path d="M 171 226,   171 224"    style="stroke: #ecd264; fill: none" />
<path d="M 170 226,   170 224"    style="stroke: #ecd264; fill: none" />

<path d="M 275 225,    340 225"
          style="stroke: #ecd264; fill: none" />
<path d="M 331 220,   331 230"    style="stroke: #ecd264; fill: none" />
<path d="M 332 220,   332 230"    style="stroke: #ecd264; fill: none" />
<path d="M 333 221,   333 229"    style="stroke: #ecd264; fill: none" />
<path d="M 334 221,   334 229"    style="stroke: #ecd264; fill: none" />
<path d="M 335 222,   335 228"    style="stroke: #ecd264; fill: none" />
<path d="M 336 222,   336 228"    style="stroke: #ecd264; fill: none" />
<path d="M 337 223,   337 227"    style="stroke: #ecd264; fill: none" />
<path d="M 338 223,   338 227"    style="stroke: #ecd264; fill: none" />
<path d="M 339 224,   339 226"    style="stroke: #ecd264; fill: none" />
<path d="M 340 224,   340 226"    style="stroke: #ecd264; fill: none" />

<path d="M 245.8578643762690495 234.1421356237309505,    205 275,
         205 310"
          style="stroke: #ecd264; fill: none" />
<path d="M 210 301,   200 301"    style="stroke: #ecd264; fill: none" />
<path d="M 210 302,   200 302"    style="stroke: #ecd264; fill: none" />
<path d="M 209 303,   201 303"    style="stroke: #ecd264; fill: none" />
<path d="M 209 304,   201 304"    style="stroke: #ecd264; fill: none" />
<path d="M 208 305,   202 305"    style="stroke: #ecd264; fill: none" />
<path d="M 208 306,   202 306"    style="stroke: #ecd264; fill: none" />
<path d="M 207 307,   203 307"    style="stroke: #ecd264; fill: none" />
<path d="M 207 308,   203 308"    style="stroke: #ecd264; fill: none" />
<path d="M 206 309,   204 309"    style="stroke: #ecd264; fill: none" />
<path d="M 206 310,   204 310"    style="stroke: #ecd264; fill: none" />

<path d="M 264.1421356237309505 234.1421356237309505,    305 275,
         305 310"
          style="stroke: #ecd264; fill: none" />
<path d="M 310 301,   300 301"    style="stroke: #ecd264; fill: none" />
<path d="M 310 302,   300 302"    style="stroke: #ecd264; fill: none" />
<path d="M 309 303,   301 303"    style="stroke: #ecd264; fill: none" />
<path d="M 309 304,   301 304"    style="stroke: #ecd264; fill: none" />
<path d="M 308 305,   302 305"    style="stroke: #ecd264; fill: none" />
<path d="M 308 306,   302 306"    style="stroke: #ecd264; fill: none" />
<path d="M 307 307,   303 307"    style="stroke: #ecd264; fill: none" />
<path d="M 307 308,   303 308"    style="stroke: #ecd264; fill: none" />
<path d="M 306 309,   304 309"    style="stroke: #ecd264; fill: none" />
<path d="M 306 310,   304 310"    style="stroke: #ecd264; fill: none" />

<text x="270" y="80" style="stroke: #ecd264; fill: #ecd264; font-size:12pt; text-decoration: underline;  text-anchor: left">postcond</text>

<text x="5" y="230" style="stroke: #ecd264; fill: #ecd264; font-size:12pt;  text-anchor: left">HALT command</text>

<text x="390" y="230" style="stroke: #ecd264; fill: #ecd264; font-size:12pt;  text-anchor: left">HANG command</text>

<text x="280" y="220" style="stroke: #ecd264; fill: #ecd264; font-size:12pt;  text-anchor: left">W</text>

<text x="215" y="220" style="stroke: #ecd264; fill: #ecd264; font-size:12pt;  text-anchor: left">Z</text>

<text x="215" y="250" style="stroke: #ecd264; fill: #ecd264; font-size:12pt;  text-anchor: left">Y</text>

<text x="280" y="250" style="stroke: #ecd264; fill: #ecd264; font-size:12pt;  text-anchor: left">X</text>

<text x="110" y="370" style="stroke: #ecd264; fill: #ecd264; font-size:12pt;  text-anchor: left">HALT command</text>

<text x="290" y="370" style="stroke: #ecd264; fill: #ecd264; font-size:12pt;  text-anchor: left">HANG command</text>



</svg>
