<?xml version="1.0" standalone="no"?>

<!DOCTYPE svg PUBLIC "-//W3C//DTD SVG 1.1//EN" 
"http://www.w3.org/Graphics/SVG/1.1/DTD/svg11.dtd">

<svg width="330" height="750" version="1.1"
     xmlns="http://www.w3.org/2000/svg">
<title>Transition Diagram for trans_patatom</title>
<rect x="0" y="0" width="330" height="750" style="fill: #4c76ac; stroke: #4c76ac" />

<circle cx="125" cy="25" r="20" style="stroke: #ecd264; fill: none" />
<text x="125" y="30" style="stroke: #ecd264; fill: #ecd264; font-size:12pt;  text-anchor: middle">E</text>

<circle cx="25" cy="125" r="20" style="stroke: #ecd264; fill: none" />

<circle cx="225" cy="125" r="20" style="stroke: #ecd264; fill: none" />

<circle cx="125" cy="225" r="20" style="stroke: #ecd264; fill: none" />

<circle cx="225" cy="325" r="20" style="stroke: #ecd264; fill: none" />

<circle cx="125" cy="425" r="20" style="stroke: #ecd264; fill: none" />

<circle cx="25" cy="525" r="20" style="stroke: #ecd264; fill: none" />

<circle cx="125" cy="525" r="20" style="stroke: #ecd264; fill: none" />

<circle cx="125" cy="625" r="20" style="stroke: #ecd264; fill: none" />

<circle cx="125" cy="725" r="20" style="stroke: #ecd264; fill: none" />
<text x="125" y="730" style="stroke: #ecd264; fill: #ecd264; font-size:12pt;  text-anchor: middle">X</text>

<path d="M 110.8578643762690495 39.14213562373095049,    39.14213562373095049 110.8578643762690495"
          style="stroke: #ecd264; fill: none" />
<path d="M 49.04163056034261583 108.0294372515228594,   41.97056274847714059 100.9583694396573842"    style="stroke: #ecd264; fill: none" />
<path d="M 48.33452377915606831 108.7365440327094069,   41.26345596729059307 101.6654762208439317"    style="stroke: #ecd264; fill: none" />
<path d="M 46.92031021678297326 108.7365440327094069,   41.26345596729059306 103.0796897832170267"    style="stroke: #ecd264; fill: none" />
<path d="M 46.21320343559642574 109.4436508138959545,   40.55634918610404554 103.7867965644035743"    style="stroke: #ecd264; fill: none" />
<path d="M 44.79898987322333068 109.4436508138959545,   40.55634918610404554 105.2010101267766693"    style="stroke: #ecd264; fill: none" />
<path d="M 44.09188309203678316 110.150757595082502,   39.84924240491749802 105.9081169079632168"    style="stroke: #ecd264; fill: none" />
<path d="M 42.67766952966368811 110.1507575950825019,   39.84924240491749801 107.3223304703363119"    style="stroke: #ecd264; fill: none" />
<path d="M 41.97056274847714059 110.8578643762690495,   39.14213562373095049 108.0294372515228595"    style="stroke: #ecd264; fill: none" />
<path d="M 40.55634918610404553 110.8578643762690495,   39.14213562373095049 109.4436508138959545"    style="stroke: #ecd264; fill: none" />
<path d="M 39.84924240491749801 111.564971157455597,   38.43502884254440297 110.150757595082502"    style="stroke: #ecd264; fill: none" />

<path d="M 139.1421356237309505 39.14213562373095049,    210.8578643762690495 110.8578643762690495"
          style="stroke: #ecd264; fill: none" />
<path d="M 208.0294372515228594 100.9583694396573842,   200.9583694396573842 108.0294372515228594"    style="stroke: #ecd264; fill: none" />
<path d="M 208.7365440327094069 101.6654762208439317,   201.6654762208439317 108.7365440327094069"    style="stroke: #ecd264; fill: none" />
<path d="M 208.7365440327094069 103.0796897832170267,   203.0796897832170267 108.7365440327094069"    style="stroke: #ecd264; fill: none" />
<path d="M 209.4436508138959545 103.7867965644035743,   203.7867965644035743 109.4436508138959545"    style="stroke: #ecd264; fill: none" />
<path d="M 209.4436508138959545 105.2010101267766693,   205.2010101267766693 109.4436508138959545"    style="stroke: #ecd264; fill: none" />
<path d="M 210.150757595082502 105.9081169079632168,   205.9081169079632168 110.150757595082502"    style="stroke: #ecd264; fill: none" />
<path d="M 210.1507575950825019 107.3223304703363119,   207.3223304703363119 110.1507575950825019"    style="stroke: #ecd264; fill: none" />
<path d="M 210.8578643762690495 108.0294372515228595,   208.0294372515228595 110.8578643762690495"    style="stroke: #ecd264; fill: none" />
<path d="M 210.8578643762690495 109.4436508138959545,   209.4436508138959545 110.8578643762690495"    style="stroke: #ecd264; fill: none" />
<path d="M 211.564971157455597 110.150757595082502,   210.150757595082502 111.564971157455597"    style="stroke: #ecd264; fill: none" />

<path d="M 39.14213562373095049 139.1421356237309505,    110.8578643762690495 210.8578643762690495"
          style="stroke: #ecd264; fill: none" />
<path d="M 108.0294372515228594 200.9583694396573842,   100.9583694396573842 208.0294372515228594"    style="stroke: #ecd264; fill: none" />
<path d="M 108.7365440327094069 201.6654762208439317,   101.6654762208439317 208.7365440327094069"    style="stroke: #ecd264; fill: none" />
<path d="M 108.7365440327094069 203.0796897832170267,   103.0796897832170267 208.7365440327094069"    style="stroke: #ecd264; fill: none" />
<path d="M 109.4436508138959545 203.7867965644035743,   103.7867965644035743 209.4436508138959545"    style="stroke: #ecd264; fill: none" />
<path d="M 109.4436508138959545 205.2010101267766693,   105.2010101267766693 209.4436508138959545"    style="stroke: #ecd264; fill: none" />
<path d="M 110.150757595082502 205.9081169079632168,   105.9081169079632168 210.150757595082502"    style="stroke: #ecd264; fill: none" />
<path d="M 110.1507575950825019 207.3223304703363119,   107.3223304703363119 210.1507575950825019"    style="stroke: #ecd264; fill: none" />
<path d="M 110.8578643762690495 208.0294372515228595,   108.0294372515228595 210.8578643762690495"    style="stroke: #ecd264; fill: none" />
<path d="M 110.8578643762690495 209.4436508138959545,   109.4436508138959545 210.8578643762690495"    style="stroke: #ecd264; fill: none" />
<path d="M 111.564971157455597 210.150757595082502,   110.150757595082502 211.564971157455597"    style="stroke: #ecd264; fill: none" />

<path d="M 31.32455532033675866 143.973665961010276,    118.6754446796632413 406.026334038989724"
          style="stroke: #ecd264; fill: none" />
<path d="M 120.5728112757642689 395.9070455264509101,   111.0859782952591309 399.0693231866192895"    style="stroke: #ecd264; fill: none" />
<path d="M 120.8890390417811069 396.8557288245014239,   111.4022060612759689 400.0180064846698033"    style="stroke: #ecd264; fill: none" />
<path d="M 120.256583509747431 398.1206398885687757,   112.6671171253433206 400.6504620167034791"    style="stroke: #ecd264; fill: none" />
<path d="M 120.5728112757642689 399.0693231866192895,   112.9833448913601585 401.5991453147539929"    style="stroke: #ecd264; fill: none" />
<path d="M 119.9403557437305931 400.3342342506866412,   114.2482559554275103 402.2316008467876688"    style="stroke: #ecd264; fill: none" />
<path d="M 120.256583509747431 401.282917548737155,   114.5644837214443482 403.1802841448381826"    style="stroke: #ecd264; fill: none" />
<path d="M 119.6241279777137551 402.5478286128045067,   115.8293947855116999 403.8127396768718585"    style="stroke: #ecd264; fill: none" />
<path d="M 119.9403557437305931 403.4965119108550205,   116.1456225515285379 404.7614229749223723"    style="stroke: #ecd264; fill: none" />
<path d="M 119.3079002116969172 404.7614229749223723,   117.4105336155958896 405.3938785069560481"    style="stroke: #ecd264; fill: none" />
<path d="M 119.6241279777137551 405.7101062729728861,   117.7267613816127275 406.3425618050065619"    style="stroke: #ecd264; fill: none" />

<path d="M 125 245,    125 405"
          style="stroke: #ecd264; fill: none" />
<path d="M 130 396,   120 396"    style="stroke: #ecd264; fill: none" />
<path d="M 130 397,   120 397"    style="stroke: #ecd264; fill: none" />
<path d="M 129 398,   121 398"    style="stroke: #ecd264; fill: none" />
<path d="M 129 399,   121 399"    style="stroke: #ecd264; fill: none" />
<path d="M 128 400,   122 400"    style="stroke: #ecd264; fill: none" />
<path d="M 128 401,   122 401"    style="stroke: #ecd264; fill: none" />
<path d="M 127 402,   123 402"    style="stroke: #ecd264; fill: none" />
<path d="M 127 403,   123 403"    style="stroke: #ecd264; fill: none" />
<path d="M 126 404,   124 404"    style="stroke: #ecd264; fill: none" />
<path d="M 126 405,   124 405"    style="stroke: #ecd264; fill: none" />

<path d="M 139.1421356237309505 239.1421356237309505,    210.8578643762690495 310.8578643762690495"
          style="stroke: #ecd264; fill: none" />
<path d="M 208.0294372515228594 300.9583694396573842,   200.9583694396573842 308.0294372515228594"    style="stroke: #ecd264; fill: none" />
<path d="M 208.7365440327094069 301.6654762208439317,   201.6654762208439317 308.7365440327094069"    style="stroke: #ecd264; fill: none" />
<path d="M 208.7365440327094069 303.0796897832170267,   203.0796897832170267 308.7365440327094069"    style="stroke: #ecd264; fill: none" />
<path d="M 209.4436508138959545 303.7867965644035743,   203.7867965644035743 309.4436508138959545"    style="stroke: #ecd264; fill: none" />
<path d="M 209.4436508138959545 305.2010101267766693,   205.2010101267766693 309.4436508138959545"    style="stroke: #ecd264; fill: none" />
<path d="M 210.150757595082502 305.9081169079632168,   205.9081169079632168 310.150757595082502"    style="stroke: #ecd264; fill: none" />
<path d="M 210.1507575950825019 307.3223304703363119,   207.3223304703363119 310.1507575950825019"    style="stroke: #ecd264; fill: none" />
<path d="M 210.8578643762690495 308.0294372515228595,   208.0294372515228595 310.8578643762690495"    style="stroke: #ecd264; fill: none" />
<path d="M 210.8578643762690495 309.4436508138959545,   209.4436508138959545 310.8578643762690495"    style="stroke: #ecd264; fill: none" />
<path d="M 211.564971157455597 310.150757595082502,   210.150757595082502 311.564971157455597"    style="stroke: #ecd264; fill: none" />

<path d="M 210.8578643762690495 339.1421356237309505,    139.1421356237309505 410.8578643762690495"
          style="stroke: #ecd264; fill: none" />
<path d="M 149.0416305603426158 408.0294372515228594,   141.9705627484771406 400.9583694396573842"    style="stroke: #ecd264; fill: none" />
<path d="M 148.3345237791560683 408.7365440327094069,   141.2634559672905931 401.6654762208439317"    style="stroke: #ecd264; fill: none" />
<path d="M 146.9203102167829733 408.7365440327094069,   141.2634559672905931 403.0796897832170267"    style="stroke: #ecd264; fill: none" />
<path d="M 146.2132034355964257 409.4436508138959545,   140.5563491861040455 403.7867965644035743"    style="stroke: #ecd264; fill: none" />
<path d="M 144.7989898732233307 409.4436508138959545,   140.5563491861040455 405.2010101267766693"    style="stroke: #ecd264; fill: none" />
<path d="M 144.0918830920367832 410.150757595082502,   139.849242404917498 405.9081169079632168"    style="stroke: #ecd264; fill: none" />
<path d="M 142.6776695296636881 410.1507575950825019,   139.8492424049174981 407.3223304703363119"    style="stroke: #ecd264; fill: none" />
<path d="M 141.9705627484771405 410.8578643762690495,   139.1421356237309505 408.0294372515228595"    style="stroke: #ecd264; fill: none" />
<path d="M 140.5563491861040455 410.8578643762690495,   139.1421356237309505 409.4436508138959545"    style="stroke: #ecd264; fill: none" />
<path d="M 139.849242404917498 411.564971157455597,   138.435028842544403 410.150757595082502"    style="stroke: #ecd264; fill: none" />

<path d="M 210.8578643762690495 139.1421356237309505,    139.1421356237309505 210.8578643762690495"
          style="stroke: #ecd264; fill: none" />
<path d="M 149.0416305603426158 208.0294372515228594,   141.9705627484771406 200.9583694396573842"    style="stroke: #ecd264; fill: none" />
<path d="M 148.3345237791560683 208.7365440327094069,   141.2634559672905931 201.6654762208439317"    style="stroke: #ecd264; fill: none" />
<path d="M 146.9203102167829733 208.7365440327094069,   141.2634559672905931 203.0796897832170267"    style="stroke: #ecd264; fill: none" />
<path d="M 146.2132034355964257 209.4436508138959545,   140.5563491861040455 203.7867965644035743"    style="stroke: #ecd264; fill: none" />
<path d="M 144.7989898732233307 209.4436508138959545,   140.5563491861040455 205.2010101267766693"    style="stroke: #ecd264; fill: none" />
<path d="M 144.0918830920367832 210.150757595082502,   139.849242404917498 205.9081169079632168"    style="stroke: #ecd264; fill: none" />
<path d="M 142.6776695296636881 210.1507575950825019,   139.8492424049174981 207.3223304703363119"    style="stroke: #ecd264; fill: none" />
<path d="M 141.9705627484771405 210.8578643762690495,   139.1421356237309505 208.0294372515228595"    style="stroke: #ecd264; fill: none" />
<path d="M 140.5563491861040455 210.8578643762690495,   139.1421356237309505 209.4436508138959545"    style="stroke: #ecd264; fill: none" />
<path d="M 139.849242404917498 211.564971157455597,   138.435028842544403 210.150757595082502"    style="stroke: #ecd264; fill: none" />

<path d="M 110.8578643762690495 439.1421356237309505,    39.14213562373095049 510.8578643762690495"
          style="stroke: #ecd264; fill: none" />
<path d="M 49.04163056034261583 508.0294372515228594,   41.97056274847714059 500.9583694396573842"    style="stroke: #ecd264; fill: none" />
<path d="M 48.33452377915606831 508.7365440327094069,   41.26345596729059307 501.6654762208439317"    style="stroke: #ecd264; fill: none" />
<path d="M 46.92031021678297326 508.7365440327094069,   41.26345596729059306 503.0796897832170267"    style="stroke: #ecd264; fill: none" />
<path d="M 46.21320343559642574 509.4436508138959545,   40.55634918610404554 503.7867965644035743"    style="stroke: #ecd264; fill: none" />
<path d="M 44.79898987322333068 509.4436508138959545,   40.55634918610404554 505.2010101267766693"    style="stroke: #ecd264; fill: none" />
<path d="M 44.09188309203678316 510.150757595082502,   39.84924240491749802 505.9081169079632168"    style="stroke: #ecd264; fill: none" />
<path d="M 42.67766952966368811 510.1507575950825019,   39.84924240491749801 507.3223304703363119"    style="stroke: #ecd264; fill: none" />
<path d="M 41.97056274847714059 510.8578643762690495,   39.14213562373095049 508.0294372515228595"    style="stroke: #ecd264; fill: none" />
<path d="M 40.55634918610404553 510.8578643762690495,   39.14213562373095049 509.4436508138959545"    style="stroke: #ecd264; fill: none" />
<path d="M 39.84924240491749801 511.564971157455597,   38.43502884254440297 510.150757595082502"    style="stroke: #ecd264; fill: none" />

<path d="M 125 445,    125 505"
          style="stroke: #ecd264; fill: none" />
<path d="M 130 496,   120 496"    style="stroke: #ecd264; fill: none" />
<path d="M 130 497,   120 497"    style="stroke: #ecd264; fill: none" />
<path d="M 129 498,   121 498"    style="stroke: #ecd264; fill: none" />
<path d="M 129 499,   121 499"    style="stroke: #ecd264; fill: none" />
<path d="M 128 500,   122 500"    style="stroke: #ecd264; fill: none" />
<path d="M 128 501,   122 501"    style="stroke: #ecd264; fill: none" />
<path d="M 127 502,   123 502"    style="stroke: #ecd264; fill: none" />
<path d="M 127 503,   123 503"    style="stroke: #ecd264; fill: none" />
<path d="M 126 504,   124 504"    style="stroke: #ecd264; fill: none" />
<path d="M 126 505,   124 505"    style="stroke: #ecd264; fill: none" />

<path d="M 39.14213562373095049 539.1421356237309505,    110.8578643762690495 610.8578643762690495"
          style="stroke: #ecd264; fill: none" />
<path d="M 108.0294372515228594 600.9583694396573842,   100.9583694396573842 608.0294372515228594"    style="stroke: #ecd264; fill: none" />
<path d="M 108.7365440327094069 601.6654762208439317,   101.6654762208439317 608.7365440327094069"    style="stroke: #ecd264; fill: none" />
<path d="M 108.7365440327094069 603.0796897832170267,   103.0796897832170267 608.7365440327094069"    style="stroke: #ecd264; fill: none" />
<path d="M 109.4436508138959545 603.7867965644035743,   103.7867965644035743 609.4436508138959545"    style="stroke: #ecd264; fill: none" />
<path d="M 109.4436508138959545 605.2010101267766693,   105.2010101267766693 609.4436508138959545"    style="stroke: #ecd264; fill: none" />
<path d="M 110.150757595082502 605.9081169079632168,   105.9081169079632168 610.150757595082502"    style="stroke: #ecd264; fill: none" />
<path d="M 110.1507575950825019 607.3223304703363119,   107.3223304703363119 610.1507575950825019"    style="stroke: #ecd264; fill: none" />
<path d="M 110.8578643762690495 608.0294372515228595,   108.0294372515228595 610.8578643762690495"    style="stroke: #ecd264; fill: none" />
<path d="M 110.8578643762690495 609.4436508138959545,   109.4436508138959545 610.8578643762690495"    style="stroke: #ecd264; fill: none" />
<path d="M 111.564971157455597 610.150757595082502,   110.150757595082502 611.564971157455597"    style="stroke: #ecd264; fill: none" />

<path d="M 125 545,    125 605"
          style="stroke: #ecd264; fill: none" />
<path d="M 130 596,   120 596"    style="stroke: #ecd264; fill: none" />
<path d="M 130 597,   120 597"    style="stroke: #ecd264; fill: none" />
<path d="M 129 598,   121 598"    style="stroke: #ecd264; fill: none" />
<path d="M 129 599,   121 599"    style="stroke: #ecd264; fill: none" />
<path d="M 128 600,   122 600"    style="stroke: #ecd264; fill: none" />
<path d="M 128 601,   122 601"    style="stroke: #ecd264; fill: none" />
<path d="M 127 602,   123 602"    style="stroke: #ecd264; fill: none" />
<path d="M 127 603,   123 603"    style="stroke: #ecd264; fill: none" />
<path d="M 126 604,   124 604"    style="stroke: #ecd264; fill: none" />
<path d="M 126 605,   124 605"    style="stroke: #ecd264; fill: none" />

<path d="M 125 645,    125 705"
          style="stroke: #ecd264; fill: none" />
<path d="M 130 696,   120 696"    style="stroke: #ecd264; fill: none" />
<path d="M 130 697,   120 697"    style="stroke: #ecd264; fill: none" />
<path d="M 129 698,   121 698"    style="stroke: #ecd264; fill: none" />
<path d="M 129 699,   121 699"    style="stroke: #ecd264; fill: none" />
<path d="M 128 700,   122 700"    style="stroke: #ecd264; fill: none" />
<path d="M 128 701,   122 701"    style="stroke: #ecd264; fill: none" />
<path d="M 127 702,   123 702"    style="stroke: #ecd264; fill: none" />
<path d="M 127 703,   123 703"    style="stroke: #ecd264; fill: none" />
<path d="M 126 704,   124 704"    style="stroke: #ecd264; fill: none" />
<path d="M 126 705,   124 705"    style="stroke: #ecd264; fill: none" />

<path d="M 142.8885438199983176 516.0557280900008412,    175 500,
         225 500,
         245 510,
         245 540,
         225 550,
         175 550,
         142.8885438199983176 533.9442719099991588"
          style="stroke: #ecd264; fill: none" />
<path d="M 148.7023205614977708 542.4413302244983596,   153.1744565164973502 533.4970583144992008"    style="stroke: #ecd264; fill: none" />
<path d="M 147.8078933704978549 541.9941166289984017,   152.2800293254974343 533.0498447189992429"    style="stroke: #ecd264; fill: none" />
<path d="M 147.3606797749978969 540.6524758424985279,   150.9383885389975605 533.4970583144992009"    style="stroke: #ecd264; fill: none" />
<path d="M 146.466252583997981 540.2052622469985699,   150.0439613479976446 533.0498447189992429"    style="stroke: #ecd264; fill: none" />
<path d="M 146.0190389884980232 538.8636214604986961,   148.7023205614977708 533.4970583144992009"    style="stroke: #ecd264; fill: none" />
<path d="M 145.1246117974981073 538.4164078649987381,   147.8078933704978549 533.0498447189992429"    style="stroke: #ecd264; fill: none" />
<path d="M 144.6773982019981493 537.0747670784988644,   146.4662525839979811 533.4970583144992008"    style="stroke: #ecd264; fill: none" />
<path d="M 143.7829710109982334 536.6275534829989065,   145.5718253929980652 533.0498447189992429"    style="stroke: #ecd264; fill: none" />
<path d="M 143.3357574154982756 535.2859126964990326,   144.2301846064981914 533.4970583144992008"    style="stroke: #ecd264; fill: none" />
<path d="M 142.4413302244983597 534.8386991009990747,   143.3357574154982755 533.0498447189992429"    style="stroke: #ecd264; fill: none" />

<text x="50" y="60" style="stroke: #ecd264; fill: #ecd264; font-size:12pt; text-decoration: underline;  text-anchor: left">intlit</text>

<rect x="15" y="65" width="30" height="30"
  style="fill: none; stroke: #ecd264" />
<text x="30" y="85" style="stroke: #ecd264; fill: #ecd264; font-size:12pt;  text-anchor: middle">1</text>

<text x="170" y="60" style="stroke: #ecd264; fill: #ecd264; font-size:12pt;  text-anchor: left">.</text>

<rect x="205" y="65" width="30" height="30"
  style="fill: none; stroke: #ecd264" />
<text x="220" y="85" style="stroke: #ecd264; fill: #ecd264; font-size:12pt;  text-anchor: middle">2</text>

<text x="70" y="190" style="stroke: #ecd264; fill: #ecd264; font-size:12pt;  text-anchor: left">.</text>

<rect x="30" y="260" width="30" height="30"
  style="fill: none; stroke: #ecd264" />
<text x="45" y="280" style="stroke: #ecd264; fill: #ecd264; font-size:12pt;  text-anchor: middle">5</text>

<rect x="140" y="310" width="30" height="30"
  style="fill: none; stroke: #ecd264" />
<text x="155" y="330" style="stroke: #ecd264; fill: #ecd264; font-size:12pt;  text-anchor: middle">3</text>

<text x="180" y="260" style="stroke: #ecd264; fill: #ecd264; font-size:12pt; text-decoration: underline;  text-anchor: left">intlit</text>

<rect x="185" y="370" width="30" height="30"
  style="fill: none; stroke: #ecd264" />
<text x="200" y="390" style="stroke: #ecd264; fill: #ecd264; font-size:12pt;  text-anchor: middle">4</text>

<text x="140" y="455" style="stroke: #ecd264; fill: #ecd264; font-size:12pt; text-decoration: underline;  text-anchor: left">patcode</text>

<rect x="140" y="465" width="30" height="30"
  style="fill: none; stroke: #ecd264" />
<text x="155" y="485" style="stroke: #ecd264; fill: #ecd264; font-size:12pt;  text-anchor: middle">6</text>

<text x="45" y="470" style="stroke: #ecd264; fill: #ecd264; font-size:12pt; text-decoration: underline;  text-anchor: left">strlit</text>

<text x="255" y="510" style="stroke: #ecd264; fill: #ecd264; font-size:12pt; text-decoration: underline;  text-anchor: left">patcode</text>

<rect x="255" y="520" width="30" height="30"
  style="fill: none; stroke: #ecd264" />
<text x="270" y="540" style="stroke: #ecd264; fill: #ecd264; font-size:12pt;  text-anchor: middle">8</text>

<rect x="40" y="575" width="30" height="30"
  style="fill: none; stroke: #ecd264" />
<text x="55" y="595" style="stroke: #ecd264; fill: #ecd264; font-size:12pt;  text-anchor: middle">7</text>

<rect x="140" y="660" width="30" height="30"
  style="fill: none; stroke: #ecd264" />
<text x="155" y="680" style="stroke: #ecd264; fill: #ecd264; font-size:12pt;  text-anchor: middle">9</text>



</svg>
