<?xml version="1.0" standalone="no"?>

<!DOCTYPE svg PUBLIC "-//W3C//DTD SVG 1.1//EN" 
"http://www.w3.org/Graphics/SVG/1.1/DTD/svg11.dtd">

<svg width="250" height="950" version="1.1"
     xmlns="http://www.w3.org/2000/svg">
<title>Transition Diagram for trans_lineref</title>
<rect x="0" y="0" width="250" height="950" style="fill: #4c76ac; stroke: #4c76ac" />

<circle cx="75" cy="25" r="20" style="stroke: #ecd264; fill: none" />
<text x="75" y="30" style="stroke: #ecd264; fill: #ecd264; font-size:12pt;  text-anchor: middle">E</text>

<circle cx="75" cy="125" r="20" style="stroke: #ecd264; fill: none" />

<path d="M 75 205,
     95 225,
     75 245,
     55 225,
     75 205"
     style="fill: none; stroke: #ecd264" />

<circle cx="75" cy="325" r="20" style="stroke: #ecd264; fill: none" />

<circle cx="75" cy="425" r="20" style="stroke: #ecd264; fill: none" />

<path d="M 75 485,
       109.6410161513775459 505,
       109.6410161513775459 545,
       75 565,
       40.35898384862245412 545,
       40.35898384862245412 505,
       75 485"
     style="stroke: #ecd264; fill: none" />
<text x="75" y="530" style="stroke: #ecd264; fill: #ecd264; font-size:12pt;  text-anchor: middle">Nameind</text>

<circle cx="75" cy="625" r="20" style="stroke: #ecd264; fill: none" />

<circle cx="75" cy="825" r="20" style="stroke: #ecd264; fill: none" />

<circle cx="75" cy="925" r="20" style="stroke: #ecd264; fill: none" />
<text x="75" y="930" style="stroke: #ecd264; fill: #ecd264; font-size:12pt;  text-anchor: middle">X</text>

<circle cx="175" cy="725" r="20" style="stroke: #ecd264; fill: none" />

<path d="M 75 45,    75 105"
          style="stroke: #ecd264; fill: none" />
<path d="M 80 96,   70 96"    style="stroke: #ecd264; fill: none" />
<path d="M 80 97,   70 97"    style="stroke: #ecd264; fill: none" />
<path d="M 79 98,   71 98"    style="stroke: #ecd264; fill: none" />
<path d="M 79 99,   71 99"    style="stroke: #ecd264; fill: none" />
<path d="M 78 100,   72 100"    style="stroke: #ecd264; fill: none" />
<path d="M 78 101,   72 101"    style="stroke: #ecd264; fill: none" />
<path d="M 77 102,   73 102"    style="stroke: #ecd264; fill: none" />
<path d="M 77 103,   73 103"    style="stroke: #ecd264; fill: none" />
<path d="M 76 104,   74 104"    style="stroke: #ecd264; fill: none" />
<path d="M 76 105,   74 105"    style="stroke: #ecd264; fill: none" />

<path d="M 75 145,    75 205"
          style="stroke: #ecd264; fill: none" />
<path d="M 80 196,   70 196"    style="stroke: #ecd264; fill: none" />
<path d="M 80 197,   70 197"    style="stroke: #ecd264; fill: none" />
<path d="M 79 198,   71 198"    style="stroke: #ecd264; fill: none" />
<path d="M 79 199,   71 199"    style="stroke: #ecd264; fill: none" />
<path d="M 78 200,   72 200"    style="stroke: #ecd264; fill: none" />
<path d="M 78 201,   72 201"    style="stroke: #ecd264; fill: none" />
<path d="M 77 202,   73 202"    style="stroke: #ecd264; fill: none" />
<path d="M 77 203,   73 203"    style="stroke: #ecd264; fill: none" />
<path d="M 76 204,   74 204"    style="stroke: #ecd264; fill: none" />
<path d="M 76 205,   74 205"    style="stroke: #ecd264; fill: none" />

<path d="M 75 245,    75 305"
          style="stroke: #ecd264; fill: none" />
<path d="M 80 296,   70 296"    style="stroke: #ecd264; fill: none" />
<path d="M 80 297,   70 297"    style="stroke: #ecd264; fill: none" />
<path d="M 79 298,   71 298"    style="stroke: #ecd264; fill: none" />
<path d="M 79 299,   71 299"    style="stroke: #ecd264; fill: none" />
<path d="M 78 300,   72 300"    style="stroke: #ecd264; fill: none" />
<path d="M 78 301,   72 301"    style="stroke: #ecd264; fill: none" />
<path d="M 77 302,   73 302"    style="stroke: #ecd264; fill: none" />
<path d="M 77 303,   73 303"    style="stroke: #ecd264; fill: none" />
<path d="M 76 304,   74 304"    style="stroke: #ecd264; fill: none" />
<path d="M 76 305,   74 305"    style="stroke: #ecd264; fill: none" />

<path d="M 75 345,    75 405"
          style="stroke: #ecd264; fill: none" />
<path d="M 80 396,   70 396"    style="stroke: #ecd264; fill: none" />
<path d="M 80 397,   70 397"    style="stroke: #ecd264; fill: none" />
<path d="M 79 398,   71 398"    style="stroke: #ecd264; fill: none" />
<path d="M 79 399,   71 399"    style="stroke: #ecd264; fill: none" />
<path d="M 78 400,   72 400"    style="stroke: #ecd264; fill: none" />
<path d="M 78 401,   72 401"    style="stroke: #ecd264; fill: none" />
<path d="M 77 402,   73 402"    style="stroke: #ecd264; fill: none" />
<path d="M 77 403,   73 403"    style="stroke: #ecd264; fill: none" />
<path d="M 76 404,   74 404"    style="stroke: #ecd264; fill: none" />
<path d="M 76 405,   74 405"    style="stroke: #ecd264; fill: none" />

<path d="M 75 445,    75 485"
          style="stroke: #ecd264; fill: none" />
<path d="M 80 476,   70 476"    style="stroke: #ecd264; fill: none" />
<path d="M 80 477,   70 477"    style="stroke: #ecd264; fill: none" />
<path d="M 79 478,   71 478"    style="stroke: #ecd264; fill: none" />
<path d="M 79 479,   71 479"    style="stroke: #ecd264; fill: none" />
<path d="M 78 480,   72 480"    style="stroke: #ecd264; fill: none" />
<path d="M 78 481,   72 481"    style="stroke: #ecd264; fill: none" />
<path d="M 77 482,   73 482"    style="stroke: #ecd264; fill: none" />
<path d="M 77 483,   73 483"    style="stroke: #ecd264; fill: none" />
<path d="M 76 484,   74 484"    style="stroke: #ecd264; fill: none" />
<path d="M 76 485,   74 485"    style="stroke: #ecd264; fill: none" />

<path d="M 75 565,    75 605"
          style="stroke: #ecd264; fill: none" />
<path d="M 80 596,   70 596"    style="stroke: #ecd264; fill: none" />
<path d="M 80 597,   70 597"    style="stroke: #ecd264; fill: none" />
<path d="M 79 598,   71 598"    style="stroke: #ecd264; fill: none" />
<path d="M 79 599,   71 599"    style="stroke: #ecd264; fill: none" />
<path d="M 78 600,   72 600"    style="stroke: #ecd264; fill: none" />
<path d="M 78 601,   72 601"    style="stroke: #ecd264; fill: none" />
<path d="M 77 602,   73 602"    style="stroke: #ecd264; fill: none" />
<path d="M 77 603,   73 603"    style="stroke: #ecd264; fill: none" />
<path d="M 76 604,   74 604"    style="stroke: #ecd264; fill: none" />
<path d="M 76 605,   74 605"    style="stroke: #ecd264; fill: none" />

<path d="M 75 645,    75 805"
          style="stroke: #ecd264; fill: none" />
<path d="M 80 796,   70 796"    style="stroke: #ecd264; fill: none" />
<path d="M 80 797,   70 797"    style="stroke: #ecd264; fill: none" />
<path d="M 79 798,   71 798"    style="stroke: #ecd264; fill: none" />
<path d="M 79 799,   71 799"    style="stroke: #ecd264; fill: none" />
<path d="M 78 800,   72 800"    style="stroke: #ecd264; fill: none" />
<path d="M 78 801,   72 801"    style="stroke: #ecd264; fill: none" />
<path d="M 77 802,   73 802"    style="stroke: #ecd264; fill: none" />
<path d="M 77 803,   73 803"    style="stroke: #ecd264; fill: none" />
<path d="M 76 804,   74 804"    style="stroke: #ecd264; fill: none" />
<path d="M 76 805,   74 805"    style="stroke: #ecd264; fill: none" />

<path d="M 75 845,    75 905"
          style="stroke: #ecd264; fill: none" />
<path d="M 80 896,   70 896"    style="stroke: #ecd264; fill: none" />
<path d="M 80 897,   70 897"    style="stroke: #ecd264; fill: none" />
<path d="M 79 898,   71 898"    style="stroke: #ecd264; fill: none" />
<path d="M 79 899,   71 899"    style="stroke: #ecd264; fill: none" />
<path d="M 78 900,   72 900"    style="stroke: #ecd264; fill: none" />
<path d="M 78 901,   72 901"    style="stroke: #ecd264; fill: none" />
<path d="M 77 902,   73 902"    style="stroke: #ecd264; fill: none" />
<path d="M 77 903,   73 903"    style="stroke: #ecd264; fill: none" />
<path d="M 76 904,   74 904"    style="stroke: #ecd264; fill: none" />
<path d="M 76 905,   74 905"    style="stroke: #ecd264; fill: none" />

<path d="M 89.14213562373095049 639.1421356237309505,    160.8578643762690495 710.8578643762690495"
          style="stroke: #ecd264; fill: none" />
<path d="M 158.0294372515228594 700.9583694396573842,   150.9583694396573842 708.0294372515228594"    style="stroke: #ecd264; fill: none" />
<path d="M 158.7365440327094069 701.6654762208439317,   151.6654762208439317 708.7365440327094069"    style="stroke: #ecd264; fill: none" />
<path d="M 158.7365440327094069 703.0796897832170267,   153.0796897832170267 708.7365440327094069"    style="stroke: #ecd264; fill: none" />
<path d="M 159.4436508138959545 703.7867965644035743,   153.7867965644035743 709.4436508138959545"    style="stroke: #ecd264; fill: none" />
<path d="M 159.4436508138959545 705.2010101267766693,   155.2010101267766693 709.4436508138959545"    style="stroke: #ecd264; fill: none" />
<path d="M 160.150757595082502 705.9081169079632168,   155.9081169079632168 710.150757595082502"    style="stroke: #ecd264; fill: none" />
<path d="M 160.1507575950825019 707.3223304703363119,   157.3223304703363119 710.1507575950825019"    style="stroke: #ecd264; fill: none" />
<path d="M 160.8578643762690495 708.0294372515228595,   158.0294372515228595 710.8578643762690495"    style="stroke: #ecd264; fill: none" />
<path d="M 160.8578643762690495 709.4436508138959545,   159.4436508138959545 710.8578643762690495"    style="stroke: #ecd264; fill: none" />
<path d="M 161.564971157455597 710.150757595082502,   160.150757595082502 711.564971157455597"    style="stroke: #ecd264; fill: none" />

<path d="M 160.8578643762690495 739.1421356237309505,    89.14213562373095049 810.8578643762690495"
          style="stroke: #ecd264; fill: none" />
<path d="M 99.0416305603426158 808.0294372515228594,   91.9705627484771406 800.9583694396573842"    style="stroke: #ecd264; fill: none" />
<path d="M 98.3345237791560683 808.7365440327094069,   91.2634559672905931 801.6654762208439317"    style="stroke: #ecd264; fill: none" />
<path d="M 96.9203102167829733 808.7365440327094069,   91.2634559672905931 803.0796897832170267"    style="stroke: #ecd264; fill: none" />
<path d="M 96.2132034355964257 809.4436508138959545,   90.5563491861040455 803.7867965644035743"    style="stroke: #ecd264; fill: none" />
<path d="M 94.7989898732233307 809.4436508138959545,   90.5563491861040455 805.2010101267766693"    style="stroke: #ecd264; fill: none" />
<path d="M 94.0918830920367832 810.150757595082502,   89.84924240491749802 805.9081169079632168"    style="stroke: #ecd264; fill: none" />
<path d="M 92.6776695296636881 810.1507575950825019,   89.84924240491749801 807.3223304703363119"    style="stroke: #ecd264; fill: none" />
<path d="M 91.97056274847714059 810.8578643762690495,   89.14213562373095049 808.0294372515228595"    style="stroke: #ecd264; fill: none" />
<path d="M 90.55634918610404553 810.8578643762690495,   89.14213562373095049 809.4436508138959545"    style="stroke: #ecd264; fill: none" />
<path d="M 89.84924240491749801 811.564971157455597,   88.43502884254440297 810.150757595082502"    style="stroke: #ecd264; fill: none" />

<path d="M 55 225,    5 225,
         5 625,
         55 625"
          style="stroke: #ecd264; fill: none" />
<path d="M 46 620,   46 630"    style="stroke: #ecd264; fill: none" />
<path d="M 47 620,   47 630"    style="stroke: #ecd264; fill: none" />
<path d="M 48 621,   48 629"    style="stroke: #ecd264; fill: none" />
<path d="M 49 621,   49 629"    style="stroke: #ecd264; fill: none" />
<path d="M 50 622,   50 628"    style="stroke: #ecd264; fill: none" />
<path d="M 51 622,   51 628"    style="stroke: #ecd264; fill: none" />
<path d="M 52 623,   52 627"    style="stroke: #ecd264; fill: none" />
<path d="M 53 623,   53 627"    style="stroke: #ecd264; fill: none" />
<path d="M 54 624,   54 626"    style="stroke: #ecd264; fill: none" />
<path d="M 55 624,   55 626"    style="stroke: #ecd264; fill: none" />

<path d="M 95 25,    175 25,
         175 325,
         95 325"
          style="stroke: #ecd264; fill: none" />
<path d="M 104 330,   104 320"    style="stroke: #ecd264; fill: none" />
<path d="M 103 330,   103 320"    style="stroke: #ecd264; fill: none" />
<path d="M 102 329,   102 321"    style="stroke: #ecd264; fill: none" />
<path d="M 101 329,   101 321"    style="stroke: #ecd264; fill: none" />
<path d="M 100 328,   100 322"    style="stroke: #ecd264; fill: none" />
<path d="M 99 328,   99 322"    style="stroke: #ecd264; fill: none" />
<path d="M 98 327,   98 323"    style="stroke: #ecd264; fill: none" />
<path d="M 97 327,   97 323"    style="stroke: #ecd264; fill: none" />
<path d="M 96 326,   96 324"    style="stroke: #ecd264; fill: none" />
<path d="M 95 326,   95 324"    style="stroke: #ecd264; fill: none" />

<path d="M 110 525,    175 525,
         175 425,
         95 425"
          style="stroke: #ecd264; fill: none" />
<path d="M 104 430,   104 420"    style="stroke: #ecd264; fill: none" />
<path d="M 103 430,   103 420"    style="stroke: #ecd264; fill: none" />
<path d="M 102 429,   102 421"    style="stroke: #ecd264; fill: none" />
<path d="M 101 429,   101 421"    style="stroke: #ecd264; fill: none" />
<path d="M 100 428,   100 422"    style="stroke: #ecd264; fill: none" />
<path d="M 99 428,   99 422"    style="stroke: #ecd264; fill: none" />
<path d="M 98 427,   98 423"    style="stroke: #ecd264; fill: none" />
<path d="M 97 427,   97 423"    style="stroke: #ecd264; fill: none" />
<path d="M 96 426,   96 424"    style="stroke: #ecd264; fill: none" />
<path d="M 95 426,   95 424"    style="stroke: #ecd264; fill: none" />

<text x="90" y="60" style="stroke: #ecd264; fill: #ecd264; font-size:12pt; text-decoration: underline;  text-anchor: left">indnam</text>

<text x="40" y="220" style="stroke: #ecd264; fill: #ecd264; font-size:12pt;  text-anchor: left">W</text>

<text x="90" y="260" style="stroke: #ecd264; fill: #ecd264; font-size:12pt;  text-anchor: left">X</text>

<text x="90" y="360" style="stroke: #ecd264; fill: #ecd264; font-size:12pt; text-decoration: underline;  text-anchor: left">label</text>

<text x="190" y="450" style="stroke: #ecd264; fill: #ecd264; font-size:12pt; text-decoration: underline;  text-anchor: left">eoi</text>

<rect x="190" y="460" width="30" height="30"
  style="fill: none; stroke: #ecd264" />
<text x="205" y="480" style="stroke: #ecd264; fill: #ecd264; font-size:12pt;  text-anchor: middle">1</text>

<rect x="90" y="560" width="30" height="30"
  style="fill: none; stroke: #ecd264" />
<text x="105" y="580" style="stroke: #ecd264; fill: #ecd264; font-size:12pt;  text-anchor: middle">2</text>

<text x="140" y="670" style="stroke: #ecd264; fill: #ecd264; font-size:12pt;  text-anchor: left">+</text>

<rect x="90" y="710" width="30" height="30"
  style="fill: none; stroke: #ecd264" />
<text x="105" y="730" style="stroke: #ecd264; fill: #ecd264; font-size:12pt;  text-anchor: middle">3</text>

<text x="160" y="770" style="stroke: #ecd264; fill: #ecd264; font-size:12pt; text-decoration: underline;  text-anchor: left">intexpr</text>

<rect x="130" y="780" width="30" height="30"
  style="fill: none; stroke: #ecd264" />
<text x="145" y="800" style="stroke: #ecd264; fill: #ecd264; font-size:12pt;  text-anchor: middle">4</text>



</svg>
