<?xml version="1.0" standalone="no"?>

<!DOCTYPE svg PUBLIC "-//W3C//DTD SVG 1.1//EN" 
"http://www.w3.org/Graphics/SVG/1.1/DTD/svg11.dtd">

<svg width="275" height="850" version="1.1"
     xmlns="http://www.w3.org/2000/svg">
<title>Transition Diagram for trans_entryref</title>
<rect x="0" y="0" width="275" height="850" style="fill: #4c76ac; stroke: #4c76ac" />

<circle cx="75" cy="25" r="20" style="stroke: #ecd264; fill: none" />
<text x="75" y="30" style="stroke: #ecd264; fill: #ecd264; font-size:12pt;  text-anchor: middle">E</text>

<circle cx="75" cy="125" r="20" style="stroke: #ecd264; fill: none" />

<circle cx="75" cy="225" r="20" style="stroke: #ecd264; fill: none" />

<path d="M 75 305,
     95 325,
     75 345,
     55 325,
     75 305"
     style="fill: none; stroke: #ecd264" />

<circle cx="75" cy="425" r="20" style="stroke: #ecd264; fill: none" />

<circle cx="75" cy="525" r="20" style="stroke: #ecd264; fill: none" />

<path d="M 75 585,
       109.6410161513775459 605,
       109.6410161513775459 645,
       75 665,
       40.35898384862245412 645,
       40.35898384862245412 605,
       75 585"
     style="stroke: #ecd264; fill: none" />
<text x="75" y="630" style="stroke: #ecd264; fill: #ecd264; font-size:12pt;  text-anchor: middle">Nameind</text>

<circle cx="75" cy="725" r="20" style="stroke: #ecd264; fill: none" />

<circle cx="75" cy="825" r="20" style="stroke: #ecd264; fill: none" />
<text x="75" y="830" style="stroke: #ecd264; fill: #ecd264; font-size:12pt;  text-anchor: middle">X</text>

<circle cx="225" cy="25" r="20" style="stroke: #ecd264; fill: none" />

<circle cx="225" cy="125" r="20" style="stroke: #ecd264; fill: none" />

<path d="M 75 45,    75 105"
          style="stroke: #ecd264; fill: none" />
<path d="M 80 96,   70 96"    style="stroke: #ecd264; fill: none" />
<path d="M 80 97,   70 97"    style="stroke: #ecd264; fill: none" />
<path d="M 79 98,   71 98"    style="stroke: #ecd264; fill: none" />
<path d="M 79 99,   71 99"    style="stroke: #ecd264; fill: none" />
<path d="M 78 100,   72 100"    style="stroke: #ecd264; fill: none" />
<path d="M 78 101,   72 101"    style="stroke: #ecd264; fill: none" />
<path d="M 77 102,   73 102"    style="stroke: #ecd264; fill: none" />
<path d="M 77 103,   73 103"    style="stroke: #ecd264; fill: none" />
<path d="M 76 104,   74 104"    style="stroke: #ecd264; fill: none" />
<path d="M 76 105,   74 105"    style="stroke: #ecd264; fill: none" />

<path d="M 75 145,    75 205"
          style="stroke: #ecd264; fill: none" />
<path d="M 80 196,   70 196"    style="stroke: #ecd264; fill: none" />
<path d="M 80 197,   70 197"    style="stroke: #ecd264; fill: none" />
<path d="M 79 198,   71 198"    style="stroke: #ecd264; fill: none" />
<path d="M 79 199,   71 199"    style="stroke: #ecd264; fill: none" />
<path d="M 78 200,   72 200"    style="stroke: #ecd264; fill: none" />
<path d="M 78 201,   72 201"    style="stroke: #ecd264; fill: none" />
<path d="M 77 202,   73 202"    style="stroke: #ecd264; fill: none" />
<path d="M 77 203,   73 203"    style="stroke: #ecd264; fill: none" />
<path d="M 76 204,   74 204"    style="stroke: #ecd264; fill: none" />
<path d="M 76 205,   74 205"    style="stroke: #ecd264; fill: none" />

<path d="M 75 245,    75 305"
          style="stroke: #ecd264; fill: none" />
<path d="M 80 296,   70 296"    style="stroke: #ecd264; fill: none" />
<path d="M 80 297,   70 297"    style="stroke: #ecd264; fill: none" />
<path d="M 79 298,   71 298"    style="stroke: #ecd264; fill: none" />
<path d="M 79 299,   71 299"    style="stroke: #ecd264; fill: none" />
<path d="M 78 300,   72 300"    style="stroke: #ecd264; fill: none" />
<path d="M 78 301,   72 301"    style="stroke: #ecd264; fill: none" />
<path d="M 77 302,   73 302"    style="stroke: #ecd264; fill: none" />
<path d="M 77 303,   73 303"    style="stroke: #ecd264; fill: none" />
<path d="M 76 304,   74 304"    style="stroke: #ecd264; fill: none" />
<path d="M 76 305,   74 305"    style="stroke: #ecd264; fill: none" />

<path d="M 75 345,    75 405"
          style="stroke: #ecd264; fill: none" />
<path d="M 80 396,   70 396"    style="stroke: #ecd264; fill: none" />
<path d="M 80 397,   70 397"    style="stroke: #ecd264; fill: none" />
<path d="M 79 398,   71 398"    style="stroke: #ecd264; fill: none" />
<path d="M 79 399,   71 399"    style="stroke: #ecd264; fill: none" />
<path d="M 78 400,   72 400"    style="stroke: #ecd264; fill: none" />
<path d="M 78 401,   72 401"    style="stroke: #ecd264; fill: none" />
<path d="M 77 402,   73 402"    style="stroke: #ecd264; fill: none" />
<path d="M 77 403,   73 403"    style="stroke: #ecd264; fill: none" />
<path d="M 76 404,   74 404"    style="stroke: #ecd264; fill: none" />
<path d="M 76 405,   74 405"    style="stroke: #ecd264; fill: none" />

<path d="M 75 445,    75 505"
          style="stroke: #ecd264; fill: none" />
<path d="M 80 496,   70 496"    style="stroke: #ecd264; fill: none" />
<path d="M 80 497,   70 497"    style="stroke: #ecd264; fill: none" />
<path d="M 79 498,   71 498"    style="stroke: #ecd264; fill: none" />
<path d="M 79 499,   71 499"    style="stroke: #ecd264; fill: none" />
<path d="M 78 500,   72 500"    style="stroke: #ecd264; fill: none" />
<path d="M 78 501,   72 501"    style="stroke: #ecd264; fill: none" />
<path d="M 77 502,   73 502"    style="stroke: #ecd264; fill: none" />
<path d="M 77 503,   73 503"    style="stroke: #ecd264; fill: none" />
<path d="M 76 504,   74 504"    style="stroke: #ecd264; fill: none" />
<path d="M 76 505,   74 505"    style="stroke: #ecd264; fill: none" />

<path d="M 75 545,    75 585"
          style="stroke: #ecd264; fill: none" />
<path d="M 80 576,   70 576"    style="stroke: #ecd264; fill: none" />
<path d="M 80 577,   70 577"    style="stroke: #ecd264; fill: none" />
<path d="M 79 578,   71 578"    style="stroke: #ecd264; fill: none" />
<path d="M 79 579,   71 579"    style="stroke: #ecd264; fill: none" />
<path d="M 78 580,   72 580"    style="stroke: #ecd264; fill: none" />
<path d="M 78 581,   72 581"    style="stroke: #ecd264; fill: none" />
<path d="M 77 582,   73 582"    style="stroke: #ecd264; fill: none" />
<path d="M 77 583,   73 583"    style="stroke: #ecd264; fill: none" />
<path d="M 76 584,   74 584"    style="stroke: #ecd264; fill: none" />
<path d="M 76 585,   74 585"    style="stroke: #ecd264; fill: none" />

<path d="M 75 665,    75 705"
          style="stroke: #ecd264; fill: none" />
<path d="M 80 696,   70 696"    style="stroke: #ecd264; fill: none" />
<path d="M 80 697,   70 697"    style="stroke: #ecd264; fill: none" />
<path d="M 79 698,   71 698"    style="stroke: #ecd264; fill: none" />
<path d="M 79 699,   71 699"    style="stroke: #ecd264; fill: none" />
<path d="M 78 700,   72 700"    style="stroke: #ecd264; fill: none" />
<path d="M 78 701,   72 701"    style="stroke: #ecd264; fill: none" />
<path d="M 77 702,   73 702"    style="stroke: #ecd264; fill: none" />
<path d="M 77 703,   73 703"    style="stroke: #ecd264; fill: none" />
<path d="M 76 704,   74 704"    style="stroke: #ecd264; fill: none" />
<path d="M 76 705,   74 705"    style="stroke: #ecd264; fill: none" />

<path d="M 75 745,    75 805"
          style="stroke: #ecd264; fill: none" />
<path d="M 80 796,   70 796"    style="stroke: #ecd264; fill: none" />
<path d="M 80 797,   70 797"    style="stroke: #ecd264; fill: none" />
<path d="M 79 798,   71 798"    style="stroke: #ecd264; fill: none" />
<path d="M 79 799,   71 799"    style="stroke: #ecd264; fill: none" />
<path d="M 78 800,   72 800"    style="stroke: #ecd264; fill: none" />
<path d="M 78 801,   72 801"    style="stroke: #ecd264; fill: none" />
<path d="M 77 802,   73 802"    style="stroke: #ecd264; fill: none" />
<path d="M 77 803,   73 803"    style="stroke: #ecd264; fill: none" />
<path d="M 76 804,   74 804"    style="stroke: #ecd264; fill: none" />
<path d="M 76 805,   74 805"    style="stroke: #ecd264; fill: none" />

<path d="M 95 25,    205 25"
          style="stroke: #ecd264; fill: none" />
<path d="M 196 20,   196 30"    style="stroke: #ecd264; fill: none" />
<path d="M 197 20,   197 30"    style="stroke: #ecd264; fill: none" />
<path d="M 198 21,   198 29"    style="stroke: #ecd264; fill: none" />
<path d="M 199 21,   199 29"    style="stroke: #ecd264; fill: none" />
<path d="M 200 22,   200 28"    style="stroke: #ecd264; fill: none" />
<path d="M 201 22,   201 28"    style="stroke: #ecd264; fill: none" />
<path d="M 202 23,   202 27"    style="stroke: #ecd264; fill: none" />
<path d="M 203 23,   203 27"    style="stroke: #ecd264; fill: none" />
<path d="M 204 24,   204 26"    style="stroke: #ecd264; fill: none" />
<path d="M 205 24,   205 26"    style="stroke: #ecd264; fill: none" />

<path d="M 225 45,    225 105"
          style="stroke: #ecd264; fill: none" />
<path d="M 230 96,   220 96"    style="stroke: #ecd264; fill: none" />
<path d="M 230 97,   220 97"    style="stroke: #ecd264; fill: none" />
<path d="M 229 98,   221 98"    style="stroke: #ecd264; fill: none" />
<path d="M 229 99,   221 99"    style="stroke: #ecd264; fill: none" />
<path d="M 228 100,   222 100"    style="stroke: #ecd264; fill: none" />
<path d="M 228 101,   222 101"    style="stroke: #ecd264; fill: none" />
<path d="M 227 102,   223 102"    style="stroke: #ecd264; fill: none" />
<path d="M 227 103,   223 103"    style="stroke: #ecd264; fill: none" />
<path d="M 226 104,   224 104"    style="stroke: #ecd264; fill: none" />
<path d="M 226 105,   224 105"    style="stroke: #ecd264; fill: none" />

<path d="M 205 125,    95 125"
          style="stroke: #ecd264; fill: none" />
<path d="M 104 130,   104 120"    style="stroke: #ecd264; fill: none" />
<path d="M 103 130,   103 120"    style="stroke: #ecd264; fill: none" />
<path d="M 102 129,   102 121"    style="stroke: #ecd264; fill: none" />
<path d="M 101 129,   101 121"    style="stroke: #ecd264; fill: none" />
<path d="M 100 128,   100 122"    style="stroke: #ecd264; fill: none" />
<path d="M 99 128,   99 122"    style="stroke: #ecd264; fill: none" />
<path d="M 98 127,   98 123"    style="stroke: #ecd264; fill: none" />
<path d="M 97 127,   97 123"    style="stroke: #ecd264; fill: none" />
<path d="M 96 126,   96 124"    style="stroke: #ecd264; fill: none" />
<path d="M 95 126,   95 124"    style="stroke: #ecd264; fill: none" />

<path d="M 55 125,    5 125,
         5 425,
         55 425"
          style="stroke: #ecd264; fill: none" />
<path d="M 46 420,   46 430"    style="stroke: #ecd264; fill: none" />
<path d="M 47 420,   47 430"    style="stroke: #ecd264; fill: none" />
<path d="M 48 421,   48 429"    style="stroke: #ecd264; fill: none" />
<path d="M 49 421,   49 429"    style="stroke: #ecd264; fill: none" />
<path d="M 50 422,   50 428"    style="stroke: #ecd264; fill: none" />
<path d="M 51 422,   51 428"    style="stroke: #ecd264; fill: none" />
<path d="M 52 423,   52 427"    style="stroke: #ecd264; fill: none" />
<path d="M 53 423,   53 427"    style="stroke: #ecd264; fill: none" />
<path d="M 54 424,   54 426"    style="stroke: #ecd264; fill: none" />
<path d="M 55 424,   55 426"    style="stroke: #ecd264; fill: none" />

<path d="M 225 145,    225 825"
          style="stroke: #ecd264; fill: none" />
<path d="M 230 816,   220 816"    style="stroke: #ecd264; fill: none" />
<path d="M 230 817,   220 817"    style="stroke: #ecd264; fill: none" />
<path d="M 229 818,   221 818"    style="stroke: #ecd264; fill: none" />
<path d="M 229 819,   221 819"    style="stroke: #ecd264; fill: none" />
<path d="M 228 820,   222 820"    style="stroke: #ecd264; fill: none" />
<path d="M 228 821,   222 821"    style="stroke: #ecd264; fill: none" />
<path d="M 227 822,   223 822"    style="stroke: #ecd264; fill: none" />
<path d="M 227 823,   223 823"    style="stroke: #ecd264; fill: none" />
<path d="M 226 824,   224 824"    style="stroke: #ecd264; fill: none" />
<path d="M 226 825,   224 825"    style="stroke: #ecd264; fill: none" />

<path d="M 225 825,    95 825"
          style="stroke: #ecd264; fill: none" />
<path d="M 104 830,   104 820"    style="stroke: #ecd264; fill: none" />
<path d="M 103 830,   103 820"    style="stroke: #ecd264; fill: none" />
<path d="M 102 829,   102 821"    style="stroke: #ecd264; fill: none" />
<path d="M 101 829,   101 821"    style="stroke: #ecd264; fill: none" />
<path d="M 100 828,   100 822"    style="stroke: #ecd264; fill: none" />
<path d="M 99 828,   99 822"    style="stroke: #ecd264; fill: none" />
<path d="M 98 827,   98 823"    style="stroke: #ecd264; fill: none" />
<path d="M 97 827,   97 823"    style="stroke: #ecd264; fill: none" />
<path d="M 96 826,   96 824"    style="stroke: #ecd264; fill: none" />
<path d="M 95 826,   95 824"    style="stroke: #ecd264; fill: none" />

<path d="M 95 325,    175 325,
         175 825"
          style="stroke: #ecd264; fill: none" />
<path d="M 180 816,   170 816"    style="stroke: #ecd264; fill: none" />
<path d="M 180 817,   170 817"    style="stroke: #ecd264; fill: none" />
<path d="M 179 818,   171 818"    style="stroke: #ecd264; fill: none" />
<path d="M 179 819,   171 819"    style="stroke: #ecd264; fill: none" />
<path d="M 178 820,   172 820"    style="stroke: #ecd264; fill: none" />
<path d="M 178 821,   172 821"    style="stroke: #ecd264; fill: none" />
<path d="M 177 822,   173 822"    style="stroke: #ecd264; fill: none" />
<path d="M 177 823,   173 823"    style="stroke: #ecd264; fill: none" />
<path d="M 176 824,   174 824"    style="stroke: #ecd264; fill: none" />
<path d="M 176 825,   174 825"    style="stroke: #ecd264; fill: none" />

<path d="M 110 625,    125 625,
         125 525,
         95 525"
          style="stroke: #ecd264; fill: none" />
<path d="M 104 530,   104 520"    style="stroke: #ecd264; fill: none" />
<path d="M 103 530,   103 520"    style="stroke: #ecd264; fill: none" />
<path d="M 102 529,   102 521"    style="stroke: #ecd264; fill: none" />
<path d="M 101 529,   101 521"    style="stroke: #ecd264; fill: none" />
<path d="M 100 528,   100 522"    style="stroke: #ecd264; fill: none" />
<path d="M 99 528,   99 522"    style="stroke: #ecd264; fill: none" />
<path d="M 98 527,   98 523"    style="stroke: #ecd264; fill: none" />
<path d="M 97 527,   97 523"    style="stroke: #ecd264; fill: none" />
<path d="M 96 526,   96 524"    style="stroke: #ecd264; fill: none" />
<path d="M 95 526,   95 524"    style="stroke: #ecd264; fill: none" />

<text x="120" y="20" style="stroke: #ecd264; fill: #ecd264; font-size:12pt; text-decoration: underline;  text-anchor: left">lineref</text>

<text x="90" y="60" style="stroke: #ecd264; fill: #ecd264; font-size:12pt;  text-anchor: left">^</text>

<rect x="90" y="70" width="30" height="30"
  style="fill: none; stroke: #ecd264" />
<text x="105" y="90" style="stroke: #ecd264; fill: #ecd264; font-size:12pt;  text-anchor: middle">1</text>

<rect x="240" y="65" width="30" height="30"
  style="fill: none; stroke: #ecd264" />
<text x="255" y="85" style="stroke: #ecd264; fill: #ecd264; font-size:12pt;  text-anchor: middle">2</text>

<text x="150" y="120" style="stroke: #ecd264; fill: #ecd264; font-size:12pt;  text-anchor: left">^</text>

<text x="90" y="170" style="stroke: #ecd264; fill: #ecd264; font-size:12pt; text-decoration: underline;  text-anchor: left">indnam</text>

<text x="110" y="320" style="stroke: #ecd264; fill: #ecd264; font-size:12pt;  text-anchor: left">W</text>

<text x="90" y="370" style="stroke: #ecd264; fill: #ecd264; font-size:12pt;  text-anchor: left">X</text>

<text x="90" y="470" style="stroke: #ecd264; fill: #ecd264; font-size:12pt; text-decoration: underline;  text-anchor: left">name</text>

<rect x="90" y="660" width="30" height="30"
  style="fill: none; stroke: #ecd264" />
<text x="105" y="680" style="stroke: #ecd264; fill: #ecd264; font-size:12pt;  text-anchor: middle">5</text>

<rect x="240" y="450" width="30" height="30"
  style="fill: none; stroke: #ecd264" />
<text x="255" y="470" style="stroke: #ecd264; fill: #ecd264; font-size:12pt;  text-anchor: middle">3</text>

<text x="130" y="560" style="stroke: #ecd264; fill: #ecd264; font-size:12pt; text-decoration: underline;  text-anchor: left">eoi</text>

<rect x="130" y="570" width="30" height="30"
  style="fill: none; stroke: #ecd264" />
<text x="145" y="590" style="stroke: #ecd264; fill: #ecd264; font-size:12pt;  text-anchor: middle">4</text>



</svg>
