<?xml version="1.0" standalone="no"?>

<!DOCTYPE svg PUBLIC "-//W3C//DTD SVG 1.1//EN" 
"http://www.w3.org/Graphics/SVG/1.1/DTD/svg11.dtd">

<svg width="400" height="650" version="1.1"
     xmlns="http://www.w3.org/2000/svg">
<title>Transition Diagram for trans_nref</title>
<rect x="0" y="0" width="400" height="650" style="fill: #4c76ac; stroke: #4c76ac" />

<circle cx="25" cy="25" r="20" style="stroke: #ecd264; fill: none" />
<text x="25" y="30" style="stroke: #ecd264; fill: #ecd264; font-size:12pt;  text-anchor: middle">E</text>

<circle cx="125" cy="25" r="20" style="stroke: #ecd264; fill: none" />

<path d="M 225 5,
     245 25,
     225 45,
     205 25,
     225 5"
     style="fill: none; stroke: #ecd264" />

<circle cx="225" cy="125" r="20" style="stroke: #ecd264; fill: none" />

<circle cx="325" cy="125" r="20" style="stroke: #ecd264; fill: none" />

<circle cx="325" cy="225" r="20" style="stroke: #ecd264; fill: none" />

<circle cx="325" cy="325" r="20" style="stroke: #ecd264; fill: none" />

<circle cx="325" cy="425" r="20" style="stroke: #ecd264; fill: none" />

<circle cx="225" cy="425" r="20" style="stroke: #ecd264; fill: none" />

<circle cx="125" cy="425" r="20" style="stroke: #ecd264; fill: none" />

<path d="M 125 485,
       159.6410161513775459 505,
       159.6410161513775459 545,
       125 565,
       90.3589838486224541 545,
       90.3589838486224541 505,
       125 485"
     style="stroke: #ecd264; fill: none" />
<text x="125" y="530" style="stroke: #ecd264; fill: #ecd264; font-size:12pt;  text-anchor: middle">Nameind</text>

<circle cx="125" cy="625" r="20" style="stroke: #ecd264; fill: none" />
<text x="125" y="630" style="stroke: #ecd264; fill: #ecd264; font-size:12pt;  text-anchor: middle">X</text>

<path d="M 45 25,    105 25"
          style="stroke: #ecd264; fill: none" />
<path d="M 96 20,   96 30"    style="stroke: #ecd264; fill: none" />
<path d="M 97 20,   97 30"    style="stroke: #ecd264; fill: none" />
<path d="M 98 21,   98 29"    style="stroke: #ecd264; fill: none" />
<path d="M 99 21,   99 29"    style="stroke: #ecd264; fill: none" />
<path d="M 100 22,   100 28"    style="stroke: #ecd264; fill: none" />
<path d="M 101 22,   101 28"    style="stroke: #ecd264; fill: none" />
<path d="M 102 23,   102 27"    style="stroke: #ecd264; fill: none" />
<path d="M 103 23,   103 27"    style="stroke: #ecd264; fill: none" />
<path d="M 104 24,   104 26"    style="stroke: #ecd264; fill: none" />
<path d="M 105 24,   105 26"    style="stroke: #ecd264; fill: none" />

<path d="M 145 25,    205 25"
          style="stroke: #ecd264; fill: none" />
<path d="M 196 20,   196 30"    style="stroke: #ecd264; fill: none" />
<path d="M 197 20,   197 30"    style="stroke: #ecd264; fill: none" />
<path d="M 198 21,   198 29"    style="stroke: #ecd264; fill: none" />
<path d="M 199 21,   199 29"    style="stroke: #ecd264; fill: none" />
<path d="M 200 22,   200 28"    style="stroke: #ecd264; fill: none" />
<path d="M 201 22,   201 28"    style="stroke: #ecd264; fill: none" />
<path d="M 202 23,   202 27"    style="stroke: #ecd264; fill: none" />
<path d="M 203 23,   203 27"    style="stroke: #ecd264; fill: none" />
<path d="M 204 24,   204 26"    style="stroke: #ecd264; fill: none" />
<path d="M 205 24,   205 26"    style="stroke: #ecd264; fill: none" />

<path d="M 225 45,    225 105"
          style="stroke: #ecd264; fill: none" />
<path d="M 230 96,   220 96"    style="stroke: #ecd264; fill: none" />
<path d="M 230 97,   220 97"    style="stroke: #ecd264; fill: none" />
<path d="M 229 98,   221 98"    style="stroke: #ecd264; fill: none" />
<path d="M 229 99,   221 99"    style="stroke: #ecd264; fill: none" />
<path d="M 228 100,   222 100"    style="stroke: #ecd264; fill: none" />
<path d="M 228 101,   222 101"    style="stroke: #ecd264; fill: none" />
<path d="M 227 102,   223 102"    style="stroke: #ecd264; fill: none" />
<path d="M 227 103,   223 103"    style="stroke: #ecd264; fill: none" />
<path d="M 226 104,   224 104"    style="stroke: #ecd264; fill: none" />
<path d="M 226 105,   224 105"    style="stroke: #ecd264; fill: none" />

<path d="M 25 45,    25 125,
         205 125"
          style="stroke: #ecd264; fill: none" />
<path d="M 196 120,   196 130"    style="stroke: #ecd264; fill: none" />
<path d="M 197 120,   197 130"    style="stroke: #ecd264; fill: none" />
<path d="M 198 121,   198 129"    style="stroke: #ecd264; fill: none" />
<path d="M 199 121,   199 129"    style="stroke: #ecd264; fill: none" />
<path d="M 200 122,   200 128"    style="stroke: #ecd264; fill: none" />
<path d="M 201 122,   201 128"    style="stroke: #ecd264; fill: none" />
<path d="M 202 123,   202 127"    style="stroke: #ecd264; fill: none" />
<path d="M 203 123,   203 127"    style="stroke: #ecd264; fill: none" />
<path d="M 204 124,   204 126"    style="stroke: #ecd264; fill: none" />
<path d="M 205 124,   205 126"    style="stroke: #ecd264; fill: none" />

<path d="M 245 125,    305 125"
          style="stroke: #ecd264; fill: none" />
<path d="M 296 120,   296 130"    style="stroke: #ecd264; fill: none" />
<path d="M 297 120,   297 130"    style="stroke: #ecd264; fill: none" />
<path d="M 298 121,   298 129"    style="stroke: #ecd264; fill: none" />
<path d="M 299 121,   299 129"    style="stroke: #ecd264; fill: none" />
<path d="M 300 122,   300 128"    style="stroke: #ecd264; fill: none" />
<path d="M 301 122,   301 128"    style="stroke: #ecd264; fill: none" />
<path d="M 302 123,   302 127"    style="stroke: #ecd264; fill: none" />
<path d="M 303 123,   303 127"    style="stroke: #ecd264; fill: none" />
<path d="M 304 124,   304 126"    style="stroke: #ecd264; fill: none" />
<path d="M 305 124,   305 126"    style="stroke: #ecd264; fill: none" />

<path d="M 325 145,    325 205"
          style="stroke: #ecd264; fill: none" />
<path d="M 330 196,   320 196"    style="stroke: #ecd264; fill: none" />
<path d="M 330 197,   320 197"    style="stroke: #ecd264; fill: none" />
<path d="M 329 198,   321 198"    style="stroke: #ecd264; fill: none" />
<path d="M 329 199,   321 199"    style="stroke: #ecd264; fill: none" />
<path d="M 328 200,   322 200"    style="stroke: #ecd264; fill: none" />
<path d="M 328 201,   322 201"    style="stroke: #ecd264; fill: none" />
<path d="M 327 202,   323 202"    style="stroke: #ecd264; fill: none" />
<path d="M 327 203,   323 203"    style="stroke: #ecd264; fill: none" />
<path d="M 326 204,   324 204"    style="stroke: #ecd264; fill: none" />
<path d="M 326 205,   324 205"    style="stroke: #ecd264; fill: none" />

<path d="M 225 145,    225 225,
         305 225"
          style="stroke: #ecd264; fill: none" />
<path d="M 296 220,   296 230"    style="stroke: #ecd264; fill: none" />
<path d="M 297 220,   297 230"    style="stroke: #ecd264; fill: none" />
<path d="M 298 221,   298 229"    style="stroke: #ecd264; fill: none" />
<path d="M 299 221,   299 229"    style="stroke: #ecd264; fill: none" />
<path d="M 300 222,   300 228"    style="stroke: #ecd264; fill: none" />
<path d="M 301 222,   301 228"    style="stroke: #ecd264; fill: none" />
<path d="M 302 223,   302 227"    style="stroke: #ecd264; fill: none" />
<path d="M 303 223,   303 227"    style="stroke: #ecd264; fill: none" />
<path d="M 304 224,   304 226"    style="stroke: #ecd264; fill: none" />
<path d="M 305 224,   305 226"    style="stroke: #ecd264; fill: none" />

<path d="M 325 245,    325 305"
          style="stroke: #ecd264; fill: none" />
<path d="M 330 296,   320 296"    style="stroke: #ecd264; fill: none" />
<path d="M 330 297,   320 297"    style="stroke: #ecd264; fill: none" />
<path d="M 329 298,   321 298"    style="stroke: #ecd264; fill: none" />
<path d="M 329 299,   321 299"    style="stroke: #ecd264; fill: none" />
<path d="M 328 300,   322 300"    style="stroke: #ecd264; fill: none" />
<path d="M 328 301,   322 301"    style="stroke: #ecd264; fill: none" />
<path d="M 327 302,   323 302"    style="stroke: #ecd264; fill: none" />
<path d="M 327 303,   323 303"    style="stroke: #ecd264; fill: none" />
<path d="M 326 304,   324 304"    style="stroke: #ecd264; fill: none" />
<path d="M 326 305,   324 305"    style="stroke: #ecd264; fill: none" />

<path d="M 325 345,    325 405"
          style="stroke: #ecd264; fill: none" />
<path d="M 330 396,   320 396"    style="stroke: #ecd264; fill: none" />
<path d="M 330 397,   320 397"    style="stroke: #ecd264; fill: none" />
<path d="M 329 398,   321 398"    style="stroke: #ecd264; fill: none" />
<path d="M 329 399,   321 399"    style="stroke: #ecd264; fill: none" />
<path d="M 328 400,   322 400"    style="stroke: #ecd264; fill: none" />
<path d="M 328 401,   322 401"    style="stroke: #ecd264; fill: none" />
<path d="M 327 402,   323 402"    style="stroke: #ecd264; fill: none" />
<path d="M 327 403,   323 403"    style="stroke: #ecd264; fill: none" />
<path d="M 326 404,   324 404"    style="stroke: #ecd264; fill: none" />
<path d="M 326 405,   324 405"    style="stroke: #ecd264; fill: none" />

<path d="M 305 325,    125 325,
         125 405"
          style="stroke: #ecd264; fill: none" />
<path d="M 130 396,   120 396"    style="stroke: #ecd264; fill: none" />
<path d="M 130 397,   120 397"    style="stroke: #ecd264; fill: none" />
<path d="M 129 398,   121 398"    style="stroke: #ecd264; fill: none" />
<path d="M 129 399,   121 399"    style="stroke: #ecd264; fill: none" />
<path d="M 128 400,   122 400"    style="stroke: #ecd264; fill: none" />
<path d="M 128 401,   122 401"    style="stroke: #ecd264; fill: none" />
<path d="M 127 402,   123 402"    style="stroke: #ecd264; fill: none" />
<path d="M 127 403,   123 403"    style="stroke: #ecd264; fill: none" />
<path d="M 126 404,   124 404"    style="stroke: #ecd264; fill: none" />
<path d="M 126 405,   124 405"    style="stroke: #ecd264; fill: none" />

<path d="M 305 425,    245 425"
          style="stroke: #ecd264; fill: none" />
<path d="M 254 430,   254 420"    style="stroke: #ecd264; fill: none" />
<path d="M 253 430,   253 420"    style="stroke: #ecd264; fill: none" />
<path d="M 252 429,   252 421"    style="stroke: #ecd264; fill: none" />
<path d="M 251 429,   251 421"    style="stroke: #ecd264; fill: none" />
<path d="M 250 428,   250 422"    style="stroke: #ecd264; fill: none" />
<path d="M 249 428,   249 422"    style="stroke: #ecd264; fill: none" />
<path d="M 248 427,   248 423"    style="stroke: #ecd264; fill: none" />
<path d="M 247 427,   247 423"    style="stroke: #ecd264; fill: none" />
<path d="M 246 426,   246 424"    style="stroke: #ecd264; fill: none" />
<path d="M 245 426,   245 424"    style="stroke: #ecd264; fill: none" />

<path d="M 205 425,    145 425"
          style="stroke: #ecd264; fill: none" />
<path d="M 154 430,   154 420"    style="stroke: #ecd264; fill: none" />
<path d="M 153 430,   153 420"    style="stroke: #ecd264; fill: none" />
<path d="M 152 429,   152 421"    style="stroke: #ecd264; fill: none" />
<path d="M 151 429,   151 421"    style="stroke: #ecd264; fill: none" />
<path d="M 150 428,   150 422"    style="stroke: #ecd264; fill: none" />
<path d="M 149 428,   149 422"    style="stroke: #ecd264; fill: none" />
<path d="M 148 427,   148 423"    style="stroke: #ecd264; fill: none" />
<path d="M 147 427,   147 423"    style="stroke: #ecd264; fill: none" />
<path d="M 146 426,   146 424"    style="stroke: #ecd264; fill: none" />
<path d="M 145 426,   145 424"    style="stroke: #ecd264; fill: none" />

<path d="M 233.9442719099991588 442.8885438199983176,    250 475,
         300 474,
         315.9105931662425204 442.8152373941646601"
          style="stroke: #ecd264; fill: none" />
<path d="M 307.3665507425104895 448.5597425130993873,   316.2741694395928195 453.1044459299781271"    style="stroke: #ecd264; fill: none" />
<path d="M 307.8210210841983635 447.6689806433911542,   316.7286397812806935 452.213684060269894"    style="stroke: #ecd264; fill: none" />
<path d="M 309.1662532955944705 447.2326891153707952,   316.2923482532603345 450.868451848873787"    style="stroke: #ecd264; fill: none" />
<path d="M 309.6207236372823445 446.3419272456625622,   316.7468185949482085 449.977689979165554"    style="stroke: #ecd264; fill: none" />
<path d="M 310.9659558486784514 445.9056357176422032,   316.3105270669278494 448.632457767769447"    style="stroke: #ecd264; fill: none" />
<path d="M 311.4204261903663254 445.0148738479339702,   316.7649974086157234 447.741695898061214"    style="stroke: #ecd264; fill: none" />
<path d="M 312.7656584017624324 444.5785823199136111,   316.3287058805953644 446.3964636866651071"    style="stroke: #ecd264; fill: none" />
<path d="M 313.2201287434503064 443.6878204502053781,   316.7831762222832384 445.5057018169568741"    style="stroke: #ecd264; fill: none" />
<path d="M 314.5653609548464134 443.2515289221850191,   316.3468846942628794 444.1604696055607671"    style="stroke: #ecd264; fill: none" />
<path d="M 315.0198312965342874 442.3607670524767861,   316.8013550359507534 443.2697077358525341"    style="stroke: #ecd264; fill: none" />

<path d="M 125 445,    125 485"
          style="stroke: #ecd264; fill: none" />
<path d="M 130 476,   120 476"    style="stroke: #ecd264; fill: none" />
<path d="M 130 477,   120 477"    style="stroke: #ecd264; fill: none" />
<path d="M 129 478,   121 478"    style="stroke: #ecd264; fill: none" />
<path d="M 129 479,   121 479"    style="stroke: #ecd264; fill: none" />
<path d="M 128 480,   122 480"    style="stroke: #ecd264; fill: none" />
<path d="M 128 481,   122 481"    style="stroke: #ecd264; fill: none" />
<path d="M 127 482,   123 482"    style="stroke: #ecd264; fill: none" />
<path d="M 127 483,   123 483"    style="stroke: #ecd264; fill: none" />
<path d="M 126 484,   124 484"    style="stroke: #ecd264; fill: none" />
<path d="M 126 485,   124 485"    style="stroke: #ecd264; fill: none" />

<path d="M 125 565,    125 605"
          style="stroke: #ecd264; fill: none" />
<path d="M 130 596,   120 596"    style="stroke: #ecd264; fill: none" />
<path d="M 130 597,   120 597"    style="stroke: #ecd264; fill: none" />
<path d="M 129 598,   121 598"    style="stroke: #ecd264; fill: none" />
<path d="M 129 599,   121 599"    style="stroke: #ecd264; fill: none" />
<path d="M 128 600,   122 600"    style="stroke: #ecd264; fill: none" />
<path d="M 128 601,   122 601"    style="stroke: #ecd264; fill: none" />
<path d="M 127 602,   123 602"    style="stroke: #ecd264; fill: none" />
<path d="M 127 603,   123 603"    style="stroke: #ecd264; fill: none" />
<path d="M 126 604,   124 604"    style="stroke: #ecd264; fill: none" />
<path d="M 126 605,   124 605"    style="stroke: #ecd264; fill: none" />

<path d="M 90 525,    50 525,
         50 425,
         105 425"
          style="stroke: #ecd264; fill: none" />
<path d="M 96 420,   96 430"    style="stroke: #ecd264; fill: none" />
<path d="M 97 420,   97 430"    style="stroke: #ecd264; fill: none" />
<path d="M 98 421,   98 429"    style="stroke: #ecd264; fill: none" />
<path d="M 99 421,   99 429"    style="stroke: #ecd264; fill: none" />
<path d="M 100 422,   100 428"    style="stroke: #ecd264; fill: none" />
<path d="M 101 422,   101 428"    style="stroke: #ecd264; fill: none" />
<path d="M 102 423,   102 427"    style="stroke: #ecd264; fill: none" />
<path d="M 103 423,   103 427"    style="stroke: #ecd264; fill: none" />
<path d="M 104 424,   104 426"    style="stroke: #ecd264; fill: none" />
<path d="M 105 424,   105 426"    style="stroke: #ecd264; fill: none" />

<path d="M 245 25,    395 25,
         395 625,
         145 625"
          style="stroke: #ecd264; fill: none" />
<path d="M 154 630,   154 620"    style="stroke: #ecd264; fill: none" />
<path d="M 153 630,   153 620"    style="stroke: #ecd264; fill: none" />
<path d="M 152 629,   152 621"    style="stroke: #ecd264; fill: none" />
<path d="M 151 629,   151 621"    style="stroke: #ecd264; fill: none" />
<path d="M 150 628,   150 622"    style="stroke: #ecd264; fill: none" />
<path d="M 149 628,   149 622"    style="stroke: #ecd264; fill: none" />
<path d="M 148 627,   148 623"    style="stroke: #ecd264; fill: none" />
<path d="M 147 627,   147 623"    style="stroke: #ecd264; fill: none" />
<path d="M 146 626,   146 624"    style="stroke: #ecd264; fill: none" />
<path d="M 145 626,   145 624"    style="stroke: #ecd264; fill: none" />

<text x="45" y="20" style="stroke: #ecd264; fill: #ecd264; font-size:12pt; text-decoration: underline;  text-anchor: left">indnam</text>

<text x="260" y="20" style="stroke: #ecd264; fill: #ecd264; font-size:12pt;  text-anchor: left">W</text>

<text x="240" y="60" style="stroke: #ecd264; fill: #ecd264; font-size:12pt;  text-anchor: left">X</text>

<text x="260" y="120" style="stroke: #ecd264; fill: #ecd264; font-size:12pt;  text-anchor: left">^</text>

<rect x="240" y="160" width="30" height="30"
  style="fill: none; stroke: #ecd264" />
<text x="255" y="180" style="stroke: #ecd264; fill: #ecd264; font-size:12pt;  text-anchor: middle">1</text>

<rect x="340" y="160" width="30" height="30"
  style="fill: none; stroke: #ecd264" />
<text x="355" y="180" style="stroke: #ecd264; fill: #ecd264; font-size:12pt;  text-anchor: middle">2</text>

<text x="340" y="260" style="stroke: #ecd264; fill: #ecd264; font-size:12pt; text-decoration: underline;  text-anchor: left">name</text>

<rect x="340" y="270" width="30" height="30"
  style="fill: none; stroke: #ecd264" />
<text x="355" y="290" style="stroke: #ecd264; fill: #ecd264; font-size:12pt;  text-anchor: middle">3</text>

<text x="340" y="360" style="stroke: #ecd264; fill: #ecd264; font-size:12pt;  text-anchor: left">(</text>

<rect x="340" y="370" width="30" height="30"
  style="fill: none; stroke: #ecd264" />
<text x="355" y="390" style="stroke: #ecd264; fill: #ecd264; font-size:12pt;  text-anchor: middle">4</text>

<text x="250" y="420" style="stroke: #ecd264; fill: #ecd264; font-size:12pt; text-decoration: underline;  text-anchor: left">expr</text>

<rect x="270" y="375" width="30" height="30"
  style="fill: none; stroke: #ecd264" />
<text x="285" y="395" style="stroke: #ecd264; fill: #ecd264; font-size:12pt;  text-anchor: middle">5</text>

<text x="150" y="415" style="stroke: #ecd264; fill: #ecd264; font-size:12pt;  text-anchor: left">)</text>

<rect x="170" y="390" width="30" height="30"
  style="fill: none; stroke: #ecd264" />
<text x="185" y="410" style="stroke: #ecd264; fill: #ecd264; font-size:12pt;  text-anchor: middle">6</text>

<text x="5" y="440" style="stroke: #ecd264; fill: #ecd264; font-size:12pt; text-decoration: underline;  text-anchor: left">eoi</text>

<rect x="5" y="450" width="30" height="30"
  style="fill: none; stroke: #ecd264" />
<text x="20" y="470" style="stroke: #ecd264; fill: #ecd264; font-size:12pt;  text-anchor: middle">7</text>

<rect x="140" y="560" width="30" height="30"
  style="fill: none; stroke: #ecd264" />
<text x="155" y="580" style="stroke: #ecd264; fill: #ecd264; font-size:12pt;  text-anchor: middle">8</text>

<text x="270" y="480" style="stroke: #ecd264; fill: #ecd264; font-size:12pt;  text-anchor: left">,</text>



</svg>
