<?xml version="1.0" standalone="no"?>

<!DOCTYPE svg PUBLIC "-//W3C//DTD SVG 1.1//EN" 
"http://www.w3.org/Graphics/SVG/1.1/DTD/svg11.dtd">

<svg width="200" height="450" version="1.1"
     xmlns="http://www.w3.org/2000/svg">
<title>Transition Diagram for trans_length</title>
<rect x="0" y="0" width="200" height="450" style="fill: #4c76ac; stroke: #4c76ac" />

<circle cx="25" cy="25" r="20" style="stroke: #ecd264; fill: none" />
<text x="25" y="30" style="stroke: #ecd264; fill: #ecd264; font-size:12pt;  text-anchor: middle">E</text>

<circle cx="25" cy="125" r="20" style="stroke: #ecd264; fill: none" />

<circle cx="125" cy="225" r="20" style="stroke: #ecd264; fill: none" />

<circle cx="125" cy="325" r="20" style="stroke: #ecd264; fill: none" />

<circle cx="25" cy="425" r="20" style="stroke: #ecd264; fill: none" />
<text x="25" y="430" style="stroke: #ecd264; fill: #ecd264; font-size:12pt;  text-anchor: middle">X</text>

<path d="M 25 45,    25 105"
          style="stroke: #ecd264; fill: none" />
<path d="M 30 96,   20 96"    style="stroke: #ecd264; fill: none" />
<path d="M 30 97,   20 97"    style="stroke: #ecd264; fill: none" />
<path d="M 29 98,   21 98"    style="stroke: #ecd264; fill: none" />
<path d="M 29 99,   21 99"    style="stroke: #ecd264; fill: none" />
<path d="M 28 100,   22 100"    style="stroke: #ecd264; fill: none" />
<path d="M 28 101,   22 101"    style="stroke: #ecd264; fill: none" />
<path d="M 27 102,   23 102"    style="stroke: #ecd264; fill: none" />
<path d="M 27 103,   23 103"    style="stroke: #ecd264; fill: none" />
<path d="M 26 104,   24 104"    style="stroke: #ecd264; fill: none" />
<path d="M 26 105,   24 105"    style="stroke: #ecd264; fill: none" />

<path d="M 25 145,    25 405"
          style="stroke: #ecd264; fill: none" />
<path d="M 30 396,   20 396"    style="stroke: #ecd264; fill: none" />
<path d="M 30 397,   20 397"    style="stroke: #ecd264; fill: none" />
<path d="M 29 398,   21 398"    style="stroke: #ecd264; fill: none" />
<path d="M 29 399,   21 399"    style="stroke: #ecd264; fill: none" />
<path d="M 28 400,   22 400"    style="stroke: #ecd264; fill: none" />
<path d="M 28 401,   22 401"    style="stroke: #ecd264; fill: none" />
<path d="M 27 402,   23 402"    style="stroke: #ecd264; fill: none" />
<path d="M 27 403,   23 403"    style="stroke: #ecd264; fill: none" />
<path d="M 26 404,   24 404"    style="stroke: #ecd264; fill: none" />
<path d="M 26 405,   24 405"    style="stroke: #ecd264; fill: none" />

<path d="M 39.14213562373095049 139.1421356237309505,    110.8578643762690495 210.8578643762690495"
          style="stroke: #ecd264; fill: none" />
<path d="M 108.0294372515228594 200.9583694396573842,   100.9583694396573842 208.0294372515228594"    style="stroke: #ecd264; fill: none" />
<path d="M 108.7365440327094069 201.6654762208439317,   101.6654762208439317 208.7365440327094069"    style="stroke: #ecd264; fill: none" />
<path d="M 108.7365440327094069 203.0796897832170267,   103.0796897832170267 208.7365440327094069"    style="stroke: #ecd264; fill: none" />
<path d="M 109.4436508138959545 203.7867965644035743,   103.7867965644035743 209.4436508138959545"    style="stroke: #ecd264; fill: none" />
<path d="M 109.4436508138959545 205.2010101267766693,   105.2010101267766693 209.4436508138959545"    style="stroke: #ecd264; fill: none" />
<path d="M 110.150757595082502 205.9081169079632168,   105.9081169079632168 210.150757595082502"    style="stroke: #ecd264; fill: none" />
<path d="M 110.1507575950825019 207.3223304703363119,   107.3223304703363119 210.1507575950825019"    style="stroke: #ecd264; fill: none" />
<path d="M 110.8578643762690495 208.0294372515228595,   108.0294372515228595 210.8578643762690495"    style="stroke: #ecd264; fill: none" />
<path d="M 110.8578643762690495 209.4436508138959545,   109.4436508138959545 210.8578643762690495"    style="stroke: #ecd264; fill: none" />
<path d="M 111.564971157455597 210.150757595082502,   110.150757595082502 211.564971157455597"    style="stroke: #ecd264; fill: none" />

<path d="M 125 245,    125 305"
          style="stroke: #ecd264; fill: none" />
<path d="M 130 296,   120 296"    style="stroke: #ecd264; fill: none" />
<path d="M 130 297,   120 297"    style="stroke: #ecd264; fill: none" />
<path d="M 129 298,   121 298"    style="stroke: #ecd264; fill: none" />
<path d="M 129 299,   121 299"    style="stroke: #ecd264; fill: none" />
<path d="M 128 300,   122 300"    style="stroke: #ecd264; fill: none" />
<path d="M 128 301,   122 301"    style="stroke: #ecd264; fill: none" />
<path d="M 127 302,   123 302"    style="stroke: #ecd264; fill: none" />
<path d="M 127 303,   123 303"    style="stroke: #ecd264; fill: none" />
<path d="M 126 304,   124 304"    style="stroke: #ecd264; fill: none" />
<path d="M 126 305,   124 305"    style="stroke: #ecd264; fill: none" />

<path d="M 110.7869778197958545 339.070891958402104,    39.21302218020414549 409.929108041597896"
          style="stroke: #ecd264; fill: none" />
<path d="M 49.12660515089653697 407.1504622053679856,   42.09115917169548495 400.0439511152659128"    style="stroke: #ecd264; fill: none" />
<path d="M 48.4159540418863297 407.8540068032880908,   41.38050806268527768 400.747495713186018"    style="stroke: #ecd264; fill: none" />
<path d="M 47.00175833495601722 407.8469002921979887,   41.3734015515951756 402.1616914201163305"    style="stroke: #ecd264; fill: none" />
<path d="M 46.29110722594580995 408.5504448901180939,   40.66275044258496833 402.8652360180364357"    style="stroke: #ecd264; fill: none" />
<path d="M 44.87691151901549747 408.5433383790279918,   40.65564393149486625 404.2794317249667482"    style="stroke: #ecd264; fill: none" />
<path d="M 44.1662604100052902 409.246882976948097,   39.94499282248465898 404.9829763228868534"    style="stroke: #ecd264; fill: none" />
<path d="M 42.75206470307497771 409.2397764658579949,   39.93788631139455691 406.3971720298171659"    style="stroke: #ecd264; fill: none" />
<path d="M 42.04141359406477044 409.9433210637781001,   39.22723520238434964 407.1007166277372711"    style="stroke: #ecd264; fill: none" />
<path d="M 40.62721788713445796 409.9362145526879981,   39.22012869129424756 408.5149123346675835"    style="stroke: #ecd264; fill: none" />
<path d="M 39.91656677812425069 410.6397591506081033,   38.50947758228404029 409.2184569325876887"    style="stroke: #ecd264; fill: none" />

<text x="40" y="60" style="stroke: #ecd264; fill: #ecd264; font-size:12pt; text-decoration: underline;  text-anchor: left">expr</text>

<rect x="40" y="70" width="30" height="30"
  style="fill: none; stroke: #ecd264" />
<text x="55" y="90" style="stroke: #ecd264; fill: #ecd264; font-size:12pt;  text-anchor: middle">1</text>

<text x="40" y="260" style="stroke: #ecd264; fill: #ecd264; font-size:12pt;  text-anchor: left">)</text>

<rect x="40" y="270" width="30" height="30"
  style="fill: none; stroke: #ecd264" />
<text x="55" y="290" style="stroke: #ecd264; fill: #ecd264; font-size:12pt;  text-anchor: middle">2</text>

<text x="80" y="160" style="stroke: #ecd264; fill: #ecd264; font-size:12pt;  text-anchor: left">,</text>

<text x="140" y="260" style="stroke: #ecd264; fill: #ecd264; font-size:12pt; text-decoration: underline;  text-anchor: left">expr</text>

<rect x="140" y="270" width="30" height="30"
  style="fill: none; stroke: #ecd264" />
<text x="155" y="290" style="stroke: #ecd264; fill: #ecd264; font-size:12pt;  text-anchor: middle">3</text>

<text x="110" y="360" style="stroke: #ecd264; fill: #ecd264; font-size:12pt;  text-anchor: left">)</text>

<rect x="90" y="370" width="30" height="30"
  style="fill: none; stroke: #ecd264" />
<text x="105" y="390" style="stroke: #ecd264; fill: #ecd264; font-size:12pt;  text-anchor: middle">4</text>



</svg>
