<?xml version="1.0" standalone="no"?>

<!DOCTYPE svg PUBLIC "-//W3C//DTD SVG 1.1//EN" 
"http://www.w3.org/Graphics/SVG/1.1/DTD/svg11.dtd">

<svg width="500" height="850" version="1.1"
     xmlns="http://www.w3.org/2000/svg">
<title>Transition Diagram for trans_set</title>
<rect x="0" y="0" width="500" height="850" style="fill: #4c76ac; stroke: #4c76ac" />

<circle cx="25" cy="25" r="20" style="stroke: #ecd264; fill: none" />
<text x="25" y="30" style="stroke: #ecd264; fill: #ecd264; font-size:12pt;  text-anchor: middle">E</text>

<circle cx="150" cy="25" r="20" style="stroke: #ecd264; fill: none" />

<path d="M 225 5,
     245 25,
     225 45,
     205 25,
     225 5"
     style="fill: none; stroke: #ecd264" />

<circle cx="225" cy="125" r="20" style="stroke: #ecd264; fill: none" />

<circle cx="225" cy="225" r="20" style="stroke: #ecd264; fill: none" />

<circle cx="225" cy="325" r="20" style="stroke: #ecd264; fill: none" />

<circle cx="225" cy="425" r="20" style="stroke: #ecd264; fill: none" />

<circle cx="225" cy="525" r="20" style="stroke: #ecd264; fill: none" />

<circle cx="225" cy="625" r="20" style="stroke: #ecd264; fill: none" />

<path d="M 225 705,
     245 725,
     225 745,
     205 725,
     225 705"
     style="fill: none; stroke: #ecd264" />

<circle cx="225" cy="825" r="20" style="stroke: #ecd264; fill: none" />
<text x="225" y="830" style="stroke: #ecd264; fill: #ecd264; font-size:12pt;  text-anchor: middle">X</text>

<circle cx="325" cy="725" r="20" style="stroke: #ecd264; fill: none" />
<text x="325" y="730" style="stroke: #ecd264; fill: #ecd264; font-size:12pt;  text-anchor: middle">Y</text>

<circle cx="425" cy="225" r="20" style="stroke: #ecd264; fill: none" />

<circle cx="425" cy="325" r="20" style="stroke: #ecd264; fill: none" />

<text x="50" y="20" style="stroke: #ecd264; fill: #ecd264; font-size:12pt; text-decoration: underline;  text-anchor: left">postcond</text>

<text x="280" y="20" style="stroke: #ecd264; fill: #ecd264; font-size:12pt;  text-anchor: left">W</text>

<text x="240" y="80" style="stroke: #ecd264; fill: #ecd264; font-size:12pt;  text-anchor: left">X</text>

<path d="M 45 25,    130 25"
          style="stroke: #ecd264; fill: none" />
<path d="M 121 20,   121 30"    style="stroke: #ecd264; fill: none" />
<path d="M 122 20,   122 30"    style="stroke: #ecd264; fill: none" />
<path d="M 123 21,   123 29"    style="stroke: #ecd264; fill: none" />
<path d="M 124 21,   124 29"    style="stroke: #ecd264; fill: none" />
<path d="M 125 22,   125 28"    style="stroke: #ecd264; fill: none" />
<path d="M 126 22,   126 28"    style="stroke: #ecd264; fill: none" />
<path d="M 127 23,   127 27"    style="stroke: #ecd264; fill: none" />
<path d="M 128 23,   128 27"    style="stroke: #ecd264; fill: none" />
<path d="M 129 24,   129 26"    style="stroke: #ecd264; fill: none" />
<path d="M 130 24,   130 26"    style="stroke: #ecd264; fill: none" />

<path d="M 170 25,    205 25"
          style="stroke: #ecd264; fill: none" />
<path d="M 196 20,   196 30"    style="stroke: #ecd264; fill: none" />
<path d="M 197 20,   197 30"    style="stroke: #ecd264; fill: none" />
<path d="M 198 21,   198 29"    style="stroke: #ecd264; fill: none" />
<path d="M 199 21,   199 29"    style="stroke: #ecd264; fill: none" />
<path d="M 200 22,   200 28"    style="stroke: #ecd264; fill: none" />
<path d="M 201 22,   201 28"    style="stroke: #ecd264; fill: none" />
<path d="M 202 23,   202 27"    style="stroke: #ecd264; fill: none" />
<path d="M 203 23,   203 27"    style="stroke: #ecd264; fill: none" />
<path d="M 204 24,   204 26"    style="stroke: #ecd264; fill: none" />
<path d="M 205 24,   205 26"    style="stroke: #ecd264; fill: none" />

<path d="M 225 45,    225 105"
          style="stroke: #ecd264; fill: none" />
<path d="M 230 96,   220 96"    style="stroke: #ecd264; fill: none" />
<path d="M 230 97,   220 97"    style="stroke: #ecd264; fill: none" />
<path d="M 229 98,   221 98"    style="stroke: #ecd264; fill: none" />
<path d="M 229 99,   221 99"    style="stroke: #ecd264; fill: none" />
<path d="M 228 100,   222 100"    style="stroke: #ecd264; fill: none" />
<path d="M 228 101,   222 101"    style="stroke: #ecd264; fill: none" />
<path d="M 227 102,   223 102"    style="stroke: #ecd264; fill: none" />
<path d="M 227 103,   223 103"    style="stroke: #ecd264; fill: none" />
<path d="M 226 104,   224 104"    style="stroke: #ecd264; fill: none" />
<path d="M 226 105,   224 105"    style="stroke: #ecd264; fill: none" />

<path d="M 225 145,    225 205"
          style="stroke: #ecd264; fill: none" />
<path d="M 230 196,   220 196"    style="stroke: #ecd264; fill: none" />
<path d="M 230 197,   220 197"    style="stroke: #ecd264; fill: none" />
<path d="M 229 198,   221 198"    style="stroke: #ecd264; fill: none" />
<path d="M 229 199,   221 199"    style="stroke: #ecd264; fill: none" />
<path d="M 228 200,   222 200"    style="stroke: #ecd264; fill: none" />
<path d="M 228 201,   222 201"    style="stroke: #ecd264; fill: none" />
<path d="M 227 202,   223 202"    style="stroke: #ecd264; fill: none" />
<path d="M 227 203,   223 203"    style="stroke: #ecd264; fill: none" />
<path d="M 226 204,   224 204"    style="stroke: #ecd264; fill: none" />
<path d="M 226 205,   224 205"    style="stroke: #ecd264; fill: none" />

<path d="M 225 245,    225 305"
          style="stroke: #ecd264; fill: none" />
<path d="M 230 296,   220 296"    style="stroke: #ecd264; fill: none" />
<path d="M 230 297,   220 297"    style="stroke: #ecd264; fill: none" />
<path d="M 229 298,   221 298"    style="stroke: #ecd264; fill: none" />
<path d="M 229 299,   221 299"    style="stroke: #ecd264; fill: none" />
<path d="M 228 300,   222 300"    style="stroke: #ecd264; fill: none" />
<path d="M 228 301,   222 301"    style="stroke: #ecd264; fill: none" />
<path d="M 227 302,   223 302"    style="stroke: #ecd264; fill: none" />
<path d="M 227 303,   223 303"    style="stroke: #ecd264; fill: none" />
<path d="M 226 304,   224 304"    style="stroke: #ecd264; fill: none" />
<path d="M 226 305,   224 305"    style="stroke: #ecd264; fill: none" />

<path d="M 225 345,    225 405"
          style="stroke: #ecd264; fill: none" />
<path d="M 230 396,   220 396"    style="stroke: #ecd264; fill: none" />
<path d="M 230 397,   220 397"    style="stroke: #ecd264; fill: none" />
<path d="M 229 398,   221 398"    style="stroke: #ecd264; fill: none" />
<path d="M 229 399,   221 399"    style="stroke: #ecd264; fill: none" />
<path d="M 228 400,   222 400"    style="stroke: #ecd264; fill: none" />
<path d="M 228 401,   222 401"    style="stroke: #ecd264; fill: none" />
<path d="M 227 402,   223 402"    style="stroke: #ecd264; fill: none" />
<path d="M 227 403,   223 403"    style="stroke: #ecd264; fill: none" />
<path d="M 226 404,   224 404"    style="stroke: #ecd264; fill: none" />
<path d="M 226 405,   224 405"    style="stroke: #ecd264; fill: none" />

<path d="M 225 445,    225 505"
          style="stroke: #ecd264; fill: none" />
<path d="M 230 496,   220 496"    style="stroke: #ecd264; fill: none" />
<path d="M 230 497,   220 497"    style="stroke: #ecd264; fill: none" />
<path d="M 229 498,   221 498"    style="stroke: #ecd264; fill: none" />
<path d="M 229 499,   221 499"    style="stroke: #ecd264; fill: none" />
<path d="M 228 500,   222 500"    style="stroke: #ecd264; fill: none" />
<path d="M 228 501,   222 501"    style="stroke: #ecd264; fill: none" />
<path d="M 227 502,   223 502"    style="stroke: #ecd264; fill: none" />
<path d="M 227 503,   223 503"    style="stroke: #ecd264; fill: none" />
<path d="M 226 504,   224 504"    style="stroke: #ecd264; fill: none" />
<path d="M 226 505,   224 505"    style="stroke: #ecd264; fill: none" />

<path d="M 225 545,    225 605"
          style="stroke: #ecd264; fill: none" />
<path d="M 230 596,   220 596"    style="stroke: #ecd264; fill: none" />
<path d="M 230 597,   220 597"    style="stroke: #ecd264; fill: none" />
<path d="M 229 598,   221 598"    style="stroke: #ecd264; fill: none" />
<path d="M 229 599,   221 599"    style="stroke: #ecd264; fill: none" />
<path d="M 228 600,   222 600"    style="stroke: #ecd264; fill: none" />
<path d="M 228 601,   222 601"    style="stroke: #ecd264; fill: none" />
<path d="M 227 602,   223 602"    style="stroke: #ecd264; fill: none" />
<path d="M 227 603,   223 603"    style="stroke: #ecd264; fill: none" />
<path d="M 226 604,   224 604"    style="stroke: #ecd264; fill: none" />
<path d="M 226 605,   224 605"    style="stroke: #ecd264; fill: none" />

<path d="M 225 645,    225 705"
          style="stroke: #ecd264; fill: none" />
<path d="M 230 696,   220 696"    style="stroke: #ecd264; fill: none" />
<path d="M 230 697,   220 697"    style="stroke: #ecd264; fill: none" />
<path d="M 229 698,   221 698"    style="stroke: #ecd264; fill: none" />
<path d="M 229 699,   221 699"    style="stroke: #ecd264; fill: none" />
<path d="M 228 700,   222 700"    style="stroke: #ecd264; fill: none" />
<path d="M 228 701,   222 701"    style="stroke: #ecd264; fill: none" />
<path d="M 227 702,   223 702"    style="stroke: #ecd264; fill: none" />
<path d="M 227 703,   223 703"    style="stroke: #ecd264; fill: none" />
<path d="M 226 704,   224 704"    style="stroke: #ecd264; fill: none" />
<path d="M 226 705,   224 705"    style="stroke: #ecd264; fill: none" />

<path d="M 225 745,    225 805"
          style="stroke: #ecd264; fill: none" />
<path d="M 230 796,   220 796"    style="stroke: #ecd264; fill: none" />
<path d="M 230 797,   220 797"    style="stroke: #ecd264; fill: none" />
<path d="M 229 798,   221 798"    style="stroke: #ecd264; fill: none" />
<path d="M 229 799,   221 799"    style="stroke: #ecd264; fill: none" />
<path d="M 228 800,   222 800"    style="stroke: #ecd264; fill: none" />
<path d="M 228 801,   222 801"    style="stroke: #ecd264; fill: none" />
<path d="M 227 802,   223 802"    style="stroke: #ecd264; fill: none" />
<path d="M 227 803,   223 803"    style="stroke: #ecd264; fill: none" />
<path d="M 226 804,   224 804"    style="stroke: #ecd264; fill: none" />
<path d="M 226 805,   224 805"    style="stroke: #ecd264; fill: none" />

<path d="M 245 725,    305 725"
          style="stroke: #ecd264; fill: none" />
<path d="M 296 720,   296 730"    style="stroke: #ecd264; fill: none" />
<path d="M 297 720,   297 730"    style="stroke: #ecd264; fill: none" />
<path d="M 298 721,   298 729"    style="stroke: #ecd264; fill: none" />
<path d="M 299 721,   299 729"    style="stroke: #ecd264; fill: none" />
<path d="M 300 722,   300 728"    style="stroke: #ecd264; fill: none" />
<path d="M 301 722,   301 728"    style="stroke: #ecd264; fill: none" />
<path d="M 302 723,   302 727"    style="stroke: #ecd264; fill: none" />
<path d="M 303 723,   303 727"    style="stroke: #ecd264; fill: none" />
<path d="M 304 724,   304 726"    style="stroke: #ecd264; fill: none" />
<path d="M 305 724,   305 726"    style="stroke: #ecd264; fill: none" />

<path d="M 205 725,    50 725,
         50 125,
         205 125"
          style="stroke: #ecd264; fill: none" />
<path d="M 196 120,   196 130"    style="stroke: #ecd264; fill: none" />
<path d="M 197 120,   197 130"    style="stroke: #ecd264; fill: none" />
<path d="M 198 121,   198 129"    style="stroke: #ecd264; fill: none" />
<path d="M 199 121,   199 129"    style="stroke: #ecd264; fill: none" />
<path d="M 200 122,   200 128"    style="stroke: #ecd264; fill: none" />
<path d="M 201 122,   201 128"    style="stroke: #ecd264; fill: none" />
<path d="M 202 123,   202 127"    style="stroke: #ecd264; fill: none" />
<path d="M 203 123,   203 127"    style="stroke: #ecd264; fill: none" />
<path d="M 204 124,   204 126"    style="stroke: #ecd264; fill: none" />
<path d="M 205 124,   205 126"    style="stroke: #ecd264; fill: none" />

<path d="M 245 25,    495 25,
         495 525,
         245 525"
          style="stroke: #ecd264; fill: none" />
<path d="M 254 530,   254 520"    style="stroke: #ecd264; fill: none" />
<path d="M 253 530,   253 520"    style="stroke: #ecd264; fill: none" />
<path d="M 252 529,   252 521"    style="stroke: #ecd264; fill: none" />
<path d="M 251 529,   251 521"    style="stroke: #ecd264; fill: none" />
<path d="M 250 528,   250 522"    style="stroke: #ecd264; fill: none" />
<path d="M 249 528,   249 522"    style="stroke: #ecd264; fill: none" />
<path d="M 248 527,   248 523"    style="stroke: #ecd264; fill: none" />
<path d="M 247 527,   247 523"    style="stroke: #ecd264; fill: none" />
<path d="M 246 526,   246 524"    style="stroke: #ecd264; fill: none" />
<path d="M 245 526,   245 524"    style="stroke: #ecd264; fill: none" />

<path d="M 245 225,    405 225"
          style="stroke: #ecd264; fill: none" />
<path d="M 396 220,   396 230"    style="stroke: #ecd264; fill: none" />
<path d="M 397 220,   397 230"    style="stroke: #ecd264; fill: none" />
<path d="M 398 221,   398 229"    style="stroke: #ecd264; fill: none" />
<path d="M 399 221,   399 229"    style="stroke: #ecd264; fill: none" />
<path d="M 400 222,   400 228"    style="stroke: #ecd264; fill: none" />
<path d="M 401 222,   401 228"    style="stroke: #ecd264; fill: none" />
<path d="M 402 223,   402 227"    style="stroke: #ecd264; fill: none" />
<path d="M 403 223,   403 227"    style="stroke: #ecd264; fill: none" />
<path d="M 404 224,   404 226"    style="stroke: #ecd264; fill: none" />
<path d="M 405 224,   405 226"    style="stroke: #ecd264; fill: none" />

<path d="M 405 325,    245 325"
          style="stroke: #ecd264; fill: none" />
<path d="M 254 330,   254 320"    style="stroke: #ecd264; fill: none" />
<path d="M 253 330,   253 320"    style="stroke: #ecd264; fill: none" />
<path d="M 252 329,   252 321"    style="stroke: #ecd264; fill: none" />
<path d="M 251 329,   251 321"    style="stroke: #ecd264; fill: none" />
<path d="M 250 328,   250 322"    style="stroke: #ecd264; fill: none" />
<path d="M 249 328,   249 322"    style="stroke: #ecd264; fill: none" />
<path d="M 248 327,   248 323"    style="stroke: #ecd264; fill: none" />
<path d="M 247 327,   247 323"    style="stroke: #ecd264; fill: none" />
<path d="M 246 326,   246 324"    style="stroke: #ecd264; fill: none" />
<path d="M 245 326,   245 324"    style="stroke: #ecd264; fill: none" />

<path d="M 425 245,    425 305"
          style="stroke: #ecd264; fill: none" />
<path d="M 430 296,   420 296"    style="stroke: #ecd264; fill: none" />
<path d="M 430 297,   420 297"    style="stroke: #ecd264; fill: none" />
<path d="M 429 298,   421 298"    style="stroke: #ecd264; fill: none" />
<path d="M 429 299,   421 299"    style="stroke: #ecd264; fill: none" />
<path d="M 428 300,   422 300"    style="stroke: #ecd264; fill: none" />
<path d="M 428 301,   422 301"    style="stroke: #ecd264; fill: none" />
<path d="M 427 302,   423 302"    style="stroke: #ecd264; fill: none" />
<path d="M 427 303,   423 303"    style="stroke: #ecd264; fill: none" />
<path d="M 426 304,   424 304"    style="stroke: #ecd264; fill: none" />
<path d="M 426 305,   424 305"    style="stroke: #ecd264; fill: none" />

<path d="M 407.1114561800016824 316.0557280900008412,    375 300,
         375 250,
         407.1114561800016824 233.9442719099991588"
          style="stroke: #ecd264; fill: none" />
<path d="M 396.8255434835026498 233.4970583144992008,   401.2976794385022292 242.4413302244983596"    style="stroke: #ecd264; fill: none" />
<path d="M 397.7199706745025657 233.0498447189992429,   402.1921066295021451 241.9941166289984017"    style="stroke: #ecd264; fill: none" />
<path d="M 399.0616114610024395 233.4970583144992009,   402.6393202250021031 240.6524758424985279"    style="stroke: #ecd264; fill: none" />
<path d="M 399.9560386520023554 233.0498447189992429,   403.533747416002019 240.2052622469985699"    style="stroke: #ecd264; fill: none" />
<path d="M 401.2976794385022292 233.4970583144992009,   403.9809610115019768 238.8636214604986961"    style="stroke: #ecd264; fill: none" />
<path d="M 402.1921066295021451 233.0498447189992429,   404.8753882025018927 238.4164078649987381"    style="stroke: #ecd264; fill: none" />
<path d="M 403.5337474160020189 233.4970583144992008,   405.3226017980018507 237.0747670784988644"    style="stroke: #ecd264; fill: none" />
<path d="M 404.4281746070019348 233.0498447189992429,   406.2170289890017666 236.6275534829989065"    style="stroke: #ecd264; fill: none" />
<path d="M 405.7698153935018086 233.4970583144992008,   406.6642425845017244 235.2859126964990326"    style="stroke: #ecd264; fill: none" />
<path d="M 406.6642425845017245 233.0498447189992429,   407.5586697755016403 234.8386991009990747"    style="stroke: #ecd264; fill: none" />

<rect x="240" y="160" width="30" height="30"
  style="fill: none; stroke: #ecd264" />
<text x="255" y="180" style="stroke: #ecd264; fill: #ecd264; font-size:12pt;  text-anchor: middle">1</text>

<text x="300" y="215" style="stroke: #ecd264; fill: #ecd264; font-size:12pt;  text-anchor: left">(</text>

<rect x="320" y="190" width="30" height="30"
  style="fill: none; stroke: #ecd264" />
<text x="335" y="210" style="stroke: #ecd264; fill: #ecd264; font-size:12pt;  text-anchor: middle">2</text>

<text x="240" y="250" style="stroke: #ecd264; fill: #ecd264; font-size:12pt; text-decoration: underline;  text-anchor: left">glvn</text>

<rect x="240" y="260" width="30" height="30"
  style="fill: none; stroke: #ecd264" />
<text x="255" y="280" style="stroke: #ecd264; fill: #ecd264; font-size:12pt;  text-anchor: middle">4</text>

<text x="440" y="250" style="stroke: #ecd264; fill: #ecd264; font-size:12pt; text-decoration: underline;  text-anchor: left">glvn</text>

<rect x="440" y="260" width="30" height="30"
  style="fill: none; stroke: #ecd264" />
<text x="455" y="280" style="stroke: #ecd264; fill: #ecd264; font-size:12pt;  text-anchor: middle">3</text>

<text x="360" y="250" style="stroke: #ecd264; fill: #ecd264; font-size:12pt;  text-anchor: left">,</text>

<rect x="340" y="260" width="30" height="30"
  style="fill: none; stroke: #ecd264" />
<text x="355" y="280" style="stroke: #ecd264; fill: #ecd264; font-size:12pt;  text-anchor: middle">1</text>

<text x="320" y="315" style="stroke: #ecd264; fill: #ecd264; font-size:12pt;  text-anchor: left">)</text>

<text x="240" y="450" style="stroke: #ecd264; fill: #ecd264; font-size:12pt; text-decoration: underline;  text-anchor: left">expr</text>

<rect x="240" y="460" width="30" height="30"
  style="fill: none; stroke: #ecd264" />
<text x="255" y="480" style="stroke: #ecd264; fill: #ecd264; font-size:12pt;  text-anchor: middle">5</text>

<text x="240" y="370" style="stroke: #ecd264; fill: #ecd264; font-size:12pt;  text-anchor: left">=</text>

<text x="240" y="570" style="stroke: #ecd264; fill: #ecd264; font-size:12pt; text-decoration: underline;  text-anchor: left">comend</text>

<text x="250" y="720" style="stroke: #ecd264; fill: #ecd264; font-size:12pt;  text-anchor: left">Y</text>

<text x="180" y="720" style="stroke: #ecd264; fill: #ecd264; font-size:12pt;  text-anchor: left">Z</text>

<text x="240" y="760" style="stroke: #ecd264; fill: #ecd264; font-size:12pt;  text-anchor: left">X</text>

<circle cx="125" cy="275" r="20" style="stroke: #ecd264; fill: none" />

<path d="M 207.1114561800016824 233.9442719099991588,    142.8885438199983176 266.0557280900008412"
          style="stroke: #ecd264; fill: none" />
<path d="M 153.1744565164973502 266.5029416855007992,   148.7023205614977708 257.5586697755016404"    style="stroke: #ecd264; fill: none" />
<path d="M 152.2800293254974343 266.9501552810007571,   147.8078933704978549 258.0058833710015983"    style="stroke: #ecd264; fill: none" />
<path d="M 150.9383885389975605 266.5029416855007991,   147.3606797749978969 259.3475241575014721"    style="stroke: #ecd264; fill: none" />
<path d="M 150.0439613479976446 266.9501552810007571,   146.466252583997981 259.7947377530014301"    style="stroke: #ecd264; fill: none" />
<path d="M 148.7023205614977708 266.5029416855007991,   146.0190389884980232 261.1363785395013039"    style="stroke: #ecd264; fill: none" />
<path d="M 147.8078933704978549 266.9501552810007571,   145.1246117974981073 261.5835921350012619"    style="stroke: #ecd264; fill: none" />
<path d="M 146.4662525839979811 266.5029416855007992,   144.6773982019981493 262.9252329215011356"    style="stroke: #ecd264; fill: none" />
<path d="M 145.5718253929980652 266.9501552810007571,   143.7829710109982334 263.3724465170010935"    style="stroke: #ecd264; fill: none" />
<path d="M 144.2301846064981914 266.5029416855007992,   143.3357574154982756 264.7140873035009674"    style="stroke: #ecd264; fill: none" />
<path d="M 143.3357574154982755 266.9501552810007571,   142.4413302244983597 265.1613008990009253"    style="stroke: #ecd264; fill: none" />

<path d="M 142.8885438199983176 283.9442719099991588,    207.1114561800016824 316.0557280900008412"
          style="stroke: #ecd264; fill: none" />
<path d="M 201.2976794385022292 307.5586697755016404,   196.8255434835026498 316.5029416855007992"    style="stroke: #ecd264; fill: none" />
<path d="M 202.1921066295021451 308.0058833710015983,   197.7199706745025657 316.9501552810007571"    style="stroke: #ecd264; fill: none" />
<path d="M 202.6393202250021031 309.3475241575014721,   199.0616114610024395 316.5029416855007991"    style="stroke: #ecd264; fill: none" />
<path d="M 203.533747416002019 309.7947377530014301,   199.9560386520023554 316.9501552810007571"    style="stroke: #ecd264; fill: none" />
<path d="M 203.9809610115019768 311.1363785395013039,   201.2976794385022292 316.5029416855007991"    style="stroke: #ecd264; fill: none" />
<path d="M 204.8753882025018927 311.5835921350012619,   202.1921066295021451 316.9501552810007571"    style="stroke: #ecd264; fill: none" />
<path d="M 205.3226017980018507 312.9252329215011356,   203.5337474160020189 316.5029416855007992"    style="stroke: #ecd264; fill: none" />
<path d="M 206.2170289890017666 313.3724465170010935,   204.4281746070019348 316.9501552810007571"    style="stroke: #ecd264; fill: none" />
<path d="M 206.6642425845017244 314.7140873035009674,   205.7698153935018086 316.5029416855007992"    style="stroke: #ecd264; fill: none" />
<path d="M 207.5586697755016403 315.1613008990009253,   206.6642425845017245 316.9501552810007571"    style="stroke: #ecd264; fill: none" />

<text x="110" y="240" style="stroke: #ecd264; fill: #ecd264; font-size:12pt; text-decoration: underline;  text-anchor: left">setpiece</text>

<rect x="145" y="305" width="30" height="30"
  style="fill: none; stroke: #ecd264" />
<text x="160" y="325" style="stroke: #ecd264; fill: #ecd264; font-size:12pt;  text-anchor: middle">4</text>



</svg>
